<?xml version="1.0" encoding="UTF-8"?>
<svg xmlns="http://www.w3.org/2000/svg" width="1200" height="600">
<rect fill="#da121a" height="600" width="1200"/>
<rect fill="#fcdd09" height="400" width="1200"/>
<rect fill="#078930" height="200" width="1200"/>
<circle fill="#0f47af" cx="600" cy="300" r="200"/>
  <path
     d="m 447.83102,249.93534 116.24678,0 26.28382,-80.89331 7.00974,21.57379 -38.19586,117.5548 -11.342,-8.24046 11.91202,-36.66148 -93.56274,0 -18.35176,-13.33334 m 58.1234,178.8854 35.9222,-110.55724 -68.81196,-49.99482 22.68402,0 99.9981,72.65286 -11.342,8.24044 -31.18614,-22.65804 -28.9125,88.98348 -18.35172,13.33332 m 188.0912,0 -94.0456,-68.32814 -68.81196,49.99482 7.00976,-21.57378 99.99806,-72.65286 4.33226,13.33332 -31.18612,22.65804 75.69388,54.99482 7.00972,21.57378 m 58.1234,-178.8854 -94.0456,68.32816 26.2838,80.8933 -18.35174,-13.33332 -38.19586,-117.5548 14.01948,0 11.91206,36.66148 75.69384,-54.99482 22.68402,0 m -152.169,-110.55724 35.92224,110.55724 85.05624,0 -18.35176,13.33334 -123.6044,0 4.33224,-13.33334 38.54818,0 -28.9125,-88.98346 7.00976,-21.57378 z"
     id="path12"
     style="fill:#fcdd09" />
  <path
     d="m 600.00028,373.33298 0,86.66664 m -69.7441,-137.33872 -82.4249,26.78146 M 556.89606,240.67174 505.95468,170.55697 m 137.14984,70.11477 50.94138,-70.11477 m -24.3015,152.10393 82.4249,26.78146 -82.4249,-26.78146 z"
     id="path14"
     style="stroke:#fcdd09;stroke-width:6.66666508" />
</svg>
