<svg xmlns="http://www.w3.org/2000/svg" xmlns:xlink="http://www.w3.org/1999/xlink" width="600" height="300" viewBox="0 0 2000 1000">
<title>Flag of Kazakhstan</title>
<defs>
<path id="be" d="M0-76.45c4-0.05,5.5-2.55,5.5-5.55,0-4-5.5-23.05-5.5-23.05s-5.5,19.05-5.5,23.05c0,3,1.5,5.55,5.5,5.55z"/>
<path id="orn" d="M-1,15c0-10,9-15.14,16.072-15.14,9.528,0,14.601,5.683,14.601,13.122,0,4.2169-0.77453,6.863-2.7237,10.899,0,0-15.717,32.606-21.836,45.217-0.76309,1.5729-1.0093,3.3634-1.0093,5.9885,0,4.0539,3.9416,7.3673,8.0744,7.4688,3.7675,0.094,7.8725-3.5039,7.8725-7.6033,0-4.9796-2.5894-7.1996-5.2483-7.1996-3.2718,0-4.5755,1.3418-4.5755,3.6335,0,1.5968,0.77308,2.2877,1.884,2.2877,2.8063,0,2.0186-3.768,2.0186-3.768,1.3938,0.3044,2.5388,1.725,1.884,3.4989,1.0196,0.22647,1.9747,0.7604,2.7251,1.6149-0.75228,0.72756-1.6152,1.2892-2.7251,1.4803,0.65722,2.1644-0.221,3.222-2.1195,3.6671,0.38311-0.8326,0.39629-1.5985,0.26914-2.3214-2.9889,0.84788-7.5697-0.5014-7.5697-5.652,0-5.1138,3.5576-9.4196,10.228-8.3435-1.5869-0.75687-2.394-2.3055-2.5569-4.0372,1.2112,0.471,2.5569,0.53829,2.5569,0.53829-0.77989-1.3719-1.8631-2.5544-1.8167-5.2483,1.2367,0.56086,2.3851,1.5994,3.9699,0.94201-2.4873-4.8826,0.56859-11.599,8.3435-13.188-2.8455,3.3273-4.239,6.9201-4.239,10.497,0,11.592,3.2297,13.54,3.2297,21.599,0,3.3717-1.7375,7.013-5.181,9.4874v-0.13457c2.276,0.608,3.734,1.726,4.572,3.245-5.2,1.471-12.759,1.444-16.818-0.149-4.6656-0.539-7.9221-4.11-8.8818-5.922-0.95972-1.811-2.8237-8.364,0-14.264,3.0903-6.457,17.661-37.277,22.204-46.966,0.9636-2.055,1.5476-4.2343,1.5476-6.5941,0-5.9349-5.4502-8.0071-8.5454-8.0071-3.7007,0-7.4688,2.8125-7.4688,6.3249,0,2.2256,1.2112,3.5662,2.9606,3.5662,4.1833,0,3.9292-3.55,3.0952-5.7866,2.6035,1.1676,4.1168,3.252,3.7007,5.4502,1.474,0.2014,2.877,0.89888,4.1717,2.355-1.0187,1.2832-2.2612,2.2532-4.1717,2.2877,0.83444,3.41-1.4543,4.8522-3.7007,5.652,0.71068-2.5027,1.1772-5.3829-3.0952-5.3829-3.115,0-5.5679-0.53829-6.9978-2.5569-0.084108,2.6914-0.33643,13.323-0.33643,13.323-0.17943,3.995,5.3605,3.8808,8.8818,2.6914-1.3289,4.6018-4.0543,7.0898-10.362,6.4595,1.5308,0.63922,3.1625,2.0762,3.1625,4.8446-0.001,3.746-3.0475,7.896-5.0475,9.123l-1-39z"/>
<path id="uorn" d="m0-35.599s4.7531-3.9844,6.3671-1.9859c2.5961,3.2144-7.982,19.225-7.982,24.863,0,9.255,6.1902,11.772,13.834,13.093,5.129,0.8871,13.481-0.371,13.481-0.371-1.5725-2.1079-2.5953-2.729-5.245-2.8975,2.9499-1.5278,5.9538-4.8441,5.9538-10.007,0-7.9617-3.2855-11.243-3.2855-20.219,0-4.9792,4.0929-11.318,4.0929-11.318-7.2343,0.72228-10.82,7.4047-8.7799,12.745-1.1516,0.16548-2.1972-0.09311-3.0952-0.94201-0.52945,1.4803,0.30635,3.1985,1.426,4.6788-0.90173,0.48068-1.564,0.19242-3-0.10332,0.13618,1.5252,1.0523,3.1455,3.2936,4.6706-6.5041-1.6845-10.506,2.8376-10.506,7.5715,0,3.5758,2.5119,6.1386,4.9671,6.1386,0.79347,0,1.959-0.326,2.6166-0.8156,0.46352,0.98414,0.22467,2.3013-0.25282,3.2855,1.7996-0.47454,2.9418-1.5407,2.1287-3.7599,1.3822-0.12667,2.4817-0.59257,3.2297-1.4803-0.75781-0.96814-1.9074-1.5258-3.2297-1.4803,1.0064-2.0718-0.11515-3.2317-1.7494-4.1718,0,0,1.0393,4.1717-1.6149,4.1717-1.1935,0-2.281-0.38758-2.281-2.1422,0-1.5279,1.339-3.6444,4.4341-3.5098,3.0952,0.13457,5.6045,2.1289,5.6045,7.0577,0,4.5468-3.6762,6.8081-8.5205,6.9542-4.3688,0.13457-7.6662-2.2263-7.6662-6.7219,0-5.9835,8.6588-19.622,8.6588-24.954,0-4.0006-3.6064-6.2337-7.1351-6.2337-4.5755,0-8.4359,4.5197-8.4359,4.5197l2.688,3.362z"/>
</defs>
<rect height="1000" width="2000" y="0" x="0" fill="#00afca"/>
<use xlink:href="#use4303" transform="matrix(-1,0,0,1,240,0)" height="1000" width="2000" y="0" x="0"/>
<use xlink:href="#be" transform="matrix(1.960637,0.3899949,-0.3899949,1.960637,1080.4716,420)" height="500" width="1000" y="0" x="0" fill="#fec50c"/>
<use xlink:href="#be" transform="matrix(1.8468795,0.7650026,-0.7650026,1.8468795,1080.4716,420)" height="500" width="1000" y="0" x="0" fill="#fec50c"/>
<use xlink:href="#be" transform="matrix(1.6621476,1.1106115,-1.1106115,1.6621476,1080.4716,420)" height="500" width="1000" y="0" x="0" fill="#fec50c"/>
<use xlink:href="#be" transform="matrix(1.4135403,1.4135403,-1.4135403,1.4135403,1080.4716,420)" height="500" width="1000" y="0" x="0" fill="#fec50c"/>
<use xlink:href="#be" transform="matrix(1.1106115,1.6621476,-1.6621476,1.1106115,1080.4716,420)" height="500" width="1000" y="0" x="0" fill="#fec50c"/>
<use xlink:href="#be" transform="matrix(0.7650026,1.8468795,-1.8468795,0.7650026,1080.4716,420)" height="500" width="1000" y="0" x="0" fill="#fec50c"/>
<use xlink:href="#be" transform="matrix(0.3899949,1.960637,-1.960637,0.3899949,1080.4716,420)" height="500" width="1000" y="0" x="0" fill="#fec50c"/>
<use xlink:href="#be" transform="matrix(0,1.9990481,-1.9990481,0,1080.4716,420)" height="500" width="1000" y="0" x="0" fill="#fec50c"/>
<use xlink:href="#be" transform="matrix(-0.3899949,1.960637,-1.960637,-0.3899949,1080.4716,420)" height="500" width="1000" y="0" x="0" fill="#fec50c"/>
<use xlink:href="#be" transform="matrix(-0.7650026,1.8468795,-1.8468795,-0.7650026,1080.4716,420)" height="500" width="1000" y="0" x="0" fill="#fec50c"/>
<use xlink:href="#be" transform="matrix(-1.1106115,1.6621476,-1.6621476,-1.1106115,1080.4716,420)" height="500" width="1000" y="0" x="0" fill="#fec50c"/>
<use xlink:href="#be" transform="matrix(-1.4135403,1.4135403,-1.4135403,-1.4135403,1080.4716,420)" height="500" width="1000" y="0" x="0" fill="#fec50c"/>
<use xlink:href="#be" transform="matrix(-1.6621476,1.1106115,-1.1106115,-1.6621476,1080.4716,420)" height="500" width="1000" y="0" x="0" fill="#fec50c"/>
<use xlink:href="#be" transform="matrix(-1.8468795,0.7650026,-0.7650026,-1.8468795,1080.4716,420)" height="500" width="1000" y="0" x="0" fill="#fec50c"/>
<use xlink:href="#be" transform="matrix(-1.6621476,-1.1106115,1.1106115,-1.6621476,1080.4716,420)" height="500" width="1000" y="0" x="0" fill="#fec50c"/>
<use xlink:href="#be" transform="matrix(-1.4135403,-1.4135403,1.4135403,-1.4135403,1080.4716,420)" height="500" width="1000" y="0" x="0" fill="#fec50c"/>
<use xlink:href="#be" transform="matrix(-1.1106115,-1.6621476,1.6621476,-1.1106115,1080.4716,420)" height="500" width="1000" y="0" x="0" fill="#fec50c"/>
<use xlink:href="#be" transform="matrix(-0.7650026,-1.8468795,1.8468795,-0.7650026,1080.4716,420)" height="500" width="1000" y="0" x="0" fill="#fec50c"/>
<use xlink:href="#be" transform="matrix(-0.3899949,-1.960637,1.960637,-0.3899949,1080.4716,420)" height="500" width="1000" y="0" x="0" fill="#fec50c"/>
<use xlink:href="#be" transform="matrix(0,-1.9990481,1.9990481,0,1080.4716,420)" height="500" width="1000" y="0" x="0" fill="#fec50c"/>
<use xlink:href="#be" transform="matrix(0.3899949,-1.960637,1.960637,0.3899949,1080.4716,420)" height="500" width="1000" y="0" x="0" fill="#fec50c"/>
<use xlink:href="#be" transform="matrix(0.7650026,-1.8468795,1.8468795,0.7650026,1080.4716,420)" height="500" width="1000" y="0" x="0" fill="#fec50c"/>
<use xlink:href="#be" transform="matrix(1.1106115,-1.6621476,1.6621476,1.1106115,1080.4716,420)" height="500" width="1000" y="0" x="0" fill="#fec50c"/>
<use xlink:href="#be" transform="matrix(1.4135403,-1.4135403,1.4135403,1.4135403,1080.4716,420)" height="500" width="1000" y="0" x="0" fill="#fec50c"/>
<circle transform="matrix(1.9585107,0,0,1.9585107,1080.3005,420.17107)" cy="0" cx="0" r="68.7" fill="#fec50c"/>
<use xlink:href="#be" transform="matrix(1.9990481,0,0,1.9990481,1080.4716,420)" height="500" width="1000" y="0" x="0" fill="#fec50c"/>
<use xlink:href="#be" transform="matrix(-1.960637,0.3899949,-0.3899949,-1.960637,1080.4716,420)" height="500" width="1000" y="0" x="0" fill="#fec50c"/>
<use xlink:href="#be" transform="matrix(-1.9990481,0,0,-1.9990481,1080.4716,420)" height="500" width="1000" y="0" x="0" fill="#fec50c"/>
<use xlink:href="#be" transform="matrix(-1.960637,-0.3899949,0.3899949,-1.960637,1080.4716,420)" height="500" width="1000" y="0" x="0" fill="#fec50c"/>
<use xlink:href="#be" transform="matrix(-1.8468795,-0.7650026,0.7650026,-1.8468795,1080.4716,420)" height="500" width="1000" y="0" x="0" fill="#fec50c"/>
<use xlink:href="#be" transform="matrix(1.6621476,-1.1106115,1.1106115,1.6621476,1080.4716,420)" height="500" width="1000" y="0" x="0" fill="#fec50c"/>
<use xlink:href="#be" transform="matrix(1.8468795,-0.7650026,0.7650026,1.8468795,1080.4716,420)" height="500" width="1000" y="0" x="0" fill="#fec50c"/>
<use xlink:href="#be" transform="matrix(1.960637,-0.3899949,0.3899949,1.960637,1080.4716,420)" height="500" width="1000" y="0" x="0" fill="#fec50c"/>
<path fill-rule="evenodd" fill="#fec50c" d="m1075.8,654.95-2.3216,4.6432-2.5796,5.933-1.5477,2.8375-1.2898,2.5796-1.0318,2.0637-1.2898,1.2898-3.0955-2.5796-3.3535-2.3216-3.6114-1.8057-3.8693-1.5478-4.1274-1.0318-4.1273-1.0318-4.1273-0.77387-4.3853-0.51592-9.0285-0.77387-9.0285-0.25796-8.7706-0.51592-8.2547-1.0318-4.6432-0.77387-4.3853-1.0318-2.3216-0.77388-2.3216-0.77387-2.0637-1.0318-1.8057-1.0318-2.8375-1.8057-2.8375-2.0637-3.0955-2.3216-2.8375-2.5796-5.933-5.6751-5.933-5.6751-5.933-5.4171-5.4171-4.9012-2.5796-1.8057-2.5796-1.8057-2.3216-1.0318-2.3216-0.77387-4.3853-1.0318-3.8694-1.2898-3.8694-1.2898-3.8694-1.8057-3.3535-1.5477-3.3534-2.0637-3.0955-2.0637-2.8375-2.0637-3.0955-2.3216-2.5796-2.3216-2.5796-2.5796-2.5796-2.5796-4.9012-5.4171-4.6432-5.6751-9.2865-12.124-9.8024-12.382-5.6751-5.933-5.933-5.933-3.3534-3.0955-3.3534-2.8375-3.6114-2.5796-3.8694-2.8375-0.77387,0.25795-0.77388,0.77388-0.77387,1.0318-0.51592,1.2898-0.77387,2.3216-0.25796,1.0318-1.8057-0.77387-1.5478-0.77388-1.8057-0.77387-1.5478-0.51592-3.3534,0-1.8057,0.51592-1.8057,0.77387,1.8057,2.3216,2.3216,3.0955,2.3216,3.6114,2.0637,3.8694,2.0637,4.1273,1.5478,3.8694,0.51591,2.0637,0.51592,1.5478,0.25796,1.8057,0,1.5478-2.8375,0-11.092,0,2.0637,3.0955,2.3216,3.0955,2.5796,3.0955,2.8375,2.8375,2.8375,2.8375,2.8375,2.8375,2.8375,2.3216,2.5796,1.8057-2.8375,0.25796-3.8694,0.25796-3.8694,0.51592-2.8375,0.25795,2.3216,2.0637,2.8375,2.0637,3.0955,2.3216,3.3534,2.3216,3.3534,2.0637,3.3535,1.8057,3.0955,1.0318,2.8375,0.77387,1.2898,0.25796,1.0318,0.25796,0.77387,0.25796,0.51592,0.51591,0.25795,0.25796,0,1.0318-0.25795,0.51592-0.51592,1.5477-0.25796,1.5478-0.25796,1.0318,0,0.77388,0.25796,1.2898,0.25796,1.0318,0.51592,0.51591,0.77387,0.51592,1.0318,0.51591,1.2898,0.25796,1.2898,0.51592,1.2898,0.51591,1.2898,0.51592,1.0318,0.77387,0.25796,0.25796,0,0.51591-0.25796,0.25796-1.0318,0.77388-1.0318,0.77387-1.0318,1.0318-1.0318,1.2898,0,1.0318-0.25795,1.0318,0.25795,1.2898,0.25796,1.5478,4.3853,1.5478,4.6432,1.5477,2.0637,0.51592,2.0637,0.77387,1.5478,0.77388,1.2898,0.77387-8.5126,6.7069,2.3216,2.0637,2.8375,1.5478,3.6114,1.8057,3.6114,1.2898,4.1273,1.2898,3.8694,0.77387,3.3534,0.77387,3.0955,0-2.8375,2.0637-3.6114,2.3216-3.8694,2.0637-2.8375,2.0637,2.5796,1.8057,3.6114,1.8057,4.1273,2.0637,4.9012,2.3216,11.35,4.9012,12.382,4.9012,12.898,4.6432,12.64,4.1273,5.6751,1.8057,5.1592,1.2898,4.6432,1.2898,4.1273,0.77387-8.2546-0.77387-7.7387-1.0318-7.7387-1.2898-7.2228-1.5478-7.2228-2.0637-6.9649-2.0637-6.7069-2.3216-6.4489-2.5796-12.64-5.1592-11.866-5.1592-5.6751-2.3216-5.6751-2.3216-5.4171-2.0637-5.4171-2.0637,1.2898-0.77387,1.5478-0.51592,2.0637-0.77387,2.3216-0.51592,4.9012-1.5478,4.3853-1.5477-7.7387-1.2898-10.576-2.0637-5.1592-1.5478-4.3853-1.2898-1.8057-0.77387-1.5478-0.77388-1.2898-0.77387-0.77387-0.77388,0-0.25795,0.25796-0.25796,0.77387-0.25796,0.77387-0.51591,2.0637-0.77388,2.8375-0.77387,6.191-1.8057,5.1592-1.8057-12.64-2.3216-9.8024-1.5478-3.6114-0.77387-2.8375-1.0318-1.0318-0.51592-1.0318-0.77387-0.77388-0.51592-0.51591-0.77387,0.77387-0.51592,2.3216-0.51591,3.3534-0.51592,3.8694-0.77387,4.1273-0.51592,3.6114-1.0318,1.8057-0.51591,1.5478-0.51592,1.0318-0.77387,1.0318-0.77388-2.0637-0.77387-2.0637-0.77387-2.5796-0.51592-2.5796-0.51592-5.933-0.77387-5.933-0.77387-3.0955-0.77388-2.8375-0.51591-2.8375-1.0318-2.8375-1.0318-2.5796-1.2898-2.3216-1.8057-2.0637-1.8057-1.5478-2.3216,0.51591-0.25796,1.0318-0.25796,1.2898,0,2.0637,0.25796,4.6432,0.25796,5.1592,0.25795,5.6751,0.51592,7.2228,0,2.0637-0.25796,1.5478-0.51591,1.0318-0.51592-6.191-2.5796-8.2546-3.6114-4.6432-2.3216-4.9012-2.3216-4.9012-2.5796-4.9012-2.5796-4.6432-2.8375-4.3853-3.0955-4.1273-3.0955-3.6114-3.0955-1.5477-1.8057-1.5478-1.5477-1.0318-1.5478-1.0318-1.8057-1.0318-1.5477-0.51591-1.8057-0.25796-1.5478-0.25796-1.8057,1.8057,0,2.0637,0.25796,2.0637,0.77387,2.0637,0.77387,4.1273,2.5796,4.6432,2.5796,2.0637,1.2898,2.3216,1.2898,2.3216,1.0318,2.0637,0.77387,2.3216,0.51592,2.0637,0.25796,2.3216,0,2.0637-0.77388-6.191-4.6432-6.9649-5.933-7.9967-6.9649-7.9967-7.7387-7.9967-8.2546-7.4808-8.2546-3.3534-4.3853-3.3534-4.1273-2.8375-4.1273-2.5796-3.8694-0.51591-1.0318,0-1.8057,0.25795-0.77388,0.25796-0.77387,0.77388-0.51591,0.77387-0.77388,0.77387-0.51591,1.0318-0.25796,1.0318-0.25796,2.0637,0,1.2898,0.25796,1.0318,0.25796,1.0318,0.77387,0.77387,0.77387,4.6432,4.6432,5.4171,5.4171,5.6751,5.933,6.191,5.933,6.191,5.4171,6.191,5.1592,3.0955,2.0637,2.8375,1.8057,3.0955,1.5477,2.8375,1.0318-2.0637-1.2898-2.3216-2.3216-3.0955-3.0955-3.3534-3.8694-7.4808-9.0285-8.2546-10.576-4.1273-5.6751-3.8694-5.6751-3.6114-5.6751-3.6114-5.4171-3.0955-5.1592-2.5796-4.6432-1.8057-4.3853-1.5478-3.6114-0.25796-1.2898,0-2.0637,0.25796-0.77388,0.51592-0.77387,0.51591-0.77387,0.51592-0.51592,0.77387-0.51592,1.8057-0.51591,1.5477-0.51592,3.6114,0,1.0318,0.25796,0.77387,0.25796,1.0318,0.51591,0.77387,0.77388,2.0637,1.8057,2.0637,2.5796,4.6432,5.933,4.9012,7.4808,5.6751,7.9967,5.933,8.2546,3.0955,3.8694,3.0955,3.8694,3.3534,3.3534,3.6114,3.0955-4.3853-8.5126-4.9012-9.8024-2.5796-5.4171-2.3216-5.4171-2.3216-5.6751-2.0637-5.6751-1.8057-5.933-1.8057-5.6751-1.2898-5.6751-1.0318-5.6751-0.51592-5.4171-0.25796-5.1592,0.25796-2.5796,0.25796-2.3216,0.25796-2.3216,0.51591-2.3216,0.51592-0.77387,0.25796-0.77387,0.77387-0.77388,0.51591-0.51591,1.8057-0.77388,1.8057-0.51591,1.8057,0,1.5478,0.25796,0.77387,0.25795,0.51592,0.25796,0.25795,0.51592,0.25796,0.77387,2.5796,8.2546,2.3216,8.7706,2.3216,9.0285,2.3216,8.7706,2.3216,8.7706,3.0955,8.2546,1.5477,3.8694,1.8057,3.8694,2.0637,3.6114,2.3216,3.6114-1.5478-7.4808-1.0318-6.7069-1.0318-6.191-0.51591-5.6751-0.51592-4.9012-0.25796-4.3853,0.25796-3.6114,0.25796-3.0955,0.51591-2.5796,0.77388-2.0637,0.51591-0.77387,0.51592-0.77387,0.51591-0.51592,0.77388-0.51592,0.77387-0.25795,2.3216,0,2.0637,0.77387,2.0637,1.0318,1.8057,8.2546,1.8057,7.9967,2.0637,7.4808,2.3216,7.2228,2.5796,7.2228,2.8375,7.2228,3.0955,7.4808,3.6114,7.4808,2.5796,4.9012,2.5796,4.9012,2.8375,4.9012,2.8375,4.9012,3.0955,4.6432,3.0955,4.6432,3.3535,4.6432,3.3534,4.6432,6.191,7.7387,6.4489,7.2228,6.7069,7.2228,6.9649,6.7069,7.2228,6.7069,7.4808,6.191,7.7387,5.933,7.9967,5.6751,5.4171,3.6114,5.6751,3.3535,5.933,3.3534,5.6751,3.0955,9.0285,4.3853,8.7706,4.1273,9.2865,3.6114,9.2864,3.3534,8.7706,2.8375,9.0285,2.3216,9.2865,2.0637,9.0285,1.8057,9.5445,1.2898,9.2865,1.0318,9.5444,0.77387,9.5444,0.51592"/>
<path fill-rule="evenodd" fill="#fec50c" d="m1099.3,733.37,4.3853,0.51591,2.0637,0.77388,0.5159,0.25795,0,0.25796-0.5159,0-0.516,0.25796-4.1273,0.77387-3.3534,0-10.834-0.77387-13.156-0.25796-14.188-0.25796-14.704,0.25796-6.9649,0.25796-6.9648,0.51591-6.191,0.51592-5.933,0.51592-4.9012,0.77387-4.3853,1.0318-1.5478,0.51592-1.5477,0.51591-1.2898,0.51592-1.0318,0.77387,0.5159-2.5796,1.0318-2.5796-1.8057,0.51592-1.8057,0.51592-1.5477,0.77387-1.5478,0.77387-1.2898,0.77388-1.0318,1.0318-0.77388,1.2898-0.25795,1.2898-0.77388-1.8057-0.51591-1.5478-0.25796-1.8057-0.25796-1.5478,0.25796-1.2898,0.25796-1.5477,0.25795-1.2898,0.77388-1.2898,0.51591-1.0318,1.0318-1.2898,1.0318-1.0318,1.0318-1.0318,2.8375-1.8057,3.0955-1.8057c1.6715,1.0138,3.5508,1.7486,5.4172,2.3216,1.6183,0.21471,3.5438-0.0476,5.4171-0.51592,3.148,2.7722,7.358,2.431,10.06-0.51592,0.4932-0.53785,1.0885-1.3619,1.2898-2.0637,0.4267-1.4878,0.3445-3.4367,0-5.1592l3.0955-0.25796,3.6114-0.51592,3.8694-1.0318,4.1273-1.0318,4.1273-0.77387,3.8694-1.0318,3.6114-0.51591,3.0955-0.25796-1.2898,1.0318-3.0955,2.3216-3.6114,2.8375-2.5796,1.8057,3.3535,0.77388,2.8375,0.51591-2.0636,2.3216-2.0637,2.3216-2.0637,2.3216-1.5477,2.0637,2.0636,0.77387,2.0637,0.51592,2.3216,0.51591h4.6433l2.3216-0.51591,2.3216-0.51592,1.8057-1.0318,2.0637,1.0318,2.0636,0.77387,2.0637,0.51592,2.0637,0.51592,4.6432,0.51591,4.9012,0.51592h19.605"/>
<path fill-rule="evenodd" fill="#fec50c" d="m1020.1,718.67,0.7738,0.25796,0.7739,0.25796,0.258,0.77387,0.2579,0.77387-0.2579,0.77388-0.258,0.77387-0.7739,0.51592-1.8057,0-0.5159-0.51592-0.5159-0.77387-0.258-0.77388,0.258-0.77387,0.5159-0.77387,0.5159-0.25796,1.0319-0.25796"/>
<path fill-rule="evenodd" fill="#fec50c" d="m1019.8,719.7,0.5159,0.25796,0.258,0.51591-0.258,0.51592-0.5159,0.25796-0.5159-0.25796-0.258-0.51592,0.258-0.51591,0.5159-0.25796"/>
<path fill="#fec50c" d="m1020,723.25c-1.3066,0.00091-2.3663-1.058-2.3663-2.3646s1.0597-2.3655,2.3663-2.3646c1.3065-0.00091,2.3662,1.058,2.3662,2.3646s-1.0597,2.3655-2.3662,2.3646z"/>
<path fill-rule="evenodd" fill="#fec50c" d="m1212.2,746.01-1.8057,0.77387-1.8057,0.25796-1.5477,0.25796-1.2898-0.25796-1.2898-0.25796-1.2898-0.51591-1.0318-0.51592-1.2898-0.77387-2.0637-1.5478-2.0636-1.5478-1.0319-0.77387-1.2898-0.51591-1.0318-0.25796-1.2898,0-2.3216,4.9012-3.0955,6.191-1.0318,1.5478-1.0319,1.2898-1.0318,0.77387-1.0318,0.77388-1.2898,0.51591-1.2898,0-1.2898-0.51591-1.5477-0.77388-0.5159-0.77387-0.516-0.77387-0.5159-1.0318-0.5159-1.2898-0.5159-2.3216-0.258-1.5478-1.5477,1.2898-1.5478,1.8057-1.2897,2.0637-1.5478,2.3216-1.8057,2.3216-1.8057,1.8057-1.0318,1.0318-1.2898,0.77388-1.2898,0.51591-1.5478,0.51592-0.7738,0-1.2898,0.25796-1.2898-0.25796-1.0318-0.51592-3.0955-3.6114-3.3535-3.6114-2.3216,3.6114-2.5796,3.0955-1.2898,1.2898-1.2898,1.2898-1.2898,1.0318-1.2897,0.77387-1.0319,0.51592-1.2898,0.25795-1.2898,0-1.0318-0.25795-1.0318-0.51592-0.7739-0.77387-1.0318-1.2898-0.5159-1.5478-0.516-1.5478-1.0318-2.5796-0.2579-1.2898-0.516-1.0318-0.5159-0.51591-0.5159,0-6.9649,11.35-1.0318,1.0318-1.8057,0.77388-2.0637,0.51591-2.0636,0.51592-2.3216,0-1.8057-0.51592-0.516-0.25795-0.7738-0.77388-0.258-0.51591,0-1.0318,1.0318-11.35-0.7738,0.25796-1.0319,0.51591-1.0318,0.51592-1.0318,1.0318-2.0637,2.3216-2.3216,2.5796-2.3216,2.8375-2.8376,2.3216-1.2898,1.0318-1.2897,1.0318-1.5478,0.77387-1.2898,0.25796-1.8057,0.25796-1.2898-0.25796-0.5159-0.25796-0.5159-0.51591-0.258-0.77388,0-0.77387,0.258-3.3534,0.5159-3.3534,0.258-1.8057-0.258-1.5478-0.2579-1.5477-1.0319-1.8057-1.5477,2.3216-2.5796,3.3535-3.0955,3.3534-3.3534,3.3534-1.8058,1.2898-1.8057,1.2898-1.5477,0.51591-1.2898,0.51592-0.5159-0.25796-0.7739,0-0.5159-0.51591-0.258-0.25796-0.5159-0.77388-0.2579-0.77387,0-1.0318-0.258-1.2898,0.258-9.8024-6.449,4.3853-7.7387,4.9012-1.8057,0.77388-2.0637,1.0318-1.8057,0.51591-2.0636,0.51592-1.8057,0.51592-1.8058,0-1.8057-0.25796-1.5477-0.51592,0.7739-2.0637,0.7738-1.8057,0.7739-1.8057,1.0318-1.5478,1.0319-1.5477,1.0318-1.5478,1.2898-1.2898,1.2898-1.2898,2.8375-2.0637,3.3535-2.0637,3.3534-1.5478,3.8694-1.2898,3.8694-1.0318,4.3852-0.77388,4.3853-0.77387,4.3853-0.51591,9.5445-0.51592,9.8023-0.25796,19.605,0,4.9012-0.25796,4.6433-0.25795,4.6432-0.25796,4.3853-0.51592,4.3853-0.77387,3.8694-0.77387,3.8693-1.0318,3.6114-1.5477,3.3535-1.5478,2.8375-2.0637,2.8376-2.0637,2.3216-2.8375-2.5796-5.1592,2.0637-0.25796,2.0636-0.51591,2.0637-1.0318,1.8057-1.2898,0.7739-0.51592,0.7738-0.77387,0.516-1.0318,0.5159-0.77388,0.2579-1.0318,0-1.8057-0.5159-1.0318,4.3853-0.77388,4.6432-0.51591,4.9012-0.25796,5.1592,0,10.576,0.51592,10.834,0.77387,11.092,1.2898,10.834,1.0318,10.576,1.0318,9.8024,0.51592,0,3.6114-0.258,1.5477-0.5159,1.5478-0.5159,1.5478-0.5159,1.2898-0.7739,1.0318-1.0318,1.2898-1.8057,1.8057-2.3217,1.5478-2.3216,1.0318-2.5796,0.51592-2.8375,0.51591-2.8375-0.25796-2.5796-0.25795-2.8375-0.77388-2.5796-1.2898-2.5796-1.2898-2.0637-1.8057-2.0636-2.0637,0,4.3853-0.7739,5.6751-0.5159,2.8375-0.7739,2.5796-0.5159,1.0318-0.7739,0.77387-0.5159,0.77387-0.7739,0.51592m-207.4-24.248,5.9331,2.5796,1.5477-1.2898,2.0637-1.5477,2.3216-1.2898,2.0637-1.2898,7.7387-3.0955,6.7069-3.0955,3.3535-1.2898,2.8375-1.5478,2.8375-1.5477,2.3216-1.5478,5.9331-3.8694,5.933-3.8694,5.6751-3.6114,5.1591-3.6114,3.8694-3.0955,3.0955-2.8375,3.3534-3.0955,3.6115-3.3534,1.2897-1.2898,1.5478-1.0318,1.8057-1.0318,2.0637-1.0318,4.3852-2.0637,4.3853-1.5477,5.9331-1.5478,6.4489-1.5478,6.7069-1.2898,7.4808-1.2898,9.0285-1.0318,9.0285-1.2898,9.2865-1.0318,9.0285-1.5477,3.0955-0.51592,2.8376-0.77387,3.0955-0.77388,3.0955-0.77387,3.0954-3.8694,4.9012-5.4171,3.3535-3.3534,3.8694-3.0955,4.3853-3.3534,5.1591-3.3534,7.7387-4.6432,8.2547-4.1273,8.5126-4.3853,8.2547-3.8694,7.7387-3.8694,7.2228-3.6114,5.933-3.0955,4.6433-3.0955,1.2898-3.8694,1.8057-3.8694,2.3216-3.8694,2.8375-3.8694,3.0955-4.1273,3.8694-4.1273,4.1273-4.6432,5.1592-4.9012,4.6432-4.1273,4.9012-4.1273,2.5796-1.8057,2.5796-1.8057,2.8375-1.5478,2.8375-1.5478,2.8376-1.2898,2.8375-1.0318,3.0955-0.77387,2.8375-0.77388,3.0955-0.25795,2.8376-0.25796,3.0955,0.25796,2.8375,0.51591-0.258,3.0955-0.7738,3.0955-1.0319,3.0955-1.2897,3.3535-1.8058,3.3534-2.3216,3.3534-2.8375,3.6114-3.3535,3.6114,2.5796-0.25796,2.3216-0.51591,1.8057-0.51592,1.8057-0.77387,1.5478-0.51592,1.8057-0.51592,2.3216-0.25795,2.5796-0.25796,0.258,1.8057,0,1.8057-0.258,1.8057-0.5159,1.5478-0.7739,1.5478-1.0318,1.5477-1.0319,1.2898-1.2897,1.2898-5.4172,5.1592-5.4171,4.9012,3.0955,0.25796,3.3535,1.0318,3.3534,1.0318,2.5796,0.51591-3.0955,2.3216-3.6114,2.3216-3.6114,2.3216-4.1273,2.3216-4.1274,2.3216-4.1273,2.5796-4.1273,2.8375-3.8694,3.0955,1.8057,0.25795,2.3216,1.0318,1.0319,0.25796,1.0318,0.51592,0.7739,0.25796,0.7739-0.25796-5.1592,2.8375-6.4489,3.0955-3.0955,1.5477-2.5796,1.5478-1.2898,0.77388-0.7739,0.77387-0.5159,0.77387-0.5159,0.77388,0.2579,1.0318,0.516,0.77387,1.0318,0.77387,0.7739,0.77388-0.258,1.0318-0.5159,0.77387-1.0318,0.77388-1.0319,0.77387-2.3216,1.2898-3.0955,1.2898-3.0955,1.0318-2.8375,1.0318-2.0637,1.0318-1.5477,0.77388,5.1591,5.1592-1.8057,1.8057-1.8057,1.2898-1.5477,0.77387-1.8057,0.77387-3.6114,0.51592-4.9012,0,0.5159,2.3216,0.7739,2.3216,0.5159,2.5796,0.5159,2.5796-4.3853,3.3534-5.4171,3.8694-5.933,3.8694-6.7069,3.8694-3.8694,2.0637-3.8694,1.8057-4.1273,1.5477-4.3853,1.5478-4.6432,1.5478-4.9012,1.0318-5.1592,1.0318-5.4171,0.77388,9.5444,0.25795,8.2547,0,7.7387-0.77387,6.9649-0.77387,6.4489-1.2898,5.6751-1.5478,5.6751-2.0637,5.4171-2.0637,7.2228-3.3534,6.9649-3.8694,6.7069-4.1273,6.9648-4.1273-4.1273-2.0637-4.1273-1.2898-2.0637-0.77387-2.0636-1.0318-2.3217-1.0318-2.3216-1.2898,2.0637-1.5478,2.3216-1.0318,2.8375-1.0318,3.0955-0.77388,6.191-1.2898,6.449-0.77388,5.675-0.77387,5.1592-0.51592,2.0637-0.51591,1.8057-0.51592,1.0318-0.51591,0.7739-0.77388-0.258-0.25796-0.5159-0.51591-0.7739-0.25796-1.0318-0.51591-2.8375-0.51592-3.6115-0.51592-3.6114-0.25795-3.6114-0.51592-3.0955-0.77387-2.0636-0.77388,6.9648-1.5477,6.9649-1.5478,6.191-1.2898,5.1591-1.2898,4.3853-1.2898,3.8694-1.5478,1.8057-0.77387,1.2898-0.77387,1.2898-0.77388,1.0318-1.0318-0.258-0.25795-0.5159-0.51592-1.0318-0.25796-1.2898-0.25796-3.3534-0.25795-3.8694,0-4.1273-0.25796-3.8694-0.25796-3.3535-0.51592-2.0636-0.51591,1.8057-0.77387,1.8057-0.77388,6.191-1.8057,5.4171-1.5478,4.9012-1.2898,4.6432-1.5478,4.9012-1.5477,4.9012-2.0637,2.3216-1.2898,2.0637-1.2898,0.7739-0.77388,0.7739-1.0318,0.7738-0.77387,0.258-0.77388-0.258-0.77387-0.7738-0.51591-0.7739-0.25796-7.2228,0-3.3535,0.25796-4.6432,0-1.2898-0.25796-1.0318-0.51592-1.0319-0.51591,10.318-6.7069,9.5445-6.191,8.5126-5.4171,7.4808-5.1592,3.0955-2.5796,2.8375-2.5796,2.3216-2.5796,2.0637-2.5796,1.5477-2.8375,1.2898-2.8375,0.7739-3.0955,0-3.3534-1.8057,0-1.8057,0.25796-2.0637,0.77387-2.0637,0.77388-4.1273,2.5796-4.3853,2.5796-2.3216,1.2898-2.0636,1.2898-2.3217,1.0318-2.3216,0.77388-2.0636,0.51591-2.0637,0.25796-2.3216,0-2.0637-0.77387,6.191-4.6432,6.9649-5.933,7.9966-6.9649,7.9967-7.7387,7.9967-8.2546,7.4808-8.2546,3.3535-4.3853,3.3534-4.1273,2.8376-4.1273,2.5795-3.8694,0.5159-1.0318,0.258-0.77388-0.258-1.0318-0.2579-0.77387-0.258-0.77388-0.7738-0.51591-0.7739-0.77388-0.7739-0.25795-1.0318-0.51592-1.0319-0.25796-2.0636,0-1.0318,0.25796-1.2898,0.25796-0.7739,0.77387-1.0318,0.77388-4.6433,4.6432-5.4171,5.4171-5.6751,5.933-6.191,5.933-6.1909,5.4171-6.191,5.1592-3.0955,2.0637-2.8376,1.8057-3.0955,1.5478-2.5795,1.2898,1.8057-1.5478,2.3216-2.3216,3.0955-3.0955,3.3534-3.8694,7.4808-9.0285,8.2547-10.576,4.1273-5.6751,3.8694-5.6751,3.8693-5.4171,3.3535-5.6751,3.0955-5.1592,2.5795-4.6432,2.0637-4.3853,1.2898-3.6114,0.258-1.2898,0-2.0637-0.258-0.77388-0.5159-0.77387-0.5159-0.77387-0.5159-0.51592-0.7739-0.25796-1.5478-0.77387-1.8057-0.51592-3.6114,0-1.0318,0.25796-0.7739,0.25796-1.0318,0.51592-0.7739,0.77387-2.0637,1.8057-2.0636,2.5796-4.6433,5.933-4.9012,7.4808-5.4171,7.9967-5.933,8.2546-3.3535,3.8694-3.0954,3.8694-3.3535,3.3534-3.6114,3.0955,4.6432-8.5126,4.6433-9.8024,2.5796-5.4171,2.3216-5.4171,2.3216-5.6751,2.0637-5.6751,1.8057-5.933,1.8057-5.6751,1.2898-5.6751,1.0318-5.6751,0.5159-5.4171,0.258-5.1592-0.258-2.5796-0.258-2.3216-0.2579-2.3216-0.5159-2.3216-0.258-0.77388-0.5159-0.77387-0.7739-0.77387-0.5159-0.51592-1.8057-0.77387-1.8057-0.51592-1.8057,0-1.5478,0.25796-0.5159,0.25796-0.7738,0.25795-0.258,0.51592-0.258,0.77387-2.5795,8.5126-2.3217,8.5126-2.3216,9.0285-2.3216,8.7706-2.3216,8.7706-3.0955,8.2546-1.5478,4.1273-1.8057,3.6114-2.0636,3.8694-2.3217,3.3534,1.5478-7.4808,1.0318-6.7069,1.0319-6.191,0.5159-5.6751,0.5159-4.9012,0.2579-4.3853-0.2579-3.6114-0.258-3.0955-0.5159-2.5796-0.7739-2.0637-0.5159-0.77387-0.5159-0.77387-0.5159-0.51592-0.7739-0.25796-0.7739-0.25795-0.7738-0.25796-0.7739,0-0.7739,0.25796-2.0636,0.51591-2.0637,1.0318-1.8057,8.2546-1.8057,7.9967-2.0637,7.4808-2.3216,7.2228-2.5796,7.2228-2.8375,7.2228-3.0955,7.4808-3.6114,7.4808-2.5796,4.9012-2.5796,4.9012-2.8375,4.9012-2.8375,4.9012-3.0955,4.6432-3.0955,4.6432-3.3535,4.6432-3.3534,4.6432-6.191,7.7387-6.449,7.2228-6.7069,7.2228-6.9648,6.7069-7.2228,6.7069-7.4808,6.191-7.7388,5.933-7.9967,5.6751-5.4171,3.6114-5.675,3.6114-5.6751,3.3534-5.6751,3.3534-9.0285,4.1273-9.0285,4.1273-9.2865,3.3534-9.2865,3.3534-7.7387,2.3216-7.7388,2.3216-7.9967,1.8057-7.9966,1.8057-7.9967,1.2898-8.2547,1.0318-7.9967,1.0318-8.2546,0.51591-0.7739,0.25796-0.7739,0.25796-1.5477,0.77387-1.8057,1.2898-2.5796,2.3216-3.3535,3.0955-4.1273,4.1273-4.9012,5.4171-4.6432,5.4171-5.4171,5.933-2.8376,2.8375-2.8375,2.8375-3.3535,2.5796-3.3534,2.5796-2.5796,1.8057-2.5796,1.5478-2.8375,1.2898-2.8375,1.2898-6.191,2.5796-6.191,2.3216-6.191,2.3216-5.4171,2.0637-2.3216,1.0318-2.3217,1.2898-2.0636,1.0318-1.5478,1.0318-1.5477,1.5478-1.2898,1.2898-0.7739,1.2898-0.5159,1.2898-0.258,1.8057,0,1.0318"/>
<path d="m1019.8,721.47c-0.533,0.00037-0.9653-0.43159-0.9653-0.96458s0.4323-0.96496,0.9653-0.96459c0.533-0.00037,0.9652,0.4316,0.9652,0.96459s-0.4322,0.96495-0.9652,0.96458z" stroke="#00afca" stroke-dasharray="none" stroke-miterlimit="4" stroke-width="0.38127393" fill="#fec50c"/>
<use xlink:href="#use4321" transform="matrix(1,0,0,-1,0,1000)" height="1000" width="2000" y="0" x="0"/>
<use xlink:href="#use4303" transform="matrix(-1,0,0,-1,240,1000)" height="1000" width="2000" y="0" x="0"/>
<use xlink:href="#use4303" transform="matrix(1,0,0,-1,0,1000)" height="1000" width="2000" y="0" x="0"/>
<use xlink:href="#use4321" transform="matrix(-1,0,0,-1,240,1000)" height="1000" width="2000" y="0" x="0"/>
<use xlink:href="#use4303" transform="matrix(-1,0,0,-1,240,645.07996)" height="1000" width="2000" y="0" x="0"/>
<use xlink:href="#use4303" transform="matrix(1,0,0,-1,0,645.07996)" height="1000" width="2000" y="0" x="0"/>
<use id="use4303" xlink:href="#orn" transform="matrix(-2.0220238,0,0,-2.0269562,120,322.53998)" height="500" width="1000" y="0" x="0" fill="#fec50c"/>
<use xlink:href="#use4303" transform="translate(0,354.92004)" height="1000" width="2000" y="0" x="0"/>
<use xlink:href="#use4303" transform="matrix(-1,0,0,1,240,354.92004)" height="1000" width="2000" y="0" x="0"/>
<use xlink:href="#use4321" transform="matrix(-1,0,0,1,240,0)" height="1000" width="2000" y="0" x="0"/>
<use id="use4321" xlink:href="#uorn" transform="matrix(-2.0220238,0,0,2.0269562,120,145.07997)" height="500" width="1000" y="0" x="0" fill="#fec50c"/>
</svg>
