<?xml version="1.0" encoding="UTF-8" standalone="no"?>
<!-- Created with Inkscape (http://www.inkscape.org/) -->

<svg
   xmlns:svg="http://www.w3.org/2000/svg"
   xmlns="http://www.w3.org/2000/svg"
   version="1.0"
   width="900"
   height="600"
   id="Flag_of_Malta">
  <defs
     id="defs550" />
  <rect
     width="450"
     height="600"
     x="450"
     y="0"
     id="rect4"
     style="fill:#cf142b" />
  <rect
     width="450"
     height="600"
     x="0"
     y="0"
     id="rect6"
     style="fill:#ffffff" />
  <path
     d="m 100.51771,91.487086 c 0,0.98994 -1.120374,1.79241 -2.502424,1.79241 -1.382054,0 -2.502417,-0.80247 -2.502417,-1.79241 0,-0.989941 1.12037,-1.79241 2.502417,-1.79241 1.382053,0 2.502424,0.802469 2.502424,1.79241 z"
     id="path2289"
     style="fill:#f1eeee;fill-opacity:1;fill-rule:evenodd;stroke:none" />
  <path
     d="m 22.222223,82.827735 0,45.456795 45.454779,0 c 0,7.57407 7.576225,15.15066 15.152449,15.15066 l 0,45.45428 45.452209,0 0,-45.45428 c 7.57622,0 15.15245,-7.57659 15.15245,-15.15066 l 45.45478,0 0,-45.456795 -45.45478,0 c 0,-7.574074 -7.57623,-15.150663 -15.15245,-15.150663 l 0,-45.454276 -45.452209,0 0,45.454276 c -7.576224,0 -15.152449,7.576589 -15.152449,15.150663 l -45.454779,0 z"
     id="path2291"
     style="font-size:12px;fill:#e60d2e;fill-opacity:1;fill-rule:evenodd;stroke-width:1pt" />
  <path
     d="m 25.253515,85.856542 0,39.396658 45.452216,0 c 0,7.57385 7.576223,15.15044 15.152446,15.15044 l 0,45.4545 39.392253,0 0,-45.4545 c 7.57623,0 15.15245,-7.57659 15.15245,-15.15044 l 45.45222,0 0,-39.396658 -45.45222,0 c 0,-7.574075 -7.57622,-15.150664 -15.15245,-15.150664 l 0,-45.454276 -39.392253,0 0,45.454276 c -7.576223,0 -15.152446,7.576589 -15.152446,15.150664 l -45.452216,0 z"
     id="path2295"
     style="font-size:12px;fill:#96877d;fill-opacity:1;fill-rule:evenodd;stroke-width:1pt" />
  <path
     d="m 26.769786,87.372774 0,36.363966 45.452214,0 c 0,7.57408 7.576228,15.15318 15.152451,15.15318 l 0,45.45428 36.362279,0 0,-45.45428 c 7.57622,0 15.15245,-7.5791 15.15245,-15.15318 l 45.45221,0 0,-36.363966 -45.45221,0 c 0,-7.573846 -7.57623,-15.150435 -15.15245,-15.150435 l 0,-45.454276 -36.362279,0 0,45.454276 c -7.576223,0 -15.152451,7.576589 -15.152451,15.150435 l -45.452214,0 z"
     id="path2297"
     style="font-size:12px;fill:#cccccc;fill-opacity:1;fill-rule:evenodd;stroke-width:1pt" />
  <path
     d="m 84.535692,71.680501 c 2.662636,2.66278 1.943119,7.69936 -1.607064,11.249657 -3.550195,3.550298 -8.586685,4.269776 -11.249324,1.607225 -2.662634,-2.662552 -1.943118,-7.69936 1.607065,-11.249657 3.550194,-3.550069 8.586687,-4.269776 11.249323,-1.607225 z"
     id="path2301"
     style="fill:#96877d;fill-opacity:1;fill-rule:evenodd;stroke:none" />
  <path
     d="m 71.143413,79.715481 1.071239,-1.072245 4.285638,2.142204 -2.142959,-4.285323 1.071445,-1.072245 4.285469,8.571102 -8.570832,-4.285551 z"
     id="path2303"
     style="fill:#d0d0d0;fill-opacity:1;fill-rule:evenodd;stroke:none" />
  <rect
     width="1.515152"
     height="9.0909128"
     x="3.0312359"
     y="106.67305"
     transform="matrix(0.70709679,-0.70711678,0.70709679,0.70711678,0,0)"
     id="rect2305"
     style="font-size:12px;fill:#d0d0d0;fill-opacity:1;fill-rule:evenodd;stroke-width:1pt" />
  <path
     d="m 139.43146,84.536926 c -2.66263,2.66278 -7.69912,1.943301 -11.24932,-1.607225 -3.55018,-3.550297 -4.2697,-8.586877 -1.60706,-11.249657 2.66263,-2.66278 7.69912,-1.943301 11.24932,1.607224 3.55018,3.550298 4.2697,8.586878 1.60706,11.249658 z"
     id="path2309"
     style="fill:#96877d;fill-opacity:1;fill-rule:evenodd;stroke:none" />
  <path
     d="m 131.39622,71.144607 1.07121,1.072245 -2.14273,4.28578 4.28543,-2.142204 1.07144,1.072245 -8.57083,4.285551 4.28547,-8.571102 z"
     id="path2311"
     style="fill:#d0d0d0;fill-opacity:1;fill-rule:evenodd;stroke:none" />
  <rect
     width="1.515152"
     height="9.0909128"
     x="152.30988"
     y="-42.606411"
     transform="matrix(0.70709679,0.70711678,-0.70709679,0.70711678,0,0)"
     id="rect2313"
     style="font-size:12px;fill:#d0d0d0;fill-opacity:1;fill-rule:evenodd;stroke-width:1pt" />
  <path
     d="m 126.5747,139.43427 c -2.66263,-2.66278 -1.94312,-7.69936 1.60707,-11.24965 3.55018,-3.5503 8.58667,-4.26978 11.24932,-1.60723 2.66263,2.66255 1.94312,7.69936 -1.60707,11.24943 -3.55019,3.5503 -8.58668,4.27001 -11.24932,1.60723 z"
     id="path2317"
     style="fill:#96877d;fill-opacity:1;fill-rule:evenodd;stroke:none" />
  <path
     d="m 139.96708,131.3993 -1.07124,1.07224 -4.28564,-2.1422 2.14296,4.28555 -1.07144,1.07224 -4.28546,-8.5711 8.57083,4.28555 z"
     id="path2319"
     style="fill:#d0d0d0;fill-opacity:1;fill-rule:evenodd;stroke:none" />
  <rect
     width="1.515152"
     height="9.0909128"
     x="3.0297198"
     y="-191.88506"
     transform="matrix(-0.70709679,0.70711678,-0.70709679,-0.70711678,0,0)"
     id="rect2321"
     style="font-size:12px;fill:#d0d0d0;fill-opacity:1;fill-rule:evenodd;stroke-width:1pt" />
  <path
     d="m 71.678991,126.57785 c 2.662636,-2.66255 7.699129,-1.9433 11.249321,1.60722 3.550192,3.5503 4.269701,8.58688 1.607065,11.24943 -2.662636,2.66278 -7.699129,1.9433 -11.249322,-1.60722 -3.550192,-3.5503 -4.2697,-8.58688 -1.607064,-11.24966 z"
     id="path2325"
     style="fill:#96877d;fill-opacity:1;fill-rule:evenodd;stroke:none" />
  <path
     d="m 79.714256,139.97017 -1.071239,-1.07225 2.14273,-4.28578 -4.285421,2.14221 -1.071445,-1.07225 8.570833,-4.28555 -4.285469,8.5711 z"
     id="path2327"
     style="fill:#d0d0d0;fill-opacity:1;fill-rule:evenodd;stroke:none" />
  <rect
     width="1.515152"
     height="9.0909128"
     x="-146.24892"
     y="-42.604893"
     transform="matrix(-0.70709679,-0.70711678,0.70709679,-0.70711678,0,0)"
     id="rect2329"
     style="font-size:12px;fill:#d0d0d0;fill-opacity:1;fill-rule:evenodd;stroke-width:1pt" />
  <path
     d="m 137.3732,105.55682 c 0.004,17.57567 -14.24246,31.82579 -31.81779,31.82579 -17.575335,0 -31.821826,-14.25012 -31.817798,-31.82579 -0.004,-17.575678 14.242463,-31.825793 31.817788,-31.825793 17.57534,0 31.82183,14.250115 31.8178,31.825793 l 0,0 z"
     id="path2331"
     style="fill:none;stroke:#96877d;stroke-width:0.51440263;stroke-linecap:butt;stroke-linejoin:miter;stroke-opacity:1" />
  <path
     d="m 129.79712,105.55705 c 0.003,13.39117 -10.85134,24.24851 -24.24201,24.24851 -13.390675,0 -24.245095,-10.85734 -24.242026,-24.24851 -0.0031,-13.390952 10.851351,-24.248291 24.242026,-24.248291 13.39067,0 24.24508,10.857339 24.24201,24.248291 l 0,0 z"
     id="path2333"
     style="fill:none;stroke:#96877d;stroke-width:0.51440263;stroke-linecap:butt;stroke-linejoin:miter;stroke-opacity:1" />
  <path
     d="m 94.949154,131.3147 c 8.14e-4,0.54184 -0.287792,1.04253 -0.756905,1.31459 -0.469113,0.27206 -1.047325,0.27206 -1.516438,0 -0.469113,-0.27206 -0.757727,-0.77275 -0.756904,-1.31459 -8.1e-4,-0.54183 0.287791,-1.04252 0.756904,-1.31458 0.469113,-0.27206 1.047325,-0.27206 1.516438,0 0.469113,0.27206 0.757705,0.77275 0.756905,1.31458 l 0,0 z"
     id="path2335"
     style="fill:#000000;fill-opacity:1;fill-rule:evenodd;stroke:none" />
  <path
     d="m 119.19122,131.3147 c 8.1e-4,0.54184 -0.2878,1.04253 -0.75691,1.31459 -0.46911,0.27206 -1.04732,0.27206 -1.51644,0 -0.46911,-0.27206 -0.7577,-0.77275 -0.7569,-1.31459 -8e-4,-0.54183 0.28779,-1.04252 0.7569,-1.31458 0.46912,-0.27206 1.04733,-0.27206 1.51644,0 0.46911,0.27206 0.75771,0.77275 0.75691,1.31458 l 0,0 z"
     id="path2337"
     style="fill:#000000;fill-opacity:1;fill-rule:evenodd;stroke:none" />
  <path
     d="m 104.54529,131.31493 0,1.57979 -2.02028,0 c -2.02028,0 -2.02028,1.57979 0,1.57979 l 2.02028,0 0,1.57979 c 0.007,1.63695 1.76317,1.83585 1.89172,0.13718 l 0.12826,-1.70782 2.02028,0 c 2.01998,0 2.01998,-1.57979 0,-1.57979 l -2.02028,0 0,-1.57979 c 0,-1.57979 -2.02,-1.57979 -2.02,0 z"
     id="path2339"
     style="fill:#000000;fill-opacity:1;fill-rule:evenodd;stroke:none" />
  <path
     d="m 122.85026,110.18638 c 0.53163,-0.13451 1.40915,-0.0256 1.40915,-0.0256 0,0 0.0769,0.3651 -0.15373,0.4868 0.25621,0.14732 1.17857,0.10248 1.17857,0.10248 0,0 -0.3587,0.27543 -0.53804,0.38431 0.33307,0.032 0.743,0.46118 0.743,0.46118 0,0 -0.76862,0.1281 -1.1017,-0.0512 0.20497,0.40993 0.17935,0.76863 0.17935,0.76863 0,0 -1.24262,-0.30745 -1.69098,-1.12732"
     id="path4942"
     style="fill:#96877d;fill-opacity:1;fill-rule:evenodd;stroke:#000000;stroke-width:0.20290741px;stroke-linecap:butt;stroke-linejoin:miter;stroke-opacity:1" />
  <path
     d="m 120.77496,109.49461 c -0.30104,0.74301 -2.51085,-0.64052 -2.51085,-0.64052 0,0 0.9736,1.54366 2.43399,1.7166"
     id="path4944"
     style="fill:#96877d;fill-opacity:1;fill-rule:evenodd;stroke:#000000;stroke-width:0.20290741px;stroke-linecap:butt;stroke-linejoin:miter;stroke-opacity:1" />
  <path
     d="m 93.181219,123.66299 25.877141,0 1.99843,-1.5885 -3.33072,-1.79346 -5.12418,-1.74223 -2.04968,-1.12732 -3.7919,0.20497 -3.17699,1.69098 -4.355561,0.51242 -1.024837,1.17856 -3.228239,0.25621 -5.072943,-0.10248 8.454907,1.33229 -6.968892,-0.3587 1.793464,1.53726 z"
     id="path4946"
     style="fill:#96877d;fill-opacity:1;fill-rule:evenodd;stroke:#000000;stroke-width:0.20290741px;stroke-linecap:butt;stroke-linejoin:miter;stroke-opacity:1" />
  <path
     d="m 107.11901,116.23292 c -3.24105,-1.74223 -4.18903,2.54928 -5.58537,3.58693 1.88314,0.32026 3.3051,-1.44758 4.91922,-2.30588 1.22404,3.33297 3.15138,1.12732 3.15138,1.12732 0,0 2.01124,3.1898 4.68863,1.74222 0.73019,0.55085 1.53725,0.0512 1.53725,0.0512 0,0 0.9736,0.17935 1.17857,-0.25621 0.51241,0.17935 1.07607,-0.46117 1.07607,-0.46117 0,0 1.11451,0.0128 1.33229,-0.56366 1.65255,0.29464 3.84314,-3.38197 3.84314,-3.38197 l 0.66615,-1.28104 0.97359,-0.20497 c 0,0 0.0641,-0.64052 -0.46118,-0.6149 -0.0128,-0.38432 -0.34588,-0.58929 -0.81986,-0.51242 0.0897,-0.23059 -0.25621,-0.40994 -0.25621,-0.40994 -0.92236,0.23059 -0.9736,2.5621 -0.9736,2.5621 0,0 -1.61412,1.2298 -2.2034,1.53725 -0.0256,-1.33229 -2.25464,-3.13856 -1.79346,-3.99686 0.46117,-0.8583 1.90875,1.31948 3.17699,0.92235 1.26823,-0.39712 1.89137,-2.0468 1.94719,-3.33072 -0.35869,-0.87111 -1.2298,-2.30588 -1.2298,-2.30588 l -0.81987,-0.0512 -0.71739,-1.74222 c 0,0 -1.51164,0.98641 -1.48601,1.84471 0.0256,0.8583 1.58849,1.5885 1.58849,1.5885 0,0 -0.90121,0.56325 -1.74222,0.30745 -0.0769,0.87111 1.02484,0.70457 1.43477,0.71738 0.20497,0.62771 0.81987,0.9736 0.81987,0.9736 0,0 0.38432,0.96078 -0.6149,0.87111 -0.99922,-0.0897 -2.17808,-2.39194 -3.58693,-1.33229 -1.49882,1.12732 0.66614,3.177 0.66614,3.177 0,0 -1.31947,0.69176 -2.10091,2.45961 -3.18981,-2.6902 -5.06013,-1.43478 -8.60863,-0.71739 z"
     id="path4948"
     style="fill:#96877d;fill-opacity:1;fill-rule:evenodd;stroke:#000000;stroke-width:0.20290741px;stroke-linecap:butt;stroke-linejoin:miter;stroke-opacity:1" />
  <path
     d="m 102.456,111.67239 c 1.33228,1.25543 0.40316,3.34221 0.92235,3.74066 0.55085,0.42274 1.33229,-0.20497 1.33229,-0.20497 1.39634,0.37151 3.89438,-0.40993 3.89438,-0.40993 1.09936,0.61473 0.66541,-0.29241 1.33229,-0.25621 0.58928,1.51163 2.56209,1.2298 2.56209,1.2298 0,0 -1.80627,-1.8447 -2.92078,-2.35712 -0.8583,0.51242 -3.35635,0.58928 -3.7919,0.51242 -0.48533,-0.0857 -0.17935,-0.67896 -0.40994,-1.02484 0.91849,-0.89406 0.19216,-3.11294 -0.30745,-3.94562 -2.03603,-1.35632 -4.4684,0.96777 -2.61333,2.71581 z"
     id="path4950"
     style="fill:#96877d;fill-opacity:1;fill-rule:evenodd;stroke:#000000;stroke-width:0.20290741px;stroke-linecap:butt;stroke-linejoin:miter;stroke-opacity:1" />
  <path
     d="m 93.598545,107.91575 c -1.675798,0.45291 -4.583534,-2.16495 -5.94229,-1.15947 -1.358753,1.00548 -0.724669,3.47841 0.181168,4.71035 0.884999,1.20359 -1.295346,1.63956 -1.884139,2.35517 -0.553533,0.67276 0.181166,1.44934 0.181166,1.44934 l 0.61597,0.39857 -0.108702,0.90583 0.326103,1.08701 c 0,0 0.298925,0.26269 0.398567,-0.0725 0.28081,0.28081 0.02966,1.09282 0.72467,1.19571 -0.24887,-0.52003 0.181168,-1.95661 0.181168,-1.95661 0,0 1.21382,0.0906 1.521805,-0.4348 0.307985,-0.52539 -0.289867,-1.66674 -0.289867,-1.66674 0,0 0.362333,0 0.362333,0 -0.407626,-0.28081 -0.543501,-1.12324 -0.543501,-1.12324 0,0 1.684856,-0.53444 1.66674,-1.81167 -0.01812,-1.27723 -2.735628,-2.63599 -1.739207,-3.29725 1.105119,-0.73373 3.025494,1.90226 4.674117,0.68844 1.631493,-1.20121 0.579735,-0.0362 0.579735,-0.0362 0,0 0.745692,-1.67829 -0.905836,-1.23193 z"
     id="path4952"
     style="fill:#96877d;fill-opacity:1;fill-rule:evenodd;stroke:#000000;stroke-width:0.20290741px;stroke-linecap:butt;stroke-linejoin:miter;stroke-opacity:1" />
  <path
     d="m 102.25103,89.971467 c -2.24183,-0.935164 -6.821574,-0.992812 -9.377262,-2.254642 -1.120915,0.07046 -1.620524,0.954379 -1.665361,1.306667 -1.172157,-0.05765 -1.966406,1.78706 -1.793464,2.15216 -2.132942,-0.864709 -3.125754,2.510849 -2.433988,3.202615 -1.819087,0.07686 -1.594903,2.401961 -1.767845,3.048891 -0.582876,1.415557 0.129802,1.891866 1.281046,1.38353 0.172942,0.614903 -0.06911,0.95934 -0.589282,1.076079 3.157528,3.613263 4.942078,-2.22365 7.7119,-2.2034 3.458261,-1.012405 4.816736,-2.715818 4.816736,-2.715818 l 1.357909,0.179345 c 0,0 2.459611,-5.175427 2.459611,-5.175427 z"
     id="path4954"
     style="fill:#96877d;fill-opacity:1;fill-rule:evenodd;stroke:#000000;stroke-width:0.20290741px;stroke-linecap:butt;stroke-linejoin:miter;stroke-opacity:1" />
  <path
     d="m 108.45129,87.383748 c 0,1.825357 -1.47974,3.3051 -3.3051,3.3051 -1.82535,0 -3.3051,-1.479743 -3.3051,-3.3051 0,-1.825356 1.47975,-3.3051 3.3051,-3.3051 1.82536,0 3.3051,1.479744 3.3051,3.3051 l 0,0 z"
     id="path4956"
     style="fill:#96877d;fill-opacity:1;fill-rule:nonzero;stroke:#000000;stroke-width:0.20290741;stroke-linecap:round;stroke-miterlimit:4;stroke-opacity:1;stroke-dasharray:none;stroke-dashoffset:0" />
  <path
     d="m 99.330243,113.41462 c -2.049675,-0.37151 -5.444448,-2.49804 -5.79033,-5.27791 1.908758,-7.49413 11.754917,-3.58072 12.604427,-9.217322 -0.21639,-3.718721 0.44951,-7.399934 2.51192,-10.510797 0.96079,-1.216994 2.2034,-1.537257 2.2034,-1.537257 0,0 0.22257,0.793721 -0.10248,1.332288 1.62693,-0.179346 3.85595,0.730197 5.38039,0.81987 0.44837,0.909544 0.40994,1.242615 0.30745,1.793466 -0.10248,0.550849 -0.71738,0.409934 -0.71738,0.409934 -0.39767,0.377227 -0.87565,0.761051 -1.94719,0.56366 -0.80706,0.614903 -2.51085,0.76863 -2.51085,0.76863 0,0 3.56131,3.753464 2.97202,4.919216 0.74301,0.345882 1.84471,1.998433 1.84471,1.998433 0,0 2.43399,-1.281046 3.22824,-2.459609 1.40915,0 3.71503,1.473203 4.86798,1.639739 1.40915,1.140131 2.8183,2.305889 2.8183,2.305889 0,0 -1.67817,1.1017 -2.40837,-0.3587 -0.88392,0.0769 -2.79268,-2.036862 -5.43164,-1.383528 -0.0769,2.344318 -2.66457,3.996868 -2.66457,3.996868 0,0 2.4153,-0.33802 3.74065,0.46117 1.37072,1.15295 3.38197,2.71582 3.38197,2.71582 l 1.79346,3.07451 c 0,0 -1.63974,0.28183 -2.25464,-1.8447 -0.61491,1.7166 -0.64052,-1.06327 -3.07451,-2.35713 -0.74301,0.0897 -1.11451,0.14092 -1.74223,-0.35869 -1.75503,0.47399 -3.83032,1.49882 -6.30275,1.2298 -1.75503,0.55085 -3.03608,2.01125 -4.81673,2.81831 -1.78066,0.80706 -2.30588,0.40993 -2.30588,0.40993 l -1.43478,0.0512 c -0.20699,0.86376 -0.0897,2.17778 -0.87111,2.40837 0.49961,0.53804 -0.35869,2.83111 -1.2298,3.22824 0.40993,1.4732 1.61084,1.92416 2.86954,2.66457 0,0 1.11451,-0.51241 1.84471,0.15373 0.73019,0.66614 1.48601,2.56209 1.48601,2.56209 0,0 -1.51973,0.10268 -1.99843,-0.10248 -0.47871,-0.20516 -0.52523,-0.70458 -1.07608,-0.56366 -3.47164,-3.08732 -5.302437,-1.85932 -5.636605,-2.56209 -0.34252,-0.72035 0.81987,-2.60053 0.461178,-3.7919 z"
     id="path4958"
     style="fill:#96877d;fill-opacity:1;fill-rule:evenodd;stroke:#000000;stroke-width:0.20290741px;stroke-linecap:butt;stroke-linejoin:miter;stroke-opacity:1" />
  <path
     d="m 90.989736,99.654517 c 0.181166,-0.226459 1.449337,0.253634 1.449337,0.253634 l 2.318942,1.449339 4.710351,3.04361 1.666744,2.42764 -3.007381,-0.9783 -4.16685,-3.58711 -2.246475,-1.44934 c 0,0 -0.905836,-0.933014 -0.724668,-1.159473 z"
     id="path4960"
     style="fill:#96877d;fill-opacity:1;fill-rule:evenodd;stroke:#000000;stroke-width:0.20290741px;stroke-linecap:butt;stroke-linejoin:miter;stroke-opacity:1" />
  <path
     d="m 118.85339,107.36808 c -1.62693,-0.40994 -5.6366,4.45804 -5.6366,4.45804 l 3.02327,3.27948 c 0,0 0.0897,-5.58536 2.61333,-7.73752 z"
     id="path4962"
     style="fill:#96877d;fill-opacity:1;fill-rule:evenodd;stroke:#000000;stroke-width:0.20290741px;stroke-linecap:butt;stroke-linejoin:miter;stroke-opacity:1" />
  <path
     d="m 99.022792,93.788985 c -0.887227,1.136807 -0.966615,3.428679 0.187565,4.353064 0.108807,1.391081 1.291533,4.197081 2.220803,4.460541 1.01527,0.28784 5.07294,1.2298 6.66144,0.97359 -0.30381,2.57453 1.71643,4.64103 3.58693,5.9953 -0.0136,0.23103 -0.0168,0.51306 0.19928,0.79864 0.20936,0.27664 1.19226,0.32734 1.23549,0.17495 0.43591,0.6126 2.54731,0.88157 2.70028,0.60869 0.14884,-0.26552 -3.10559,-2.53073 -3.8276,-3.22202 -0.6133,-1.14422 -1.77491,-3.69381 -2.04967,-5.73909 -1.59729,-1.90034 -4.33949,-1.86229 -4.33949,-1.86229 l 0.0864,-3.723072 0.15373,-4.201833 -1.48601,-0.768627 c 0,0 0.29956,-0.136521 0.46117,-0.307452 0.36089,0.15517 1.03909,-0.569877 1.12732,-0.774844 0.34187,0.121133 0.65138,0.119518 0.71117,-0.06314 0.0528,-0.161316 0.11399,-0.879415 0.23863,-1.250496 1.12106,-0.987049 -0.16365,-3.079974 -1.87783,-3.114385 -1.69607,-0.03441 -2.0765,2.023187 -2.04399,2.179599 0.15932,0.645562 0.12499,0.971019 0,1.127321 -0.12777,0.159757 -0.71739,0.512418 -0.71739,0.512418 0,0 -0.94797,-0.448367 -2.10092,0 -1.152939,0.448366 -2.446797,1.050458 -2.510848,1.793466 -0.52523,0.07686 -1.383531,0.755816 -1.537257,1.332288 -0.461177,-0.08967 -1.063268,0.29464 -2.049674,1.895949 -1.767845,0.781437 -1.870327,4.560524 -1.870327,4.560524 0,0 -0.47719,0.694964 -0.499609,1.063264 -0.02242,0.3683 0.166536,0.70458 0.397124,0.64053 0.02562,0.24339 0.345882,0.46117 0.486798,0.38431 0.05124,0.2434 0.402976,0.37952 0.614902,0.34588 0.01922,0.16654 0.701374,0.12491 0.755818,-0.0256 0.06008,-0.16611 -0.0675,-0.99692 0.0128,-1.06327 0.07366,-0.0609 0.640524,0.37151 0.794248,0.25621 0.153727,-0.11529 -0.02936,-0.48449 -0.115294,-0.62771 -0.07686,-0.12811 -0.56366,-0.26902 -0.678954,-0.871109 -0.115294,-0.602091 0.307451,-1.434773 0.307451,-1.434773 0,0 1.92157,-1.511634 2.139348,-2.805491 1.447582,0.140915 2.213008,-1.124119 2.626146,-1.601309 z"
     id="path4964"
     style="fill:#96877d;fill-opacity:1;fill-rule:evenodd;stroke:#000000;stroke-width:0.20290741px;stroke-linecap:butt;stroke-linejoin:miter;stroke-opacity:1" />
  <path
     d="m 95.679259,88.370158 c 0.438759,-1.072875 2.024054,-0.973594 2.024054,-0.973594 0,0 0.566865,-1.492421 2.703007,-0.602093 0.80386,-0.621307 2.92079,0.26902 2.92079,0.26902 0,0 0.7927,-1.056202 1.8319,-0.935163 1.92477,0.224182 2.24503,1.988825 2.12653,2.293073 -1.05366,0.265816 -2.87901,-0.856292 -4.26588,-0.53804 -0.81026,0.457974 -2.12334,0.94157 -2.61334,1.601309 -1.284248,0.134509 -2.654966,-1.181765 -4.727061,-1.114512 z"
     id="path4966"
     style="fill:#96877d;fill-opacity:1;fill-rule:evenodd;stroke:#000000;stroke-width:0.20290741px;stroke-linecap:butt;stroke-linejoin:miter;stroke-opacity:1" />
  <path
     d="m 99.688935,90.150813 c 0.480395,-0.29464 1.658835,-0.812616 2.459615,-0.179346 0.83908,0.903137 2.12653,1.742224 2.12653,1.742224 l 1.4604,0.614901 0.66614,0.409936 -0.43556,6.687063 c -1.35175,-1.383131 -2.61859,-1.625256 -3.58692,-3.25386 -0.51883,-0.69817 -0.1217,-2.37634 -1.02484,-3.484446 -0.90314,-1.108105 -1.863926,-1.857518 -1.665365,-2.536472 z"
     id="path4968"
     style="fill:#96877d;fill-opacity:1;fill-rule:evenodd;stroke:#000000;stroke-width:0.20290741px;stroke-linecap:butt;stroke-linejoin:miter;stroke-opacity:1" />
  <path
     d="m 103.20041,92.081722 c 0,0 0.76544,-0.144934 0.97831,0.03623 0.26722,0.09058 0.52538,0.167579 0.59785,0.398569 0.28987,0.08605 0.48915,0.235516 0.48915,0.452917 0.27175,0.07247 0.38045,0.56162 0.38045,0.56162 l -0.25363,0.380451 c 0,0 -0.28987,-0.271752 -0.3261,-0.561619 -0.1834,-0.09031 -0.5888,-0.185697 -0.68844,-0.452918 -0.31704,-0.0317 -0.52085,-0.194755 -0.57973,-0.471035 -0.2944,0.06794 -0.59786,-0.344219 -0.59786,-0.344219 z"
     id="path4970"
     style="fill:#96877d;fill-opacity:1;fill-rule:evenodd;stroke:#000000;stroke-width:0.20290741px;stroke-linecap:butt;stroke-linejoin:miter;stroke-opacity:1" />
  <path
     d="m 109.6811,87.716825 c -0.43556,-0.486797 -1.20418,-0.128104 -1.20418,-0.128104 l -2.04968,3.535688 -0.89673,0.743007 -0.0769,2.76706 0.743,2.587713 -0.25621,1.998433 c 0,0 1.03222,-0.96837 1.15295,-1.511636 0.11529,-0.518824 -0.38432,-2.203398 -0.38432,-2.203398 0,0 -0.6149,-1.050458 0.12811,-2.997648 0.743,-1.947191 2.43398,-3.56131 2.84392,-4.791115 z"
     id="path4972"
     style="fill:#96877d;fill-opacity:1;fill-rule:evenodd;stroke:#000000;stroke-width:0.20290741px;stroke-linecap:butt;stroke-linejoin:miter;stroke-opacity:1" />
  <path
     d="m 114.7389,90.8682 c 0,0 -3.20028,4.573336 -8.43976,6.200264 -1.44759,0.345882 -0.92236,-3.381961 -0.92236,-3.381961 l -0.35869,0.102482 c 0,0 -0.80706,3.650982 1.12732,3.689413 5.2651,-1.037648 9.21561,-6.580616 9.21561,-6.580616 L 114.7389,90.8682 z"
     id="path4974"
     style="fill:#96877d;fill-opacity:1;fill-rule:evenodd;stroke:#000000;stroke-width:0.20290741px;stroke-linecap:butt;stroke-linejoin:miter;stroke-opacity:1" />
  <path
     d="m 116.9062,117.15527 c 0,0 -0.4868,0.3587 -1.12732,0 -0.33307,-0.76862 -1.2298,-0.81987 -1.2298,-0.81987 0,0 -0.57758,-1.65928 -1.48602,-1.17856 -0.14091,-0.8583 -1.12732,-0.40993 -1.12732,-0.40993 0,0 -0.0256,-1.24262 -1.17856,-1.07608 0.38431,-1.42197 -1.5885,-1.33229 -1.5885,-1.33229 0,0 -0.064,-1.60131 -2.97203,-1.28105 6.26432,-2.80549 11.22197,4.4068 11.22197,4.4068"
     id="path4976"
     style="fill:#96877d;fill-opacity:1;fill-rule:evenodd;stroke:#000000;stroke-width:0.20290741px;stroke-linecap:butt;stroke-linejoin:miter;stroke-opacity:1" />
  <path
     d="m 119.87823,117.77018 c 0,0 1.44758,1.62693 2.2034,1.63974 0.75582,0.0128 0.81987,-1.5885 0.81987,-1.5885 0,0 0.2434,0.69176 0.6149,0.51242 -0.0384,0.48679 0.46118,0.6149 0.46118,0.6149 0,0 -1.30667,3.03608 -5.0217,0.15372"
     id="path4978"
     style="fill:#96877d;fill-opacity:1;fill-rule:evenodd;stroke:#000000;stroke-width:0.20290741px;stroke-linecap:butt;stroke-linejoin:miter;stroke-opacity:1" />
  <path
     d="m 108.55378,118.38508 -0.51242,2.10091 c 0,0 -0.65333,0.58928 -0.46118,0.71739 0.19216,0.1281 1.22981,-0.20497 1.22981,-0.20497 0,0 1.61412,-0.19215 2.10091,-0.66614 0.33308,0.75582 1.07608,0.81987 1.07608,0.81987 0,0 0.0512,-0.32026 -0.0512,-0.51242 0.35869,0.0641 0.66615,-0.0512 0.66615,-0.0512 0,0 0.20496,-0.58929 -0.25621,-0.81987 0.0512,-0.43556 0.26901,-0.81987 -0.51242,-0.76863 -0.57647,0.6149 -1.99844,1.31948 -2.35713,1.07608 -0.35869,-0.2434 1.40915,-1.02484 0.92236,-2.04967"
     id="path4980"
     style="fill:#96877d;fill-opacity:1;fill-rule:evenodd;stroke:#000000;stroke-width:0.20290741px;stroke-linecap:butt;stroke-linejoin:miter;stroke-opacity:1" />
  <path
     d="m 75.953768,113.40146 2.083624,-0.49669 -0.230182,-0.96558 c -0.05274,-0.22154 -0.140294,-0.37212 -0.262607,-0.45176 -0.122272,-0.0796 -0.332083,-0.10192 -0.629446,-0.0669 l -0.03456,-0.14462 1.794343,-0.42772 0.03456,0.14462 c -0.205281,0.0516 -0.350045,0.11445 -0.434371,0.18823 -0.08431,0.0738 -0.139858,0.16141 -0.166637,0.26283 -0.02678,0.10141 -0.01904,0.24072 0.02319,0.41794 l 0.230183,0.96558 1.665336,-0.39698 c 0.268438,-0.064 0.441616,-0.12317 0.51955,-0.17754 0.05893,-0.0416 0.101917,-0.10968 0.128952,-0.20426 0.03521,-0.12958 0.0379,-0.25691 0.0081,-0.38202 l -0.04572,-0.19152 0.144618,-0.0346 0.54235,2.27518 -0.144618,0.0346 -0.04465,-0.18767 c -0.05228,-0.21889 -0.153925,-0.36268 -0.30524,-0.43127 -0.0983,-0.0427 -0.306437,-0.0261 -0.624389,0.0497 l -3.424493,0.81632 c -0.268435,0.064 -0.441612,0.12317 -0.51955,0.17753 -0.05893,0.0416 -0.102225,0.10838 -0.129895,0.20035 -0.03582,0.12697 -0.03853,0.25431 -0.0081,0.38201 l 0.04465,0.18768 -0.144619,0.0346 -0.940257,-3.94442 1.152844,-0.32851 0.03261,0.13683 c -0.231431,0.12678 -0.394415,0.24896 -0.488964,0.3665 -0.09453,0.11756 -0.152179,0.24837 -0.172938,0.39239 -0.02075,0.14403 0.0018,0.35418 0.06766,0.63043 l 0.278628,1.16886 z m -1.342174,-9.40196 c 0.03979,-0.70618 0.342433,-1.30297 0.907918,-1.79035 0.565492,-0.48738 1.249476,-0.70846 2.051954,-0.66326 0.826557,0.0466 1.497984,0.34604 2.014281,0.89839 0.516299,0.55236 0.753575,1.19902 0.711829,1.93998 -0.0422,0.74898 -0.343812,1.36327 -0.904837,1.84285 -0.561023,0.47958 -1.264175,0.69556 -2.109457,0.64794 -0.864003,-0.0487 -1.552271,-0.38264 -2.064806,-1.00187 -0.444672,-0.53759 -0.646965,-1.16215 -0.606898,-1.87368 l 0,0 z m 0.288609,0.0927 c -0.02742,0.48684 0.13113,0.88756 0.475661,1.20214 0.428745,0.39179 1.076456,0.6121 1.943134,0.66093 0.888081,0.05 1.58223,-0.10137 2.082444,-0.45424 0.380223,-0.27106 0.583818,-0.64601 0.610797,-1.12483 0.02878,-0.51091 -0.146715,-0.94411 -0.526519,-1.2996 -0.379801,-0.35548 -0.999029,-0.55741 -1.857687,-0.6058 -0.930876,-0.0524 -1.635347,0.0917 -2.113413,0.43237 -0.380364,0.27376 -0.585168,0.67009 -0.614413,1.18903 l 0,0 z m 7.893977,-9.951087 -0.517597,1.359604 -3.037478,0.817404 c -0.04359,0.129616 -0.08066,0.234477 -0.111171,0.314595 -0.0124,0.03256 -0.02636,0.06738 -0.04191,0.104445 -0.01555,0.03709 -0.03221,0.07518 -0.04997,0.114283 l 1.479792,0.563353 c 0.320495,0.122014 0.532898,0.16274 0.637208,0.122179 0.146412,-0.05317 0.25581,-0.174955 0.328256,-0.36525 l 0.07577,-0.199053 0.13896,0.0529 -0.830728,2.182128 -0.138961,-0.0529 0.07293,-0.191546 c 0.08198,-0.215323 0.07048,-0.396009 -0.03445,-0.542037 -0.05761,-0.08213 -0.231639,-0.178479 -0.52208,-0.289057 l -3.290093,-1.252529 c -0.320492,-0.122011 -0.532895,-0.162736 -0.637209,-0.122181 -0.147358,0.05566 -0.257711,0.179976 -0.331116,0.372762 l -0.07293,0.191546 -0.138961,-0.0529 0.706337,-1.855373 c 0.205899,-0.540832 0.397134,-0.924562 0.573707,-1.151187 0.176581,-0.226619 0.404736,-0.389165 0.684466,-0.487652 0.279729,-0.09849 0.566075,-0.09195 0.859028,0.01957 0.312987,0.119159 0.545813,0.324615 0.69848,0.616371 0.152672,0.291768 0.195075,0.669843 0.127224,1.134221 l 1.861365,-0.495421 c 0.427026,-0.112641 0.728533,-0.234312 0.904455,-0.365208 0.175942,-0.130816 0.33184,-0.329479 0.467694,-0.595975 l 0.13896,0.0529 z m -3.994726,2.620258 c 0.01811,-0.04758 0.03447,-0.08865 0.04906,-0.123221 0.01461,-0.03458 0.02618,-0.06313 0.03477,-0.08567 0.184927,-0.485749 0.219173,-0.891976 0.102738,-1.21868 -0.1164,-0.32671 -0.337403,-0.55201 -0.662906,-0.675933 -0.31799,-0.121052 -0.614405,-0.119943 -0.889248,0.0033 -0.274836,0.123282 -0.474689,0.348932 -0.599565,0.676928 -0.05529,0.145231 -0.106324,0.350838 -0.153122,0.616831 l 2.118278,0.806423 z m 11.596191,-18.052694 1.0531,1.367219 -0.118059,0.07646 c -0.352216,-0.282599 -0.681755,-0.453805 -0.98862,-0.513616 -0.4425,-0.08686 -0.877379,0.0081 -1.304641,0.284774 -0.582417,0.377232 -0.876133,0.894641 -0.881141,1.552245 -0.0021,0.553616 0.170833,1.099141 0.518935,1.636579 0.282543,0.436259 0.62467,0.779664 1.026357,1.030226 0.401685,0.250564 0.793391,0.37113 1.175117,0.361702 0.381725,-0.0094 0.716506,-0.107351 1.004346,-0.293776 0.168645,-0.109231 0.31785,-0.236189 0.447591,-0.380868 0.129733,-0.144673 0.240742,-0.305948 0.333025,-0.483823 l -0.856391,-1.322252 c -0.148562,-0.229364 -0.263208,-0.36818 -0.343935,-0.416445 -0.08075,-0.04825 -0.169662,-0.06726 -0.266771,-0.05704 -0.09711,0.01023 -0.237849,0.07513 -0.422268,0.194484 l -0.08302,-0.128168 1.770872,-1.146953 0.08302,0.128167 -0.08432,0.05462 c -0.175405,0.113601 -0.25784,0.250002 -0.247317,0.409161 0.0089,0.112332 0.09274,0.29106 0.2515,0.536166 l 0.906641,1.399831 c -0.168309,0.306916 -0.357271,0.574541 -0.566887,0.802873 -0.209624,0.228337 -0.468472,0.442273 -0.776545,0.641803 -0.883751,0.572385 -1.738507,0.723799 -2.564273,0.454232 -0.619324,-0.202171 -1.108858,-0.580975 -1.468602,-1.136413 -0.260694,-0.402522 -0.413788,-0.850805 -0.459241,-1.344858 -0.05463,-0.587057 0.04172,-1.128268 0.289065,-1.623636 0.208349,-0.412645 0.540769,-0.766798 0.997262,-1.062465 0.166402,-0.107764 0.326373,-0.192216 0.479898,-0.253351 0.153512,-0.0612 0.384968,-0.12637 0.694273,-0.195904 0.156474,-0.03441 0.25611,-0.0654 0.298875,-0.09297 0.04269,-0.02776 0.06653,-0.071 0.07138,-0.130029 0.0049,-0.059 -0.02647,-0.148047 -0.09404,-0.267089 l 0.124801,-0.08083 z m 8.873469,0.61442 -2.039,0.542195 -0.1363,0.926149 c -0.03364,0.227969 -0.03703,0.392423 -0.01019,0.493404 0.02126,0.08029 0.07829,0.140668 0.170857,0.181201 0.09257,0.04053 0.268118,0.03612 0.526684,-0.01322 l 0.03817,0.143715 -1.658388,0.440981 -0.03817,-0.143715 c 0.209755,-0.09736 0.338732,-0.185723 0.386942,-0.265066 0.099,-0.159397 0.178162,-0.450743 0.237485,-0.874043 l 0.700019,-4.826954 0.13591,-0.0362 2.998107,3.893475 c 0.24122,0.31289 0.43597,0.505756 0.58426,0.5786 0.14827,0.07285 0.33159,0.08718 0.54994,0.04297 l 0.0382,0.143715 -2.077844,0.552516 -0.03817,-0.143715 c 0.20698,-0.06609 0.33943,-0.138781 0.397384,-0.217961 0.058,-0.07918 0.0756,-0.161488 0.0529,-0.246926 -0.0303,-0.113914 -0.129929,-0.280103 -0.298896,-0.498542 l -0.519861,-0.672657 z m -0.185162,-0.258486 -1.459226,-1.890792 -0.35063,2.372057 1.809855,-0.481267 z m 9.620888,-0.02828 0.13143,0.03327 -0.52332,1.459668 -4.21652,-0.164035 0.006,-0.148584 0.20481,0.008 c 0.23023,0.009 0.39779,-0.0596 0.50268,-0.20567 0.0596,-0.08349 0.0954,-0.280494 0.10745,-0.591049 l 0.1367,-3.51377 c 0.0132,-0.339996 -0.016,-0.554282 -0.0876,-0.642873 -0.0998,-0.121862 -0.25281,-0.186793 -0.45895,-0.194813 l -0.20481,-0.008 0.006,-0.148584 2.46567,0.09592 -0.006,0.148584 c -0.28903,-0.01392 -0.49287,0.005 -0.61151,0.05664 -0.11865,0.05169 -0.20105,0.119545 -0.24721,0.203541 -0.0462,0.08402 -0.0756,0.287979 -0.0882,0.611909 l -0.1331,3.421408 c -0.009,0.222205 0.007,0.375633 0.0465,0.460291 0.0299,0.05749 0.0778,0.100886 0.14374,0.130261 0.0659,0.02938 0.27418,0.05088 0.62489,0.06453 l 0.39756,0.01547 c 0.41764,0.01626 0.71198,-0.0031 0.88304,-0.05815 0.17109,-0.05493 0.32924,-0.158108 0.47454,-0.309322 0.1453,-0.151191 0.29412,-0.392751 0.44646,-0.724657 l 0,0 z m 7.25733,1.941994 0.11707,0.06835 -0.90692,1.257768 -4.00635,-1.324819 0.0467,-0.141176 0.1946,0.06436 c 0.21875,0.07234 0.39874,0.05284 0.53997,-0.05847 0.0803,-0.06374 0.16929,-0.243142 0.26686,-0.538208 l 1.10402,-3.338625 c 0.10682,-0.323046 0.13808,-0.537047 0.0938,-0.642005 -0.0622,-0.144726 -0.19123,-0.249469 -0.38709,-0.314244 l -0.1946,-0.06436 0.0467,-0.141176 2.34276,0.774703 -0.0467,0.141176 c -0.27388,-0.09339 -0.47498,-0.131664 -0.60329,-0.11484 -0.12831,0.01684 -0.22625,0.05931 -0.2939,0.12715 -0.0676,0.06794 -0.15231,0.255815 -0.25409,0.563594 l -1.075,3.250867 c -0.0698,0.21112 -0.0974,0.362848 -0.0828,0.455162 0.0128,0.06352 0.0469,0.118515 0.10206,0.164973 0.0552,0.04647 0.24939,0.124791 0.58261,0.234987 l 0.37774,0.124912 c 0.39682,0.13122 0.68503,0.194073 0.86463,0.188562 0.17959,-0.0055 0.36014,-0.06081 0.54163,-0.165836 0.18148,-0.105067 0.39135,-0.295988 0.62961,-0.572753 l 0,0 z m 5.84867,3.097258 -1.72213,-1.218916 -0.79864,0.488373 c -0.19664,0.120128 -0.32513,0.222852 -0.38549,0.308133 -0.048,0.06779 -0.0579,0.150212 -0.0298,0.247263 0.0282,0.09704 0.14395,0.229073 0.34742,0.396071 l -0.0859,0.121378 -1.40067,-0.991385 0.0859,-0.121371 c 0.2091,0.09875 0.35956,0.141251 0.45138,0.127462 0.18582,-0.02604 0.46028,-0.151819 0.82341,-0.377289 l 4.15574,-2.553289 0.11481,0.08126 -1.07065,4.795986 c -0.0858,0.385633 -0.10928,0.658723 -0.0703,0.819266 0.039,0.160527 0.14539,0.310507 0.31915,0.449919 l -0.0859,0.121377 -1.75494,-1.242133 0.0859,-0.121377 c 0.18331,0.116634 0.32394,0.171846 0.42187,0.165664 0.0979,-0.0062 0.17241,-0.04539 0.22351,-0.117521 0.0681,-0.09623 0.13193,-0.279163 0.19151,-0.548824 l 0.18376,-0.830032 z m 0.08,-0.307747 0.51785,-2.33158 -2.04645,1.249647 1.5286,1.081933 z m 6.46272,1.191026 0.88066,1.188112 -1.29958,5.11026 2.52474,-1.871399 c 0.26904,-0.199419 0.41459,-0.353992 0.43665,-0.463724 0.0314,-0.146631 -0.0168,-0.306065 -0.14439,-0.478253 l -0.11246,-0.151742 0.11946,-0.08854 1.12954,1.523884 -0.11946,0.08854 -0.11487,-0.154972 c -0.13721,-0.185109 -0.29049,-0.274922 -0.45985,-0.269446 -0.10398,0.0037 -0.27868,0.0964 -0.52401,0.278374 l -3.69026,2.735306 -0.0862,-0.116223 1.38617,-5.499598 -2.69586,1.998233 c -0.26905,0.19942 -0.41539,0.352916 -0.43904,0.460495 -0.0298,0.14879 0.0183,0.308215 0.14439,0.478254 l 0.11487,0.154972 -0.11946,0.08854 -1.12954,-1.523885 0.11946,-0.08854 0.11247,0.151742 c 0.13879,0.187258 0.29287,0.27815 0.46223,0.272674 0.10397,-0.0037 0.27868,-0.0964 0.52402,-0.278354 l 3.04454,-2.256689 c 0.0544,-0.237069 0.0809,-0.405979 0.0796,-0.506727 -0.001,-0.100748 -0.0286,-0.229767 -0.0818,-0.387074 -0.0269,-0.07677 -0.0874,-0.178666 -0.18154,-0.305649 l 0.11946,-0.08854 z m 6.87102,12.662419 -1.18468,0.483091 -0.0508,-0.144002 c 0.20233,-0.102852 0.34047,-0.194356 0.41442,-0.274511 0.11879,-0.130134 0.1899,-0.272528 0.21334,-0.427171 0.0234,-0.154649 -0.002,-0.33806 -0.0774,-0.550222 l -0.2561,-0.723607 -3.92502,1.388718 c -0.31574,0.11164 -0.50066,0.215498 -0.55483,0.311397 -0.0721,0.133512 -0.0729,0.300032 -0.002,0.499568 l 0.0629,0.178085 -0.14018,0.04957 -0.77076,-2.17846 0.14019,-0.04957 0.0644,0.181844 c 0.0769,0.217199 0.19703,0.348052 0.36054,0.392508 0.10048,0.02697 0.2947,-0.01047 0.58263,-0.112365 l 3.92502,-1.388717 -0.2184,-0.617576 c -0.0849,-0.239933 -0.16291,-0.404178 -0.23401,-0.492698 -0.0944,-0.114356 -0.22643,-0.194136 -0.39587,-0.239334 -0.16946,-0.0452 -0.3735,-0.03554 -0.61212,0.029 l -0.0508,-0.144002 1.22623,-0.365639 1.48389,4.194011 z m -4.31356,9.665919 -0.0755,-1.45284 2.4487,-1.97441 c -0.0125,-0.13618 -0.0209,-0.24707 -0.0254,-0.33268 -0.002,-0.0348 -0.003,-0.0722 -0.004,-0.11247 -6.7e-4,-0.0402 -9.1e-4,-0.0818 -4.5e-4,-0.12474 l -1.58126,0.0822 c -0.34247,0.0178 -0.55323,0.0663 -0.63228,0.14555 -0.11245,0.10779 -0.16337,0.26336 -0.1528,0.46671 l 0.0111,0.21271 -0.14849,0.008 -0.12122,-2.33176 0.14849,-0.008 0.0106,0.20469 c 0.012,0.2301 0.0954,0.39075 0.25042,0.48195 0.0859,0.0519 0.28397,0.0697 0.59434,0.0536 l 3.5157,-0.18276 c 0.34247,-0.0178 0.55323,-0.0663 0.63229,-0.14554 0.11228,-0.11047 0.16309,-0.26871 0.15238,-0.47473 l -0.0106,-0.20467 0.14849,-0.008 0.10307,1.9826 c 0.03,0.57792 0.01,1.00619 -0.06,1.28482 -0.07,0.27863 -0.21311,0.51947 -0.42924,0.72253 -0.21615,0.20305 -0.48074,0.31272 -0.79378,0.32899 -0.33444,0.0174 -0.63041,-0.0765 -0.8879,-0.28181 -0.25749,-0.20526 -0.44896,-0.53401 -0.57442,-0.98625 l -1.50277,1.2049 c -0.34518,0.27549 -0.57183,0.50861 -0.67995,0.69934 -0.10812,0.19073 -0.17053,0.43543 -0.1872,0.73409 l -0.14849,0.008 z m 2.59639,-4.01029 c 0.003,0.0508 0.004,0.095 0.005,0.13254 6.4e-4,0.0375 0.002,0.0683 0.003,0.0924 0.027,0.51906 0.1597,0.90452 0.39806,1.15641 0.23845,0.25186 0.53158,0.36875 0.87941,0.35067 0.33979,-0.0177 0.61052,-0.13838 0.81217,-0.36215 0.20164,-0.22378 0.29336,-0.5109 0.27514,-0.8614 -0.008,-0.15519 -0.0444,-0.3639 -0.10902,-0.62613 l -2.26353,0.11767 z m 1.49413,11.21008 -0.48239,1.83865 -0.14382,-0.0377 0.0265,-0.10106 c 0.0177,-0.0674 0.0137,-0.17368 -0.0119,-0.31889 -0.0256,-0.14521 -0.0803,-0.28555 -0.16376,-0.42104 -0.0836,-0.1355 -0.23063,-0.31396 -0.4412,-0.53539 l -1.66842,-1.79635 -1.32165,-0.34676 c -0.32394,-0.085 -0.53559,-0.10174 -0.63496,-0.0503 -0.13468,0.0699 -0.2299,0.21113 -0.28565,0.42363 l -0.0449,0.17104 -0.14382,-0.0377 0.58744,-2.23904 0.14382,0.0377 -0.049,0.1866 c -0.0585,0.22285 -0.0326,0.39862 0.0777,0.52727 0.068,0.0788 0.24967,0.15691 0.54509,0.23442 l 1.2478,0.32737 2.58733,-0.86676 c 0.30401,-0.10305 0.49641,-0.17651 0.57717,-0.22043 0.0807,-0.044 0.19165,-0.14983 0.33267,-0.31782 0.0395,-0.045 0.0722,-0.11677 0.098,-0.21525 l 0.14383,0.0378 -0.59152,2.25458 -0.14382,-0.0377 0.0306,-0.11662 c 0.0319,-0.12181 0.0328,-0.24136 0.003,-0.35868 -0.0302,-0.11731 -0.10225,-0.19095 -0.21628,-0.22086 -0.0933,-0.0245 -0.28248,0.0104 -0.56755,0.10454 l -1.98736,0.65431 1.35357,1.46031 c 0.20279,0.21939 0.3638,0.34473 0.48301,0.37601 0.0726,0.019 0.14227,0.0172 0.20915,-0.005 0.0669,-0.0226 0.12568,-0.0647 0.17643,-0.12614 0.0508,-0.0615 0.0945,-0.16218 0.1312,-0.30212 l 0.14382,0.0377 z"
     id="text1930"
     style="font-size:4px;font-family:Times New Roman" />
</svg>
