<?xml version="1.0" encoding="UTF-8" standalone="no"?>
<!-- Created with Inkscape (http://www.inkscape.org/) -->

<svg
   xmlns:dc="http://purl.org/dc/elements/1.1/"
   xmlns:cc="http://creativecommons.org/ns#"
   xmlns:rdf="http://www.w3.org/1999/02/22-rdf-syntax-ns#"
   xmlns:svg="http://www.w3.org/2000/svg"
   xmlns="http://www.w3.org/2000/svg"
   xmlns:xlink="http://www.w3.org/1999/xlink"
   version="1.0"
   width="1200"
   height="600"
   id="svg551">
  <defs
     id="defs60" />
  <rect
     width="1200"
     height="600"
     x="0"
     y="0"
     id="rect628"
     style="fill:#ffb700" />
  <rect
     width="165"
     height="500"
     x="215"
     y="50"
     id="rect626"
     style="fill:#ff5b00" />
  <rect
     width="165"
     height="500"
     x="50"
     y="50"
     id="rect625"
     style="fill:#005641" />
  <rect
     width="725"
     height="500"
     x="430"
     y="50"
     id="rect627"
     style="fill:#8d2029" />
  <use
     transform="matrix(-1,0,0,1,1585,0)"
     id="use3712"
     x="0"
     y="0"
     width="1200"
     height="600"
     xlink:href="#path2389" />
  <use
     transform="matrix(1,0,0,-1,0,600)"
     id="use3710"
     x="0"
     y="0"
     width="1200"
     height="600"
     xlink:href="#path2389" />
  <use
     transform="matrix(-1,0,0,-1,1585,600)"
     id="use3714"
     x="0"
     y="0"
     width="1200"
     height="600"
     xlink:href="#path2389" />
  <path
     d="M 498.93712,466.06288 C 498.93712,466.06288 492.13895,479.90366 484.62846,485.54318 473.50082,493.89874 450.68338,493.29514 440.99988,503.04325 429.3962,514.53837 441.90033,529.72574 441.79579,531.04366 L 441.15954,539.06428 C 441.15954,539.06428 448.98403,539.15858 452.27817,539.67221 457.23199,540.44461 459.16416,544.47537 468.38716,543.87673 491.57644,542.37154 490.64174,521.48 491.95297,503.62657 493.11761,496.8283 495.81242,487.96455 497.34376,481.16815 498.65682,475.34049 498.93712,466.06288 498.93712,466.06288 z"
     id="path2389"
     style="fill:#ffb700;fill-opacity:1;fill-rule:evenodd;stroke:#000000;stroke-width:2.12575722;stroke-linecap:butt;stroke-linejoin:miter;stroke-miterlimit:4;stroke-opacity:1;stroke-dasharray:none" />
  <path
     d="M 681.53685,479.55607 685.89619,477.03909 687.76113,479.56061 C 690.24569,482.92011 697.12067,482.8821 701.68254,479.48331 L 705.17079,476.88478 708.09161,479.48331 C 711.93183,482.90009 719.1036,482.90462 723.68294,479.49551 726.88891,477.1073 727.33591,477.05933 729.45569,478.87607 730.7194,479.95919 734.42585,481.1923 737.69228,481.61625 743.5751,482.37992 743.66418,482.33798 747.10608,477.17425 749.98869,472.84972 750.43958,471.09945 749.75172,466.90517 749.29579,464.12451 748.80462,459.64902 748.66024,456.95973 748.39905,452.09033 748.42715,452.06004 755.52006,449.59027 759.43719,448.22631 763.97147,446.39693 765.59621,445.52499 768.42898,444.00479 776.23877,434.82571 776.23877,433.01658 776.23877,432.5372 773.18768,431.80284 769.45869,431.38453 754.62605,429.72085 752.11404,421.75574 761.75653,406.96126 777.48189,382.83341 786.97118,359.3363 787.03462,344.36791 787.06312,337.67735 787.44407,335.4309 788.30378,336.88586 791.81728,342.83176 785.52294,367.76239 775.9882,385.66545 L 772.14902,392.87439 775.81249,392.03102 C 777.82736,391.5672 789.67354,386.56915 802.13713,380.92433 836.25213,365.47313 847.96973,362.44525 870.04796,363.37519 888.54483,364.1543 896.42195,367.7679 909.48159,381.46564 916.40009,388.72216 923.06478,393.91421 935.25656,401.54575 961.23119,417.80477 962.31439,419.21312 963.54974,438.33384 964.80128,457.70683 964.17843,458.75782 949.52526,461.99517 937.00172,464.76209 929.14985,470.60056 927.04406,478.71174 925.91956,483.0435 928.28601,483.16823 934.60016,479.11019 L 939.22768,476.13613 941.28531,479.11019 C 943.99039,483.0202 949.74034,483.03578 954.51496,479.14579 L 958.1217,476.20767 961.80859,479.14579 C 967.53719,483.71081 975.15532,482.60377 977.30527,476.89382 977.71862,475.79635 978.82163,476.14795 981.05523,478.08915 985.24041,481.72655 995.96881,483.28674 997.12763,480.42674 997.56984,479.33551 996.72983,476.64058 995.261,474.43803 989.01911,465.07843 987.0665,460.61482 986.98518,455.52002 986.87252,448.43372 988.9866,445.01462 997.04657,439.25158 1006.8374,432.25076 1009.863,423.21859 1002.4172,423.21859 997.82002,423.21859 993.1855,419.15515 990.22999,412.53291 984.22208,399.07161 985.39955,383.9806 994.41658,358.87571 1003.5754,333.3758 1004.5914,328.67393 1004.628,311.6195 1004.658,297.83017 1004.3105,295.44556 1001.1732,287.88581 999.25504,283.26355 995.36304,276.38102 992.52432,272.59134 L 987.36291,265.70101 993.98965,260.21098 C 1014.2238,243.44782 1010.0846,216.01282 985.72665,205.44217 978.27504,202.20835 976.4132,201.92279 963.35447,202.01057 955.52022,202.06327 943.57459,203.0942 936.80865,204.30164 929.9101,205.5327 918.23318,206.52212 910.2232,206.55428 897.49854,206.60548 895.33849,206.29179 890.43463,203.68157 885.32139,200.95988 884.44473,199.66769 883.44362,193.37704 883.23787,192.08393 882.33376,190.79396 881.43469,190.51042 879.69548,189.96201 871.66364,196.93272 870.47696,200.02041 869.89153,201.54395 869.4137,201.43861 867.69613,199.40722 866.55544,198.05824 864.96282,194.9585 864.15685,192.51895 862.13018,186.38361 864.61889,181.78443 871.83067,178.33768 L 877.42588,175.66359 874.12657,173.61618 C 867.31826,169.39141 855.7417,172.28148 851.55497,179.25122 850.37064,181.22273 849.07883,182.83931 848.6844,182.84357 848.28996,182.84657 846.03888,180.96705 843.68186,178.66404 834.89144,170.07471 837.91521,157.36711 849.67269,153.48739 855.94229,151.41852 861.49061,152.99671 862.64504,157.17737 864.40742,163.56 869.88597,155.17025 868.90339,147.59336 868.25009,142.55593 868.34825,142.38133 871.8339,142.38133 876.68118,142.38133 886.99844,148.7432 890.18951,153.69984 893.89596,159.45713 893.62622,168.52327 889.54748,175.28003 L 886.34477,180.58557 890.53421,179.74661 C 896.67756,178.51639 902.64597,174.70128 905.66535,170.07453 908.8573,165.18318 909.20059,155.65901 906.37004,150.5191 903.62713,145.53815 903.94168,144.74743 907.99671,146.43062 914.89358,149.29345 918.58087,152.45076 921.34667,157.86162 923.83745,162.73451 923.97652,163.94543 922.62812,169.01712 921.79614,172.1462 919.94505,176.26307 918.51443,178.16568 916.28703,181.12825 916.21102,181.62495 917.98572,181.62495 921.29087,181.62495 928.19214,178.49682 930.64327,175.88766 931.88161,174.56946 933.68698,171.32367 934.65532,168.67475 L 936.41603,163.85856 938.43907,167.52973 C 941.29993,172.72097 946.86161,177.39239 953.64258,180.29938 960.93557,183.42589 963.97279,183.60205 960.159,180.6773 957.58716,178.70497 952.84814,164.79941 954.28434,163.43924 955.12942,162.63893 965.03151,170.2578 976.33706,180.40698 987.03179,190.00791 993.75216,193.15268 1003.5748,193.15275 1016.1225,193.15283 1023.4285,182.23001 1017.789,171.90176 1014.501,165.88018 1007.1762,165.04366 1002.893,170.20063 1000.9234,172.57198 1000.3827,174.45836 1000.9596,176.94563 1001.6662,179.99258 1001.3905,180.3986 998.61446,180.3986 994.96718,180.3986 987.77753,175.73216 975.00874,165.07726 955.53755,148.82969 931.87838,135.05774 914.79503,130.02707 903.8316,126.79861 880.4121,125.53873 869.26738,127.57788 857.20535,129.78489 842.93833,136.68774 835.16596,144.07719 821.39372,157.1711 821.17528,174.59555 834.58455,190.46239 L 838.42568,195.00755 835.8252,199.04694 C 832.0421,204.9234 832.36608,212.83146 836.62859,218.65654 838.50595,221.22216 840.39977,223.32023 840.83707,223.31887 841.27435,223.31787 841.75386,221.66809 841.90252,219.65342 842.27896,214.55684 844.46633,211.14211 848.22081,209.79022 851.60237,208.57262 853.78844,209.1477 869.27178,215.32786 885.5603,221.82936 912.3484,222.27626 940.83286,216.52167 954.79701,213.70054 971.26293,213.86648 978.50708,216.90129 991.78648,222.46442 994.86359,236.93763 985.10262,247.92379 980.87705,252.6797 976.80181,254.61648 963.1193,258.37161 952.70751,261.22908 950.24134,261.41878 926.5762,261.18252 906.35812,260.98068 899.09207,261.36894 890.83904,263.09216 881.87924,264.9629 876.36845,265.15154 850.04911,264.4883 L 819.61853,263.72145 822.99308,266.51571 C 824.84909,268.05254 827.4713,269.94342 828.82021,270.71766 831.11545,272.03506 831.03893,272.21206 827.62747,273.47697 825.62254,274.22037 821.17269,274.82859 817.73882,274.82859 L 811.49563,274.82859 810.65548,280.1343 C 810.19333,283.05246 810.22843,286.45945 810.73308,287.70539 811.47767,289.54306 811.20016,289.80696 809.26347,289.10312 807.95043,288.62593 804.29347,287.68737 801.13696,287.01743 797.98047,286.34748 793.73159,284.98328 791.69494,283.98587 788.27014,282.30858 787.88956,282.35366 786.62805,284.58603 785.5016,286.57954 774.92613,294.4504 773.37405,294.4504 773.12359,294.4504 772.80027,292.93277 772.65562,291.07791 772.51098,289.22303 770.9853,284.39423 769.26526,280.34723 767.5451,276.30023 765.74904,271.8853 765.27392,270.53632 764.5572,268.50137 764.23269,268.39692 763.36833,269.92313 762.79533,270.93488 761.95868,273.69419 761.50921,276.05496 761.05974,278.4157 759.46622,282.25078 757.968,284.57736 L 755.24402,288.80747 753.50662,285.19052 C 751.64154,281.30775 748.54515,277.28133 747.42413,277.28133 747.04576,277.28133 746.40128,278.52302 745.99209,280.04064 745.13756,283.20986 737.79512,291.99769 736.00179,291.99769 735.34138,291.99769 734.80113,289.5143 734.80113,286.47905 734.80113,283.4438 734.21843,280.96041 733.50622,280.96041 732.79402,280.96041 732.2113,281.74586 732.2113,282.70586 732.2113,285.03938 725.94067,291.99769 723.83772,291.99769 722.92001,291.99769 721.44367,292.82548 720.55705,293.83722 718.24523,296.47523 716.35413,296.10505 717.32609,293.2048 717.78177,291.84521 717.48548,288.67199 716.66763,286.1532 715.84975,283.63441 714.98009,280.95362 714.73509,280.1959 714.42638,279.24161 712.17931,279.49474 707.42347,281.01952 699.73824,283.48345 697.16226,283.04754 701.11474,279.95197 702.55962,278.82035 704.75722,274.90056 705.99852,271.2413 707.23971,267.58205 709.07112,264.33524 710.06833,264.02616 711.46463,263.59334 711.39032,264.1282 709.7446,266.35334 708.56933,267.9424 707.60423,270.08548 707.59983,271.11578 707.59983,272.14608 706.71099,274.58878 705.63426,276.544 704.55767,278.49924 703.88082,280.29226 704.13034,280.52853 704.37975,280.76479 707.30382,279.65401 710.62812,278.06013 L 716.67228,275.16219 716.69688,277.75471 C 716.71108,279.18059 717.439,282.94223 718.31553,286.11391 L 719.90919,291.88056 724.02353,289.98958 C 728.22839,288.05698 732.21092,281.16742 732.21092,275.82575 732.21092,273.18515 733.7235,273.59049 734.34287,276.39703 734.52468,277.22063 735.47412,280.31177 736.4528,283.26622 L 738.23229,288.63793 741.04925,285.24631 C 742.59861,283.38091 744.54099,279.72194 745.36559,277.11526 746.79713,272.59013 749.04486,270.64467 749.04486,273.93074 749.04486,276.29876 755.50702,284.7915 756.75363,284.06182 757.35616,283.7092 758.55589,280.52171 759.41974,276.97851 761.21644,269.60994 764.11498,264.59851 765.95674,265.67652 766.64926,266.08187 766.91899,266.86855 766.55603,267.4247 766.19306,267.98083 767.68144,272.7715 769.86351,278.07063 772.04557,283.36977 774.23671,288.70509 774.73281,289.92692 775.52981,291.89011 776.25018,291.60493 780.92755,287.47419 783.83853,284.90336 786.48069,282.02549 786.79885,281.07893 787.27979,279.64797 787.92918,279.70032 790.65122,281.38949 794.45789,283.75168 807.25621,287.55778 808.24464,286.62163 808.61485,286.27104 808.99439,282.90983 809.08814,279.15225 L 809.25856,272.32033 812.93897,273.08356 C 814.96318,273.50334 819.21945,273.47754 822.39732,273.02606 L 828.17523,272.20549 823.026,268.67281 C 820.19375,266.72985 817.33016,264.21546 816.66237,263.0853 815.95095,261.88133 813.43039,260.85899 810.5751,260.61635 802.86036,259.96077 789.18732,252.29193 789.18732,248.62052 789.18732,247.93127 791.08114,249.10323 793.3958,251.22486 798.53067,255.93153 805.66438,258.88577 811.89488,258.88577 L 816.55697,258.88577 813.67293,255.05 C 812.0162,252.8466 810.53043,248.6668 810.18157,245.22823 809.62553,239.7472 809.04697,238.8757 803.32381,234.89694 799.8862,232.50703 795.62812,228.92489 793.86159,226.93661 L 790.64966,223.32157 789.01096,227.61367 C 788.10957,229.97433 787.00797,231.90578 786.56304,231.90578 786.1181,231.90578 784.38538,230.52611 782.71272,228.83987 781.03996,227.15362 779.33597,225.78029 778.92601,225.78802 778.51591,225.79502 777.03413,228.06709 775.63315,230.83541 L 773.08579,235.86873 771.11738,232.96748 C 770.03469,231.37178 767.47736,228.54861 765.43451,226.69373 763.39164,224.83886 762.31711,223.32123 763.04679,223.32123 763.77635,223.32123 766.29782,225.25351 768.65005,227.61518 L 772.92652,231.90913 774.66702,228.76318 C 775.69984,226.89629 776.08689,224.02858 775.61903,221.7099 774.937,218.33022 775.03283,218.13379 776.32866,220.25532 777.15274,221.60431 779.65452,224.1906 781.88839,226.0026 L 785.95004,229.29715 788.75288,224.16305 C 791.54239,219.05361 791.56194,219.04368 792.8311,222.09486 794.52835,226.17536 806.81129,236.24395 817.26854,242.12662 818.88032,243.03332 818.20074,239.91541 815.22411,232.74571 814.43577,230.84694 813.79077,227.42379 813.79077,225.13873 813.79077,221.74871 812.81284,220.2399 808.47719,216.94062 802.21796,212.17742 800.19373,208.79018 799.0142,201.10568 798.53637,197.99288 797.441,194.5308 796.57988,193.41218 795.30258,191.75263 795.0915,192.68137 795.43324,198.45865 795.6636,202.35281 795.15716,207.19455 794.30769,209.21805 L 792.76336,212.89713 791.56958,209.83122 C 790.91305,208.14497 788.00907,205.2125 785.1161,203.31462 782.22324,201.41674 780.19282,199.54522 780.60422,199.15569 781.01548,198.76616 783.99159,200.49585 787.21763,202.99943 792.13235,206.81344 793.2149,207.22639 793.89564,205.54652 794.69539,203.57263 793.89464,194.98471 792.34952,188.98304 791.57839,185.98624 791.64586,186.00237 795.34272,189.69863 798.0693,192.42476 799.57697,195.67624 800.74499,201.34908 802.22883,208.55589 802.97742,209.75563 809.64121,215.60669 813.64302,219.12045 817.12557,221.79803 817.38028,221.55687 817.63486,221.31571 818.13989,212.2262 818.50246,201.35794 819.19782,180.51649 818.41186,175.55769 813.39271,169.11869 L 810.81387,165.81023 814.86787,161.43737 C 820.15646,155.7329 822.58469,151.16031 823.63798,144.92209 L 824.49481,139.84732 819.91974,144.18018 C 816.17355,147.72804 814.38449,148.51305 810.04547,148.51305 805.74893,148.51305 804.0706,147.79304 801.17528,144.7078 797.70141,141.00611 791.54575,137.44435 785.6263,135.71094 783.43956,135.07063 782.71272,135.34954 782.71272,136.82882 782.71272,137.91288 781.50483,141.04211 780.0285,143.78265 L 777.34439,148.76544 771.72056,143.20673 C 768.27089,139.79716 764.17701,137.14323 761.13175,136.34238 753.35098,134.29623 752.9296,134.4994 752.9296,140.29641 752.9296,149.08961 749.17526,150.72787 742.41849,144.88321 737.2677,140.42779 732.99499,139.45915 723.22793,140.53274 L 715.6844,141.3619 717.04173,144.76734 C 718.17542,147.61189 717.91993,148.80984 715.49094,152.04052 711.55114,157.28045 706.42856,159.55031 698.54303,159.55031 694.91117,159.55031 690.36627,160.30187 688.44306,161.22045 686.51985,162.13901 681.74146,163.19729 677.82434,163.57215 673.90721,163.94706 669.73214,164.61614 668.54651,165.05908 666.69116,165.75214 666.48746,165.18097 667.08507,160.96104 667.99979,154.50296 663.48855,149.73941 656.45819,149.73941 647.33652,149.73941 643.12921,157.89861 646.70136,168.66098 647.38885,170.73236 648.28842,173.99906 648.70033,175.92032 649.12779,177.91354 653.23656,183.20286 658.26914,188.23839 663.12003,193.09208 667.70455,198.14253 668.45715,199.46158 669.20977,200.78064 671.69782,202.89745 673.9862,204.16559 L 678.14704,206.47134 677.59824,202.01947 C 676.99506,197.12671 678.06119,196.35912 680.66448,199.81174 681.59501,201.04601 683.95902,203.04101 685.91758,204.24505 689.00284,206.14179 689.4786,206.18032 689.4786,204.53347 689.4786,203.48806 690.10755,201.07915 690.87621,199.18038 L 692.27395,195.72804 694.69906,200.42527 C 696.03284,203.00875 700.37042,208.88028 704.33805,213.47315 712.03661,222.38495 716.72731,232.34376 714.30634,234.63662 713.3244,235.5665 710.67008,235.49453 705.16874,234.38888 700.90418,233.53179 695.62933,233.07875 693.44676,233.38212 688.98964,234.00165 688.63859,233.42622 691.3798,229.99404 694.2729,226.37144 693.8127,225.77396 688.12904,225.77396 681.55332,225.77396 665.22802,222.62176 658.96153,220.1421 652.86817,217.73089 651.46226,218.33127 649.66868,224.11068 648.86143,226.71173 647.3834,231.42484 646.38424,234.58426 L 644.5676,240.32863 651.16028,239.69373 C 654.78632,239.34453 659.44996,238.55064 661.52404,237.9295 663.59811,237.30838 665.48312,236.97828 665.71297,237.19594 665.94282,237.41363 665.01837,239.65824 663.65871,242.18397 L 661.18659,246.77618 665.29691,245.93828 C 667.5577,245.47743 670.95893,244.34979 672.85535,243.43239 676.15518,241.83609 676.42013,241.95201 679.02292,246.12973 682.22356,251.26736 684.78401,251.05627 685.35209,245.60792 685.93947,239.97539 687.79223,240.80853 691.27763,248.27246 694.62913,255.44967 698.11609,257.9837 698.7861,253.72894 699.00842,252.31629 700.81393,250.01675 702.79813,248.61887 706.81174,245.79131 709.83628,246.63963 711.57044,251.07915 713.36544,255.67465 709.36208,260.41143 697.717,267.47031 674.39048,281.61025 660.83087,300.94887 656.95984,325.59799 653.46835,347.83061 664.37324,370.80482 686.24986,387.30579 696.71888,395.20234 713.34991,403.53647 712.29313,400.35649 707.80495,386.85117 707.95268,361.08271 712.54343,356.73513 713.23234,356.08269 712.99537,358.7715 712.0168,362.71034 708.37185,377.38242 709.95528,389.0731 719.29877,416.47349 727.7494,441.25523 726.5797,451.84696 714.61932,458.84753 710.77794,461.09595 708.30477,461.46644 697.97638,461.34111 686.7695,461.20498 685.5484,461.43061 681.95034,464.29751 678.46221,467.07729 673.93959,476.20366 673.93959,480.46282 673.93959,482.76998 676.50158,482.46461 681.53622,479.55776 z M 772.35401,264.63217 C 772.35401,262.83297 767.07034,257.95693 761.71637,254.81518 757.51177,252.3478 756.81718,252.27283 756.80774,254.28522 756.79344,257.34046 754.07662,265.0159 753.00974,265.0159 752.40812,265.0159 751.51851,263.51597 751.03267,261.68275 750.5468,259.84952 748.5086,256.23659 746.50316,253.65401 L 742.85694,248.95843 740.01783,253.30899 C 737.37114,257.36467 732.78635,261.33682 730.75165,261.33682 730.26566,261.33682 730.17062,259.20091 730.54031,256.59035 730.942,253.75399 730.63231,251.50403 729.76958,250.99933 728.97605,250.53483 728.32679,250.69688 728.32679,251.35943 728.32679,252.8877 721.95979,260.11045 720.61256,260.11045 720.05743,260.11045 719.28036,258.04096 718.88554,255.51158 718.49085,252.98221 717.81995,248.9812 717.39469,246.62045 716.96943,244.2597 717.87613,245.86062 719.40971,250.17803 L 722.19806,258.02787 725.25576,253.24393 C 726.93747,250.61276 728.31642,247.73759 728.32005,246.85466 728.32005,245.97172 728.89253,245.58052 729.58415,245.9853 730.27564,246.39007 731.23814,249.55285 731.72284,253.01369 L 732.60429,259.30615 735.96887,255.6172 C 737.81943,253.58828 739.98792,250.87196 740.78765,249.58094 742.21466,247.2773 742.29546,247.27925 745.13391,249.68648 746.72459,251.03548 749.17017,254.26219 750.56842,256.85693 751.96681,259.45164 753.29798,261.38317 753.5268,261.14919 753.75548,260.9152 754.26788,258.24037 754.66555,255.20512 755.06309,252.16987 755.41803,249.57393 755.45415,249.43635 755.65201,248.68425 765.58922,255.14355 769.26588,258.41411 771.62898,260.51629 773.87333,261.94195 774.25314,261.58221 774.63307,261.22242 774.94385,258.121 774.94385,254.6901 774.94385,249.3734 774.3803,247.9484 771.12835,245.04159 767.38929,241.69939 767.28466,241.68103 765.90311,244.1258 764.11004,247.29877 761.99466,247.34459 761.99466,244.2104 761.99466,241.92288 754.9288,233.13044 753.09053,233.13044 752.614,233.13044 751.1259,235.06196 749.78345,237.42272 748.44101,239.78346 746.99743,241.71277 746.57542,241.71009 744.76291,241.69899 734.80176,230.5927 734.80616,228.58846 734.80616,226.99396 735.47745,227.40169 737.22378,230.06453 738.55068,232.08803 741.20151,235.10882 743.11423,236.7774 746.98732,240.15606 748.3953,239.33454 749.88989,232.82385 750.31566,230.96897 751.05571,229.45136 751.53431,229.45136 753.19012,229.45136 761.86154,238.6611 763.08108,241.71499 L 764.30544,244.7809 765.23285,241.4084 C 766.36682,237.2844 767.61809,237.13101 769.42864,240.89415 770.1849,242.46619 773.92047,245.73453 777.72973,248.15713 L 784.65574,252.56186 786.04571,248.13157 C 786.81022,245.69493 787.82297,244.29472 788.29627,245.01999 789.00212,246.10152 787.2018,253.4427 785.84343,255.02225 785.63987,255.25899 783.39553,253.95179 780.85592,252.11738 L 776.23877,248.78206 776.22057,254.75284 C 776.20767,258.03677 775.85152,261.96533 775.42201,263.48295 774.58225,266.4503 772.35344,267.28506 772.35344,264.63215 z M 737.81943,217.02735 C 729.58804,210.15488 728.33843,208.58228 728.52075,205.32501 L 728.71474,201.85817 729.25174,205.20664 C 729.56537,207.16188 731.75754,210.09195 734.52038,212.24882 L 739.25214,215.94255 742.15975,212.57946 C 743.75909,210.72976 745.08846,208.52652 745.1141,207.68341 745.1814,205.48489 745.57586,205.66955 751.14882,210.505 756.10031,214.80128 756.17749,214.82181 756.91391,212.03798 757.3244,210.4861 757.17872,207.56442 756.59019,205.54536 754.97232,199.99545 755.28931,199.15787 757.74085,202.50508 758.96222,204.17278 760.92621,206.53034 762.10524,207.7441 764.15755,209.85698 764.28278,209.83085 765.04639,207.1309 765.48511,205.57992 765.85196,202.74106 765.86167,200.82238 L 765.87987,197.33384 770.34436,202.39457 C 774.51453,207.12174 774.89873,207.29637 776.17151,205.04395 776.92101,203.71771 777.54307,200.52683 777.55396,197.95312 777.56816,194.62835 777.91835,193.78945 778.76393,195.05542 780.17604,197.16946 779.19565,202.92547 776.58808,207.83076 L 774.71691,211.35063 772.25981,207.52418 C 769.11807,202.63143 768.07217,202.70996 766.05625,207.99 764.15103,212.97978 762.91219,213.35959 761.05579,209.52295 759.85449,207.04003 759.62582,207.34427 758.77311,212.56038 L 757.82535,218.3571 752.14688,213.95033 746.46828,209.54356 743.91547,212.44586 C 742.5114,214.04214 741.34324,216.03802 741.31955,216.88113 741.26785,218.70849 739.902,218.76558 737.82003,217.02735 z M 811.04267,191.43175 C 808.04648,188.73247 805.98252,186.15711 806.45594,185.70872 806.92936,185.26034 807.46248,185.13191 807.64053,185.4233 807.81859,185.71469 810.26766,188.29006 813.08295,191.14632 819.56516,197.7228 818.23257,197.90922 811.04267,191.43175 z M 713.50865,181.3503 C 710.78311,177.66512 710.97138,175.22359 714.28895,171.22921 716.68638,168.34279 717.78149,167.9511 721.9677,168.48287 724.65309,168.82398 730.43155,171.19662 734.80888,173.7554 739.86438,176.7106 745.09351,178.6903 749.14376,179.1824 752.65067,179.60849 755.52006,179.76913 755.52006,179.53939 755.52006,179.30966 754.06329,176.9362 752.28277,174.26499 748.05447,167.92167 748.19925,167.24087 752.96829,171.04128 757.86374,174.94244 763.71936,176.08338 776.80478,175.68567 L 783.19778,175.49136 779.48902,171.82506 C 774.30209,166.69773 775.89846,166.23804 781.62653,171.20952 786.99876,175.87217 786.66234,176.2005 775.35499,177.32909 770.55018,177.80867 765.38307,177.46079 761.08834,176.36861 754.6627,174.73445 754.41329,174.75933 755.63052,176.91332 756.3321,178.15475 757.46828,179.17045 758.15536,179.17045 758.84257,179.17045 759.40482,179.79953 759.40482,180.56839 759.40482,182.93278 745.52615,180.85363 738.8941,177.4957 723.74303,169.82446 721.83639,169.16018 718.23017,170.29658 716.22343,170.92893 714.2149,172.77987 713.52276,174.63467 711.21366,180.82193 719.98855,185.63119 723.60785,180.16201 724.65685,178.57673 724.41185,177.49244 722.56815,175.56316 720.04332,172.92082 720.28017,172.54434 723.68865,173.78303 726.10859,174.66248 726.43413,180.47228 724.18304,182.60427 721.60731,185.04357 715.72942,184.35306 713.50865,181.3503 z M 773.19364,166.0669 C 771.29904,164.27255 772.78432,163.83305 781.27832,163.67467 791.7866,163.47874 798.16833,161.72763 805.69815,156.97408 811.73143,153.16527 813.36717,153.91477 807.64053,157.86404 802.41631,161.46674 794.26818,164.23635 786.40193,165.08312 782.59267,165.49318 778.25146,166.06122 776.75465,166.34542 775.25799,166.62963 773.65552,166.50429 773.19364,166.0669 z M 863.45321,479.06087 868.15427,476.03959 871.34457,479.06087 C 875.52417,483.01919 880.42051,482.93066 884.43902,478.82418 886.19261,477.03221 887.76736,475.79053 887.93829,476.06486 888.10922,476.3392 888.89122,477.66735 889.67594,479.01634 890.66928,480.72394 892.71162,481.58251 896.39812,481.84262 900.83982,482.15596 902.03257,481.72612 903.79742,479.17517 L 905.90127,476.13415 910.52893,479.10821 C 923.19841,487.25076 929.94856,478.70804 924.28665,461.69703 921.40767,453.0475 922.9907,448.18495 932.2697,437.17601 936.18255,432.53374 939.38734,427.57873 939.39123,426.16511 939.39123,423.91118 938.66737,423.60924 933.45985,423.71238 928.4765,423.81178 927.01854,423.27653 924.39543,420.38906 920.12893,415.69259 920.38248,410.314 925.15166,404.34552 L 928.96171,399.57742 922.20209,394.99008 C 918.48425,392.46696 911.77981,386.49764 907.30328,381.72475 897.24966,371.00562 887.36387,365.92246 874.32857,364.76967 L 865.58814,363.99669 865.60104,370.61244 C 865.61784,379.12929 869.61477,387.32237 880.52548,401.20026 892.9308,416.97928 893.79697,419.42207 894.29926,440.04618 L 894.72399,457.48864 891.13436,460.89437 C 887.89071,463.97167 886.42811,464.36437 875.9618,464.96799 865.99727,465.54266 863.90391,466.05676 860.97999,468.64707 857.0964,472.08751 855.93511,473.95883 854.73603,478.70976 854.03716,481.47852 854.32035,482.08226 856.31854,482.08226 857.6571,482.08226 860.86785,480.72259 863.45342,479.06087 z M 596.81914,433.98121 C 597.92772,432.48212 598.83494,430.06139 598.83494,428.60178 598.83494,426.39653 599.82037,425.80811 604.66635,425.11988 L 610.49775,424.29172 606.60872,421.19245 C 601.98833,417.51054 601.56088,414.6341 605.63326,414.62772 609.68921,414.62772 616.55823,410.41591 617.60257,407.29984 618.08793,405.8515 617.7827,403.91642 616.91213,402.92294 614.63838,400.32832 610.36348,400.71954 609.56943,403.59498 608.71595,406.68603 607.28699,406.69413 604.0475,403.62558 599.17435,399.01028 599.06492,389.45704 603.82155,383.89376 606.06331,381.27192 606.04336,381.09999 603.18535,378.39328 600.11084,375.48153 597.91517,369.71848 599.35938,368.35072 599.81895,367.91548 602.24797,368.26232 604.75724,369.12186 608.32282,370.34294 609.73039,370.36147 611.19935,369.20646 615.64893,365.70912 610.82821,361.21205 603.69258,362.20392 600.82082,362.60312 599.63442,362.20392 599.222,360.71426 598.91005,359.58442 596.39817,358.10921 593.56813,357.39389 588.51122,356.11553 588.47555,356.13109 588.47555,359.6152 588.47555,363.43312 586.29617,364.15336 582.15493,361.70407 578.78992,359.71379 575.52636,361.25889 575.52636,364.84233 575.52636,368.18576 578.88864,369.8346 584.91454,369.44634 589.53644,369.14845 589.7084,372.58545 585.31881,377.52598 L 582.16207,381.07887 584.66282,384.67163 C 588.36653,389.99258 588.05476,398.82988 584.00849,403.21891 L 580.83638,406.65984 578.75542,403.90054 C 575.86348,400.06593 571.90781,400.32297 570.82309,404.41597 570.11281,407.09618 570.69994,408.32096 574.05615,411.16096 576.31165,413.06956 579.60465,414.6312 581.37394,414.6312 585.75234,414.6312 585.58115,418.07447 581.02977,421.55293 L 577.46875,424.27448 582.97216,425.12814 C 585.99903,425.59772 588.47555,426.48107 588.47555,427.09093 588.47555,429.42998 592.28966,436.70575 593.51569,436.70575 594.22387,436.70575 595.71044,435.47926 596.81914,433.98017 z M 668.47838,402.9238 C 673.47844,400.95292 684.29956,391.78941 684.29956,389.52615 684.29956,388.81413 681.3127,385.52919 677.66219,382.22609 669.97984,375.2752 661.62334,363.56906 659.4581,356.72474 658.32919,353.156 652.87383,347.04688 637.50754,332.14349 L 617.05923,312.31124 611.1658,313.80397 C 607.92437,314.62501 603.96955,315.31668 602.37732,315.34097 599.63326,315.38267 599.68299,315.54025 603.33115,318.36359 L 607.18004,321.34219 612.57597,318.3474 C 617.80627,315.44447 617.99248,315.42656 618.63748,317.76279 619.01521,319.13043 618.20044,321.50063 616.75441,323.24181 615.35253,324.92953 614.55396,326.84414 614.97959,327.49645 615.40523,328.14861 614.05852,329.51245 611.98691,330.52703 608.14723,332.40753 605.48214,338.59774 608.51225,338.59774 611.23832,338.59774 617.24959,331.1808 616.55694,328.67215 616.20213,327.38754 616.37371,326.06625 616.93815,325.73587 619.27937,324.36553 619.13304,330.18867 616.75441,333.05272 615.35253,334.74044 614.55396,336.65503 614.97959,337.30734 615.40523,337.95952 614.05852,339.32336 611.98691,340.33793 608.17209,342.20619 605.4802,348.40863 608.48403,348.40863 611.42803,348.40863 617.34063,341.32111 616.60847,338.66984 616.22544,337.28245 616.37371,335.87715 616.93815,335.54677 618.51498,334.62381 619.36562,339.22083 618.03457,341.47317 617.32159,342.67979 617.32806,344.32681 618.05137,345.63301 619.36092,347.99927 618.03317,352.54368 615.61976,353.95634 614.58526,354.5618 615.28582,355.74989 617.7951,357.64487 621.42606,360.38714 621.49651,360.6751 621.49651,372.77513 621.49651,382.88697 621.90478,385.49681 623.7626,387.25701 625.84743,389.23244 626.02872,389.23955 626.02872,387.34541 626.02872,385.27642 629.66057,382.74729 632.6315,382.74729 633.5079,382.74729 638.98334,387.38749 644.79896,393.0588 650.6499,398.76458 656.77242,403.61987 658.50591,403.92904 660.22908,404.23637 662.09466,404.56295 662.65173,404.65479 663.20868,404.74679 665.83089,403.96791 668.47886,402.92414 z M 605.957,353.99596 C 605.957,350.73615 599.23288,347.25659 591.1904,346.35448 584.69707,345.62613 584.59081,345.66734 584.59081,348.91095 584.59081,351.59596 585.61189,352.65222 590.09421,354.60374 597.29657,357.73943 605.957,357.40769 605.957,353.99596 z M 613.33181,353.69781 C 616.61171,350.7218 618.16574,347.18226 616.19242,347.18226 613.92294,347.18226 607.89937,352.58747 607.89937,354.62397 607.89937,357.80258 609.01818,357.61177 613.33181,353.69781 z M 606.33589,344.06179 C 606.61377,342.22261 605.47619,340.99514 602.06616,339.45519 594.71036,336.1331 585.91596,334.5945 583.79811,336.25916 579.89707,339.32532 582.49636,343.4421 588.80094,344.1827 591.33918,344.48082 594.78095,345.25491 596.44918,345.90293 601.29476,347.7849 605.90285,346.92682 606.33589,344.06179 z M 606.33589,334.21102 C 606.73187,331.58734 605.0543,330.64843 591.35744,325.8276 581.13221,322.22872 576.60594,323.92576 579.87377,330.13337 581.01212,332.29581 582.9228,333.28365 587.20771,333.92528 590.39472,334.40258 594.75039,335.33571 596.88701,335.99906 602.59513,337.77104 605.89276,337.14707 606.33589,334.21102 z M 613.20141,324.97797 C 615.26798,322.88323 616.95863,320.411 616.95863,319.48436 616.95863,316.4783 608.79727,321.79643 607.75693,325.4803 606.50915,329.899 608.53194,329.71248 613.2018,324.97797 z M 606.34171,324.35756 C 606.79222,321.36891 601.82193,318.66994 592.04777,316.59541 584.87664,315.07338 581.71368,315.93661 582.25071,319.26901 582.54386,321.08807 584.93209,322.41709 591.70733,324.53159 602.54994,327.91524 605.81132,327.87649 606.34171,324.35756 z M 615.89964,310.44557 C 628.42421,304.87004 629.50767,290.81048 617.69725,287.11908 612.79352,285.58637 609.66318,286.41222 607.78606,289.73378 606.34883,292.27714 607.31006,296.90135 609.276,296.90135 609.94017,296.90135 610.48364,297.75731 610.48364,298.80348 610.48364,303.68537 591.36081,305.89736 583.51851,301.92246 580.76344,300.52602 579.56392,296.90135 581.8569,296.90135 583.57032,296.90135 584.755,293.20789 583.87949,290.59546 582.68671,287.0363 579.09956,285.80321 573.89643,287.1638 562.15654,290.23372 562.48611,304.02875 574.4392,309.88266 584.24054,314.68277 605.72625,314.97453 615.89964,310.44557 z M 608.10707,299.6427 C 608.83236,298.95576 608.51718,297.90018 607.30125,296.94449 604.63851,294.85165 604.78056,291.73891 607.70125,288.1756 609.89458,285.49969 610.16859,281.49525 610.92352,241.10182 612.22428,171.49086 617.40084,119.1304 624.2239,106.56932 626.94023,101.56845 626.55927,101.54855 619.54004,106.32433 610.49827,112.47653 603.61371,120.48776 597.514,131.95546 585.99755,153.6064 581.99579,182.73498 581.99579,244.91133 581.99579,280.21665 582.2363,284.83581 584.24725,288.15422 586.15755,291.30651 586.25907,292.47074 584.91723,295.8375 584.04742,298.0199 583.65273,300.10572 584.04014,300.47263 586.61121,302.90761 605.34205,302.26167 608.10734,299.6427 z M 713.34264,233.26374 C 713.735,232.66254 712.86806,229.6273 711.41619,226.51873 709.15267,221.67188 708.24092,220.86682 705.01618,220.86682 694.91438,220.86682 678.67482,216.35246 661.93308,208.89041 652.26535,204.58132 648.92627,203.59105 647.76666,204.68914 644.80869,207.49056 649.72485,214.13992 657.33819,217.63522 664.09222,220.73593 682.97342,224.54591 691.58606,224.54591 696.58263,224.54591 696.70073,224.77139 693.85734,228.88132 L 691.76592,231.9041 697.41837,232.04918 C 700.52708,232.12908 704.81882,232.61556 706.95544,233.13046 712.5047,234.46776 712.55663,234.46884 713.34303,233.26374 z"
     id="path3768"
     style="fill:#000000;fill-opacity:1;stroke:#000000;stroke-width:5.55984545;stroke-miterlimit:4;stroke-dasharray:none" />
  <path
     d="M 681.53685,479.55607 685.89619,477.03909 687.76113,479.56061 C 690.24569,482.92011 697.12067,482.8821 701.68254,479.48331 L 705.17079,476.88478 708.09161,479.48331 C 711.93183,482.90009 719.1036,482.90462 723.68294,479.49551 726.88891,477.1073 727.33591,477.05933 729.45569,478.87607 730.7194,479.95919 734.42585,481.1923 737.69228,481.61625 743.5751,482.37992 743.66418,482.33798 747.10608,477.17425 749.98869,472.84972 750.43958,471.09945 749.75172,466.90517 749.29579,464.12451 748.80462,459.64902 748.66024,456.95973 748.39905,452.09033 748.42715,452.06004 755.52006,449.59027 759.43719,448.22631 763.97147,446.39693 765.59621,445.52499 768.42898,444.00479 776.23877,434.82571 776.23877,433.01658 776.23877,432.5372 773.18768,431.80284 769.45869,431.38453 754.62605,429.72085 752.11404,421.75574 761.75653,406.96126 777.48189,382.83341 786.97118,359.3363 787.03462,344.36791 787.06312,337.67735 787.44407,335.4309 788.30378,336.88586 791.81728,342.83176 785.52294,367.76239 775.9882,385.66545 L 772.14902,392.87439 775.81249,392.03102 C 777.82736,391.5672 789.67354,386.56915 802.13713,380.92433 836.25213,365.47313 847.96973,362.44525 870.04796,363.37519 888.54483,364.1543 896.42195,367.7679 909.48159,381.46564 916.40009,388.72216 923.06478,393.91421 935.25656,401.54575 961.23119,417.80477 962.31439,419.21312 963.54974,438.33384 964.80128,457.70683 964.17843,458.75782 949.52526,461.99517 937.00172,464.76209 929.14985,470.60056 927.04406,478.71174 925.91956,483.0435 928.28601,483.16823 934.60016,479.11019 L 939.22768,476.13613 941.28531,479.11019 C 943.99039,483.0202 949.74034,483.03578 954.51496,479.14579 L 958.1217,476.20767 961.80859,479.14579 C 967.53719,483.71081 975.15532,482.60377 977.30527,476.89382 977.71862,475.79635 978.82163,476.14795 981.05523,478.08915 985.24041,481.72655 995.96881,483.28674 997.12763,480.42674 997.56984,479.33551 996.72983,476.64058 995.261,474.43803 989.01911,465.07843 987.0665,460.61482 986.98518,455.52002 986.87252,448.43372 988.9866,445.01462 997.04657,439.25158 1006.8374,432.25076 1009.863,423.21859 1002.4172,423.21859 997.82002,423.21859 993.1855,419.15515 990.22999,412.53291 984.22208,399.07161 985.39955,383.9806 994.41658,358.87571 1003.5754,333.3758 1004.5914,328.67393 1004.628,311.6195 1004.658,297.83017 1004.3105,295.44556 1001.1732,287.88581 999.25504,283.26355 995.36304,276.38102 992.52432,272.59134 L 987.36291,265.70101 993.98965,260.21098 C 1014.2238,243.44782 1010.0846,216.01282 985.72665,205.44217 978.27504,202.20835 976.4132,201.92279 963.35447,202.01057 955.52022,202.06327 943.57459,203.0942 936.80865,204.30164 929.9101,205.5327 918.23318,206.52212 910.2232,206.55428 897.49854,206.60548 895.33849,206.29179 890.43463,203.68157 885.32139,200.95988 884.44473,199.66769 883.44362,193.37704 883.23787,192.08393 882.33376,190.79396 881.43469,190.51042 879.69548,189.96201 871.66364,196.93272 870.47696,200.02041 869.89153,201.54395 869.4137,201.43861 867.69613,199.40722 866.55544,198.05824 864.96282,194.9585 864.15685,192.51895 862.13018,186.38361 864.61889,181.78443 871.83067,178.33768 L 877.42588,175.66359 874.12657,173.61618 C 867.31826,169.39141 855.7417,172.28148 851.55497,179.25122 850.37064,181.22273 849.07883,182.83931 848.6844,182.84357 848.28996,182.84657 846.03888,180.96705 843.68186,178.66404 834.89144,170.07471 837.91521,157.36711 849.67269,153.48739 855.94229,151.41852 861.49061,152.99671 862.64504,157.17737 864.40742,163.56 869.88597,155.17025 868.90339,147.59336 868.25009,142.55593 868.34825,142.38133 871.8339,142.38133 876.68118,142.38133 886.99844,148.7432 890.18951,153.69984 893.89596,159.45713 893.62622,168.52327 889.54748,175.28003 L 886.34477,180.58557 890.53421,179.74661 C 896.67756,178.51639 902.64597,174.70128 905.66535,170.07453 908.8573,165.18318 909.20059,155.65901 906.37004,150.5191 903.62713,145.53815 903.94168,144.74743 907.99671,146.43062 914.89358,149.29345 918.58087,152.45076 921.34667,157.86162 923.83745,162.73451 923.97652,163.94543 922.62812,169.01712 921.79614,172.1462 919.94505,176.26307 918.51443,178.16568 916.28703,181.12825 916.21102,181.62495 917.98572,181.62495 921.29087,181.62495 928.19214,178.49682 930.64327,175.88766 931.88161,174.56946 933.68698,171.32367 934.65532,168.67475 L 936.41603,163.85856 938.43907,167.52973 C 941.29993,172.72097 946.86161,177.39239 953.64258,180.29938 960.93557,183.42589 963.97279,183.60205 960.159,180.6773 957.58716,178.70497 952.84814,164.79941 954.28434,163.43924 955.12942,162.63893 965.03151,170.2578 976.33706,180.40698 987.03179,190.00791 993.75216,193.15268 1003.5748,193.15275 1016.1225,193.15283 1023.4285,182.23001 1017.789,171.90176 1014.501,165.88018 1007.1762,165.04366 1002.893,170.20063 1000.9234,172.57198 1000.3827,174.45836 1000.9596,176.94563 1001.6662,179.99258 1001.3905,180.3986 998.61446,180.3986 994.96718,180.3986 987.77753,175.73216 975.00874,165.07726 955.53755,148.82969 931.87838,135.05774 914.79503,130.02707 903.8316,126.79861 880.4121,125.53873 869.26738,127.57788 857.20535,129.78489 842.93833,136.68774 835.16596,144.07719 821.39372,157.1711 821.17528,174.59555 834.58455,190.46239 L 838.42568,195.00755 835.8252,199.04694 C 832.0421,204.9234 832.36608,212.83146 836.62859,218.65654 838.50595,221.22216 840.39977,223.32023 840.83707,223.31887 841.27435,223.31787 841.75386,221.66809 841.90252,219.65342 842.27896,214.55684 844.46633,211.14211 848.22081,209.79022 851.60237,208.57262 853.78844,209.1477 869.27178,215.32786 885.5603,221.82936 912.3484,222.27626 940.83286,216.52167 954.79701,213.70054 971.26293,213.86648 978.50708,216.90129 991.78648,222.46442 994.86359,236.93763 985.10262,247.92379 980.87705,252.6797 976.80181,254.61648 963.1193,258.37161 952.70751,261.22908 950.24134,261.41878 926.5762,261.18252 906.35812,260.98068 899.09207,261.36894 890.83904,263.09216 881.87924,264.9629 876.36845,265.15154 850.04911,264.4883 L 819.61853,263.72145 822.99308,266.51571 C 824.84909,268.05254 827.4713,269.94342 828.82021,270.71766 831.11545,272.03506 831.03893,272.21206 827.62747,273.47697 825.62254,274.22037 821.17269,274.82859 817.73882,274.82859 L 811.49563,274.82859 810.65548,280.1343 C 810.19333,283.05246 810.22843,286.45945 810.73308,287.70539 811.47767,289.54306 811.20016,289.80696 809.26347,289.10312 807.95043,288.62593 804.29347,287.68737 801.13696,287.01743 797.98047,286.34748 793.73159,284.98328 791.69494,283.98587 788.27014,282.30858 787.88956,282.35366 786.62805,284.58603 785.5016,286.57954 774.92613,294.4504 773.37405,294.4504 773.12359,294.4504 772.80027,292.93277 772.65562,291.07791 772.51098,289.22303 770.9853,284.39423 769.26526,280.34723 767.5451,276.30023 765.74904,271.8853 765.27392,270.53632 764.5572,268.50137 764.23269,268.39692 763.36833,269.92313 762.79533,270.93488 761.95868,273.69419 761.50921,276.05496 761.05974,278.4157 759.46622,282.25078 757.968,284.57736 L 755.24402,288.80747 753.50662,285.19052 C 751.64154,281.30775 748.54515,277.28133 747.42413,277.28133 747.04576,277.28133 746.40128,278.52302 745.99209,280.04064 745.13756,283.20986 737.79512,291.99769 736.00179,291.99769 735.34138,291.99769 734.80113,289.5143 734.80113,286.47905 734.80113,283.4438 734.21843,280.96041 733.50622,280.96041 732.79402,280.96041 732.2113,281.74586 732.2113,282.70586 732.2113,285.03938 725.94067,291.99769 723.83772,291.99769 722.92001,291.99769 721.44367,292.82548 720.55705,293.83722 718.24523,296.47523 716.35413,296.10505 717.32609,293.2048 717.78177,291.84521 717.48548,288.67199 716.66763,286.1532 715.84975,283.63441 714.98009,280.95362 714.73509,280.1959 714.42638,279.24161 712.17931,279.49474 707.42347,281.01952 699.73824,283.48345 697.16226,283.04754 701.11474,279.95197 702.55962,278.82035 704.75722,274.90056 705.99852,271.2413 707.23971,267.58205 709.07112,264.33524 710.06833,264.02616 711.46463,263.59334 711.39032,264.1282 709.7446,266.35334 708.56933,267.9424 707.60423,270.08548 707.59983,271.11578 707.59983,272.14608 706.71099,274.58878 705.63426,276.544 704.55767,278.49924 703.88082,280.29226 704.13034,280.52853 704.37975,280.76479 707.30382,279.65401 710.62812,278.06013 L 716.67228,275.16219 716.69688,277.75471 C 716.71108,279.18059 717.439,282.94223 718.31553,286.11391 L 719.90919,291.88056 724.02353,289.98958 C 728.22839,288.05698 732.21092,281.16742 732.21092,275.82575 732.21092,273.18515 733.7235,273.59049 734.34287,276.39703 734.52468,277.22063 735.47412,280.31177 736.4528,283.26622 L 738.23229,288.63793 741.04925,285.24631 C 742.59861,283.38091 744.54099,279.72194 745.36559,277.11526 746.79713,272.59013 749.04486,270.64467 749.04486,273.93074 749.04486,276.29876 755.50702,284.7915 756.75363,284.06182 757.35616,283.7092 758.55589,280.52171 759.41974,276.97851 761.21644,269.60994 764.11498,264.59851 765.95674,265.67652 766.64926,266.08187 766.91899,266.86855 766.55603,267.4247 766.19306,267.98083 767.68144,272.7715 769.86351,278.07063 772.04557,283.36977 774.23671,288.70509 774.73281,289.92692 775.52981,291.89011 776.25018,291.60493 780.92755,287.47419 783.83853,284.90336 786.48069,282.02549 786.79885,281.07893 787.27979,279.64797 787.92918,279.70032 790.65122,281.38949 794.45789,283.75168 807.25621,287.55778 808.24464,286.62163 808.61485,286.27104 808.99439,282.90983 809.08814,279.15225 L 809.25856,272.32033 812.93897,273.08356 C 814.96318,273.50334 819.21945,273.47754 822.39732,273.02606 L 828.17523,272.20549 823.026,268.67281 C 820.19375,266.72985 817.33016,264.21546 816.66237,263.0853 815.95095,261.88133 813.43039,260.85899 810.5751,260.61635 802.86036,259.96077 789.18732,252.29193 789.18732,248.62052 789.18732,247.93127 791.08114,249.10323 793.3958,251.22486 798.53067,255.93153 805.66438,258.88577 811.89488,258.88577 L 816.55697,258.88577 813.67293,255.05 C 812.0162,252.8466 810.53043,248.6668 810.18157,245.22823 809.62553,239.7472 809.04697,238.8757 803.32381,234.89694 799.8862,232.50703 795.62812,228.92489 793.86159,226.93661 L 790.64966,223.32157 789.01096,227.61367 C 788.10957,229.97433 787.00797,231.90578 786.56304,231.90578 786.1181,231.90578 784.38538,230.52611 782.71272,228.83987 781.03996,227.15362 779.33597,225.78029 778.92601,225.78802 778.51591,225.79502 777.03413,228.06709 775.63315,230.83541 L 773.08579,235.86873 771.11738,232.96748 C 770.03469,231.37178 767.47736,228.54861 765.43451,226.69373 763.39164,224.83886 762.31711,223.32123 763.04679,223.32123 763.77635,223.32123 766.29782,225.25351 768.65005,227.61518 L 772.92652,231.90913 774.66702,228.76318 C 775.69984,226.89629 776.08689,224.02858 775.61903,221.7099 774.937,218.33022 775.03283,218.13379 776.32866,220.25532 777.15274,221.60431 779.65452,224.1906 781.88839,226.0026 L 785.95004,229.29715 788.75288,224.16305 C 791.54239,219.05361 791.56194,219.04368 792.8311,222.09486 794.52835,226.17536 806.81129,236.24395 817.26854,242.12662 818.88032,243.03332 818.20074,239.91541 815.22411,232.74571 814.43577,230.84694 813.79077,227.42379 813.79077,225.13873 813.79077,221.74871 812.81284,220.2399 808.47719,216.94062 802.21796,212.17742 800.19373,208.79018 799.0142,201.10568 798.53637,197.99288 797.441,194.5308 796.57988,193.41218 795.30258,191.75263 795.0915,192.68137 795.43324,198.45865 795.6636,202.35281 795.15716,207.19455 794.30769,209.21805 L 792.76336,212.89713 791.56958,209.83122 C 790.91305,208.14497 788.00907,205.2125 785.1161,203.31462 782.22324,201.41674 780.19282,199.54522 780.60422,199.15569 781.01548,198.76616 783.99159,200.49585 787.21763,202.99943 792.13235,206.81344 793.2149,207.22639 793.89564,205.54652 794.69539,203.57263 793.89464,194.98471 792.34952,188.98304 791.57839,185.98624 791.64586,186.00237 795.34272,189.69863 798.0693,192.42476 799.57697,195.67624 800.74499,201.34908 802.22883,208.55589 802.97742,209.75563 809.64121,215.60669 813.64302,219.12045 817.12557,221.79803 817.38028,221.55687 817.63486,221.31571 818.13989,212.2262 818.50246,201.35794 819.19782,180.51649 818.41186,175.55769 813.39271,169.11869 L 810.81387,165.81023 814.86787,161.43737 C 820.15646,155.7329 822.58469,151.16031 823.63798,144.92209 L 824.49481,139.84732 819.91974,144.18018 C 816.17355,147.72804 814.38449,148.51305 810.04547,148.51305 805.74893,148.51305 804.0706,147.79304 801.17528,144.7078 797.70141,141.00611 791.54575,137.44435 785.6263,135.71094 783.43956,135.07063 782.71272,135.34954 782.71272,136.82882 782.71272,137.91288 781.50483,141.04211 780.0285,143.78265 L 777.34439,148.76544 771.72056,143.20673 C 768.27089,139.79716 764.17701,137.14323 761.13175,136.34238 753.35098,134.29623 752.9296,134.4994 752.9296,140.29641 752.9296,149.08961 749.17526,150.72787 742.41849,144.88321 737.2677,140.42779 732.99499,139.45915 723.22793,140.53274 L 715.6844,141.3619 717.04173,144.76734 C 718.17542,147.61189 717.91993,148.80984 715.49094,152.04052 711.55114,157.28045 706.42856,159.55031 698.54303,159.55031 694.91117,159.55031 690.36627,160.30187 688.44306,161.22045 686.51985,162.13901 681.74146,163.19729 677.82434,163.57215 673.90721,163.94706 669.73214,164.61614 668.54651,165.05908 666.69116,165.75214 666.48746,165.18097 667.08507,160.96104 667.99979,154.50296 663.48855,149.73941 656.45819,149.73941 647.33652,149.73941 643.12921,157.89861 646.70136,168.66098 647.38885,170.73236 648.28842,173.99906 648.70033,175.92032 649.12779,177.91354 653.23656,183.20286 658.26914,188.23839 663.12003,193.09208 667.70455,198.14253 668.45715,199.46158 669.20977,200.78064 671.69782,202.89745 673.9862,204.16559 L 678.14704,206.47134 677.59824,202.01947 C 676.99506,197.12671 678.06119,196.35912 680.66448,199.81174 681.59501,201.04601 683.95902,203.04101 685.91758,204.24505 689.00284,206.14179 689.4786,206.18032 689.4786,204.53347 689.4786,203.48806 690.10755,201.07915 690.87621,199.18038 L 692.27395,195.72804 694.69906,200.42527 C 696.03284,203.00875 700.37042,208.88028 704.33805,213.47315 712.03661,222.38495 716.72731,232.34376 714.30634,234.63662 713.3244,235.5665 710.67008,235.49453 705.16874,234.38888 700.90418,233.53179 695.62933,233.07875 693.44676,233.38212 688.98964,234.00165 688.63859,233.42622 691.3798,229.99404 694.2729,226.37144 693.8127,225.77396 688.12904,225.77396 681.55332,225.77396 665.22802,222.62176 658.96153,220.1421 652.86817,217.73089 651.46226,218.33127 649.66868,224.11068 648.86143,226.71173 647.3834,231.42484 646.38424,234.58426 L 644.5676,240.32863 651.16028,239.69373 C 654.78632,239.34453 659.44996,238.55064 661.52404,237.9295 663.59811,237.30838 665.48312,236.97828 665.71297,237.19594 665.94282,237.41363 665.01837,239.65824 663.65871,242.18397 L 661.18659,246.77618 665.29691,245.93828 C 667.5577,245.47743 670.95893,244.34979 672.85535,243.43239 676.15518,241.83609 676.42013,241.95201 679.02292,246.12973 682.22356,251.26736 684.78401,251.05627 685.35209,245.60792 685.93947,239.97539 687.79223,240.80853 691.27763,248.27246 694.62913,255.44967 698.11609,257.9837 698.7861,253.72894 699.00842,252.31629 700.81393,250.01675 702.79813,248.61887 706.81174,245.79131 709.83628,246.63963 711.57044,251.07915 713.36544,255.67465 709.36208,260.41143 697.717,267.47031 674.39048,281.61025 660.83087,300.94887 656.95984,325.59799 653.46835,347.83061 664.37324,370.80482 686.24986,387.30579 696.71888,395.20234 713.34991,403.53647 712.29313,400.35649 707.80495,386.85117 707.95268,361.08271 712.54343,356.73513 713.23234,356.08269 712.99537,358.7715 712.0168,362.71034 708.37185,377.38242 709.95528,389.0731 719.29877,416.47349 727.7494,441.25523 726.5797,451.84696 714.61932,458.84753 710.77794,461.09595 708.30477,461.46644 697.97638,461.34111 686.7695,461.20498 685.5484,461.43061 681.95034,464.29751 678.46221,467.07729 673.93959,476.20366 673.93959,480.46282 673.93959,482.76998 676.50158,482.46461 681.53622,479.55776 z M 772.35401,264.63217 C 772.35401,262.83297 767.07034,257.95693 761.71637,254.81518 757.51177,252.3478 756.81718,252.27283 756.80774,254.28522 756.79344,257.34046 754.07662,265.0159 753.00974,265.0159 752.40812,265.0159 751.51851,263.51597 751.03267,261.68275 750.5468,259.84952 748.5086,256.23659 746.50316,253.65401 L 742.85694,248.95843 740.01783,253.30899 C 737.37114,257.36467 732.78635,261.33682 730.75165,261.33682 730.26566,261.33682 730.17062,259.20091 730.54031,256.59035 730.942,253.75399 730.63231,251.50403 729.76958,250.99933 728.97605,250.53483 728.32679,250.69688 728.32679,251.35943 728.32679,252.8877 721.95979,260.11045 720.61256,260.11045 720.05743,260.11045 719.28036,258.04096 718.88554,255.51158 718.49085,252.98221 717.81995,248.9812 717.39469,246.62045 716.96943,244.2597 717.87613,245.86062 719.40971,250.17803 L 722.19806,258.02787 725.25576,253.24393 C 726.93747,250.61276 728.31642,247.73759 728.32005,246.85466 728.32005,245.97172 728.89253,245.58052 729.58415,245.9853 730.27564,246.39007 731.23814,249.55285 731.72284,253.01369 L 732.60429,259.30615 735.96887,255.6172 C 737.81943,253.58828 739.98792,250.87196 740.78765,249.58094 742.21466,247.2773 742.29546,247.27925 745.13391,249.68648 746.72459,251.03548 749.17017,254.26219 750.56842,256.85693 751.96681,259.45164 753.29798,261.38317 753.5268,261.14919 753.75548,260.9152 754.26788,258.24037 754.66555,255.20512 755.06309,252.16987 755.41803,249.57393 755.45415,249.43635 755.65201,248.68425 765.58922,255.14355 769.26588,258.41411 771.62898,260.51629 773.87333,261.94195 774.25314,261.58221 774.63307,261.22242 774.94385,258.121 774.94385,254.6901 774.94385,249.3734 774.3803,247.9484 771.12835,245.04159 767.38929,241.69939 767.28466,241.68103 765.90311,244.1258 764.11004,247.29877 761.99466,247.34459 761.99466,244.2104 761.99466,241.92288 754.9288,233.13044 753.09053,233.13044 752.614,233.13044 751.1259,235.06196 749.78345,237.42272 748.44101,239.78346 746.99743,241.71277 746.57542,241.71009 744.76291,241.69899 734.80176,230.5927 734.80616,228.58846 734.80616,226.99396 735.47745,227.40169 737.22378,230.06453 738.55068,232.08803 741.20151,235.10882 743.11423,236.7774 746.98732,240.15606 748.3953,239.33454 749.88989,232.82385 750.31566,230.96897 751.05571,229.45136 751.53431,229.45136 753.19012,229.45136 761.86154,238.6611 763.08108,241.71499 L 764.30544,244.7809 765.23285,241.4084 C 766.36682,237.2844 767.61809,237.13101 769.42864,240.89415 770.1849,242.46619 773.92047,245.73453 777.72973,248.15713 L 784.65574,252.56186 786.04571,248.13157 C 786.81022,245.69493 787.82297,244.29472 788.29627,245.01999 789.00212,246.10152 787.2018,253.4427 785.84343,255.02225 785.63987,255.25899 783.39553,253.95179 780.85592,252.11738 L 776.23877,248.78206 776.22057,254.75284 C 776.20767,258.03677 775.85152,261.96533 775.42201,263.48295 774.58225,266.4503 772.35344,267.28506 772.35344,264.63215 z M 737.81943,217.02735 C 729.58804,210.15488 728.33843,208.58228 728.52075,205.32501 L 728.71474,201.85817 729.25174,205.20664 C 729.56537,207.16188 731.75754,210.09195 734.52038,212.24882 L 739.25214,215.94255 742.15975,212.57946 C 743.75909,210.72976 745.08846,208.52652 745.1141,207.68341 745.1814,205.48489 745.57586,205.66955 751.14882,210.505 756.10031,214.80128 756.17749,214.82181 756.91391,212.03798 757.3244,210.4861 757.17872,207.56442 756.59019,205.54536 754.97232,199.99545 755.28931,199.15787 757.74085,202.50508 758.96222,204.17278 760.92621,206.53034 762.10524,207.7441 764.15755,209.85698 764.28278,209.83085 765.04639,207.1309 765.48511,205.57992 765.85196,202.74106 765.86167,200.82238 L 765.87987,197.33384 770.34436,202.39457 C 774.51453,207.12174 774.89873,207.29637 776.17151,205.04395 776.92101,203.71771 777.54307,200.52683 777.55396,197.95312 777.56816,194.62835 777.91835,193.78945 778.76393,195.05542 780.17604,197.16946 779.19565,202.92547 776.58808,207.83076 L 774.71691,211.35063 772.25981,207.52418 C 769.11807,202.63143 768.07217,202.70996 766.05625,207.99 764.15103,212.97978 762.91219,213.35959 761.05579,209.52295 759.85449,207.04003 759.62582,207.34427 758.77311,212.56038 L 757.82535,218.3571 752.14688,213.95033 746.46828,209.54356 743.91547,212.44586 C 742.5114,214.04214 741.34324,216.03802 741.31955,216.88113 741.26785,218.70849 739.902,218.76558 737.82003,217.02735 z M 811.04267,191.43175 C 808.04648,188.73247 805.98252,186.15711 806.45594,185.70872 806.92936,185.26034 807.46248,185.13191 807.64053,185.4233 807.81859,185.71469 810.26766,188.29006 813.08295,191.14632 819.56516,197.7228 818.23257,197.90922 811.04267,191.43175 z M 713.50865,181.3503 C 710.78311,177.66512 710.97138,175.22359 714.28895,171.22921 716.68638,168.34279 717.78149,167.9511 721.9677,168.48287 724.65309,168.82398 730.43155,171.19662 734.80888,173.7554 739.86438,176.7106 745.09351,178.6903 749.14376,179.1824 752.65067,179.60849 755.52006,179.76913 755.52006,179.53939 755.52006,179.30966 754.06329,176.9362 752.28277,174.26499 748.05447,167.92167 748.19925,167.24087 752.96829,171.04128 757.86374,174.94244 763.71936,176.08338 776.80478,175.68567 L 783.19778,175.49136 779.48902,171.82506 C 774.30209,166.69773 775.89846,166.23804 781.62653,171.20952 786.99876,175.87217 786.66234,176.2005 775.35499,177.32909 770.55018,177.80867 765.38307,177.46079 761.08834,176.36861 754.6627,174.73445 754.41329,174.75933 755.63052,176.91332 756.3321,178.15475 757.46828,179.17045 758.15536,179.17045 758.84257,179.17045 759.40482,179.79953 759.40482,180.56839 759.40482,182.93278 745.52615,180.85363 738.8941,177.4957 723.74303,169.82446 721.83639,169.16018 718.23017,170.29658 716.22343,170.92893 714.2149,172.77987 713.52276,174.63467 711.21366,180.82193 719.98855,185.63119 723.60785,180.16201 724.65685,178.57673 724.41185,177.49244 722.56815,175.56316 720.04332,172.92082 720.28017,172.54434 723.68865,173.78303 726.10859,174.66248 726.43413,180.47228 724.18304,182.60427 721.60731,185.04357 715.72942,184.35306 713.50865,181.3503 z M 773.19364,166.0669 C 771.29904,164.27255 772.78432,163.83305 781.27832,163.67467 791.7866,163.47874 798.16833,161.72763 805.69815,156.97408 811.73143,153.16527 813.36717,153.91477 807.64053,157.86404 802.41631,161.46674 794.26818,164.23635 786.40193,165.08312 782.59267,165.49318 778.25146,166.06122 776.75465,166.34542 775.25799,166.62963 773.65552,166.50429 773.19364,166.0669 z M 863.45321,479.06087 868.15427,476.03959 871.34457,479.06087 C 875.52417,483.01919 880.42051,482.93066 884.43902,478.82418 886.19261,477.03221 887.76736,475.79053 887.93829,476.06486 888.10922,476.3392 888.89122,477.66735 889.67594,479.01634 890.66928,480.72394 892.71162,481.58251 896.39812,481.84262 900.83982,482.15596 902.03257,481.72612 903.79742,479.17517 L 905.90127,476.13415 910.52893,479.10821 C 923.19841,487.25076 929.94856,478.70804 924.28665,461.69703 921.40767,453.0475 922.9907,448.18495 932.2697,437.17601 936.18255,432.53374 939.38734,427.57873 939.39123,426.16511 939.39123,423.91118 938.66737,423.60924 933.45985,423.71238 928.4765,423.81178 927.01854,423.27653 924.39543,420.38906 920.12893,415.69259 920.38248,410.314 925.15166,404.34552 L 928.96171,399.57742 922.20209,394.99008 C 918.48425,392.46696 911.77981,386.49764 907.30328,381.72475 897.24966,371.00562 887.36387,365.92246 874.32857,364.76967 L 865.58814,363.99669 865.60104,370.61244 C 865.61784,379.12929 869.61477,387.32237 880.52548,401.20026 892.9308,416.97928 893.79697,419.42207 894.29926,440.04618 L 894.72399,457.48864 891.13436,460.89437 C 887.89071,463.97167 886.42811,464.36437 875.9618,464.96799 865.99727,465.54266 863.90391,466.05676 860.97999,468.64707 857.0964,472.08751 855.93511,473.95883 854.73603,478.70976 854.03716,481.47852 854.32035,482.08226 856.31854,482.08226 857.6571,482.08226 860.86785,480.72259 863.45342,479.06087 z M 596.81914,433.98121 C 597.92772,432.48212 598.83494,430.06139 598.83494,428.60178 598.83494,426.39653 599.82037,425.80811 604.66635,425.11988 L 610.49775,424.29172 606.60872,421.19245 C 601.98833,417.51054 601.56088,414.6341 605.63326,414.62772 609.68921,414.62772 616.55823,410.41591 617.60257,407.29984 618.08793,405.8515 617.7827,403.91642 616.91213,402.92294 614.63838,400.32832 610.36348,400.71954 609.56943,403.59498 608.71595,406.68603 607.28699,406.69413 604.0475,403.62558 599.17435,399.01028 599.06492,389.45704 603.82155,383.89376 606.06331,381.27192 606.04336,381.09999 603.18535,378.39328 600.11084,375.48153 597.91517,369.71848 599.35938,368.35072 599.81895,367.91548 602.24797,368.26232 604.75724,369.12186 608.32282,370.34294 609.73039,370.36147 611.19935,369.20646 615.64893,365.70912 610.82821,361.21205 603.69258,362.20392 600.82082,362.60312 599.63442,362.20392 599.222,360.71426 598.91005,359.58442 596.39817,358.10921 593.56813,357.39389 588.51122,356.11553 588.47555,356.13109 588.47555,359.6152 588.47555,363.43312 586.29617,364.15336 582.15493,361.70407 578.78992,359.71379 575.52636,361.25889 575.52636,364.84233 575.52636,368.18576 578.88864,369.8346 584.91454,369.44634 589.53644,369.14845 589.7084,372.58545 585.31881,377.52598 L 582.16207,381.07887 584.66282,384.67163 C 588.36653,389.99258 588.05476,398.82988 584.00849,403.21891 L 580.83638,406.65984 578.75542,403.90054 C 575.86348,400.06593 571.90781,400.32297 570.82309,404.41597 570.11281,407.09618 570.69994,408.32096 574.05615,411.16096 576.31165,413.06956 579.60465,414.6312 581.37394,414.6312 585.75234,414.6312 585.58115,418.07447 581.02977,421.55293 L 577.46875,424.27448 582.97216,425.12814 C 585.99903,425.59772 588.47555,426.48107 588.47555,427.09093 588.47555,429.42998 592.28966,436.70575 593.51569,436.70575 594.22387,436.70575 595.71044,435.47926 596.81914,433.98017 z M 668.47838,402.9238 C 673.47844,400.95292 684.29956,391.78941 684.29956,389.52615 684.29956,388.81413 681.3127,385.52919 677.66219,382.22609 669.97984,375.2752 661.62334,363.56906 659.4581,356.72474 658.32919,353.156 652.87383,347.04688 637.50754,332.14349 L 617.05923,312.31124 611.1658,313.80397 C 607.92437,314.62501 603.96955,315.31668 602.37732,315.34097 599.63326,315.38267 599.68299,315.54025 603.33115,318.36359 L 607.18004,321.34219 612.57597,318.3474 C 617.80627,315.44447 617.99248,315.42656 618.63748,317.76279 619.01521,319.13043 618.20044,321.50063 616.75441,323.24181 615.35253,324.92953 614.55396,326.84414 614.97959,327.49645 615.40523,328.14861 614.05852,329.51245 611.98691,330.52703 608.14723,332.40753 605.48214,338.59774 608.51225,338.59774 611.23832,338.59774 617.24959,331.1808 616.55694,328.67215 616.20213,327.38754 616.37371,326.06625 616.93815,325.73587 619.27937,324.36553 619.13304,330.18867 616.75441,333.05272 615.35253,334.74044 614.55396,336.65503 614.97959,337.30734 615.40523,337.95952 614.05852,339.32336 611.98691,340.33793 608.17209,342.20619 605.4802,348.40863 608.48403,348.40863 611.42803,348.40863 617.34063,341.32111 616.60847,338.66984 616.22544,337.28245 616.37371,335.87715 616.93815,335.54677 618.51498,334.62381 619.36562,339.22083 618.03457,341.47317 617.32159,342.67979 617.32806,344.32681 618.05137,345.63301 619.36092,347.99927 618.03317,352.54368 615.61976,353.95634 614.58526,354.5618 615.28582,355.74989 617.7951,357.64487 621.42606,360.38714 621.49651,360.6751 621.49651,372.77513 621.49651,382.88697 621.90478,385.49681 623.7626,387.25701 625.84743,389.23244 626.02872,389.23955 626.02872,387.34541 626.02872,385.27642 629.66057,382.74729 632.6315,382.74729 633.5079,382.74729 638.98334,387.38749 644.79896,393.0588 650.6499,398.76458 656.77242,403.61987 658.50591,403.92904 660.22908,404.23637 662.09466,404.56295 662.65173,404.65479 663.20868,404.74679 665.83089,403.96791 668.47886,402.92414 z M 605.957,353.99596 C 605.957,350.73615 599.23288,347.25659 591.1904,346.35448 584.69707,345.62613 584.59081,345.66734 584.59081,348.91095 584.59081,351.59596 585.61189,352.65222 590.09421,354.60374 597.29657,357.73943 605.957,357.40769 605.957,353.99596 z M 613.33181,353.69781 C 616.61171,350.7218 618.16574,347.18226 616.19242,347.18226 613.92294,347.18226 607.89937,352.58747 607.89937,354.62397 607.89937,357.80258 609.01818,357.61177 613.33181,353.69781 z M 606.33589,344.06179 C 606.61377,342.22261 605.47619,340.99514 602.06616,339.45519 594.71036,336.1331 585.91596,334.5945 583.79811,336.25916 579.89707,339.32532 582.49636,343.4421 588.80094,344.1827 591.33918,344.48082 594.78095,345.25491 596.44918,345.90293 601.29476,347.7849 605.90285,346.92682 606.33589,344.06179 z M 606.33589,334.21102 C 606.73187,331.58734 605.0543,330.64843 591.35744,325.8276 581.13221,322.22872 576.60594,323.92576 579.87377,330.13337 581.01212,332.29581 582.9228,333.28365 587.20771,333.92528 590.39472,334.40258 594.75039,335.33571 596.88701,335.99906 602.59513,337.77104 605.89276,337.14707 606.33589,334.21102 z M 613.20141,324.97797 C 615.26798,322.88323 616.95863,320.411 616.95863,319.48436 616.95863,316.4783 608.79727,321.79643 607.75693,325.4803 606.50915,329.899 608.53194,329.71248 613.2018,324.97797 z M 606.34171,324.35756 C 606.79222,321.36891 601.82193,318.66994 592.04777,316.59541 584.87664,315.07338 581.71368,315.93661 582.25071,319.26901 582.54386,321.08807 584.93209,322.41709 591.70733,324.53159 602.54994,327.91524 605.81132,327.87649 606.34171,324.35756 z M 615.89964,310.44557 C 628.42421,304.87004 629.50767,290.81048 617.69725,287.11908 612.79352,285.58637 609.66318,286.41222 607.78606,289.73378 606.34883,292.27714 607.31006,296.90135 609.276,296.90135 609.94017,296.90135 610.48364,297.75731 610.48364,298.80348 610.48364,303.68537 591.36081,305.89736 583.51851,301.92246 580.76344,300.52602 579.56392,296.90135 581.8569,296.90135 583.57032,296.90135 584.755,293.20789 583.87949,290.59546 582.68671,287.0363 579.09956,285.80321 573.89643,287.1638 562.15654,290.23372 562.48611,304.02875 574.4392,309.88266 584.24054,314.68277 605.72625,314.97453 615.89964,310.44557 z M 608.10707,299.6427 C 608.83236,298.95576 608.51718,297.90018 607.30125,296.94449 604.63851,294.85165 604.78056,291.73891 607.70125,288.1756 609.89458,285.49969 610.16859,281.49525 610.92352,241.10182 612.22428,171.49086 617.40084,119.1304 624.2239,106.56932 626.94023,101.56845 626.55927,101.54855 619.54004,106.32433 610.49827,112.47653 603.61371,120.48776 597.514,131.95546 585.99755,153.6064 581.99579,182.73498 581.99579,244.91133 581.99579,280.21665 582.2363,284.83581 584.24725,288.15422 586.15755,291.30651 586.25907,292.47074 584.91723,295.8375 584.04742,298.0199 583.65273,300.10572 584.04014,300.47263 586.61121,302.90761 605.34205,302.26167 608.10734,299.6427 z M 713.34264,233.26374 C 713.735,232.66254 712.86806,229.6273 711.41619,226.51873 709.15267,221.67188 708.24092,220.86682 705.01618,220.86682 694.91438,220.86682 678.67482,216.35246 661.93308,208.89041 652.26535,204.58132 648.92627,203.59105 647.76666,204.68914 644.80869,207.49056 649.72485,214.13992 657.33819,217.63522 664.09222,220.73593 682.97342,224.54591 691.58606,224.54591 696.58263,224.54591 696.70073,224.77139 693.85734,228.88132 L 691.76592,231.9041 697.41837,232.04918 C 700.52708,232.12908 704.81882,232.61556 706.95544,233.13046 712.5047,234.46776 712.55663,234.46884 713.34303,233.26374 z"
     id="path3018"
     style="fill:#ffb700;fill-opacity:1;stroke:none" />
  <metadata
     id="metadata2992">
    <rdf:RDF>
      <cc:Work
         rdf:about="">
        <dc:title></dc:title>
      </cc:Work>
    </rdf:RDF>
  </metadata>
</svg>
