<svg xmlns="http://www.w3.org/2000/svg" xmlns:xlink="http://www.w3.org/1999/xlink" width="500" height="300" viewBox="0 0 500 300">
<title>Flag of Haiti</title>
<defs id="defs3766" />
<rect width="500" height="300" x="0" y="-3.8146973e-06" id="rect6538" style="opacity:1;fill:#00209f;fill-opacity:1;fill-rule:evenodd;stroke:none;stroke-width:7.5;stroke-linecap:round;stroke-linejoin:miter;stroke-miterlimit:4;stroke-dasharray:none;stroke-dashoffset:0.99999998;stroke-opacity:1" />
<rect width="500" height="150" x="0" y="150" id="rect6540" style="opacity:1;fill:#d21034;fill-opacity:1;fill-rule:evenodd;stroke:none;stroke-width:7.5;stroke-linecap:round;stroke-linejoin:miter;stroke-miterlimit:4;stroke-dasharray:none;stroke-dashoffset:0.99999998;stroke-opacity:1" />
<g transform="matrix(0.1859364,0,0,0.1793841,202.67919,112.28368)" id="g2562">
<rect width="509" height="420" x="0" y="0" id="Background" style="opacity:1;fill:#fff;fill-opacity:1;fill-rule:evenodd;stroke:none;stroke-width:1;stroke-linecap:round;stroke-linejoin:miter;marker:none;marker-start:none;marker-mid:none;marker-end:none;stroke-miterlimit:4;stroke-dasharray:none;stroke-dashoffset:0;stroke-opacity:1;visibility:visible;display:inline;overflow:visible;enable-background:accumulate" />
<path d="M 356.9375,303.71875 L 253.0625,306.84375 L 149.65625,308.0625 C 149.65625,308.0625 96.529978,328.4295 74.8125,333 C 53.158973,337.55705 55.974722,344.93112 39.21875,348.8125 C 25.797629,351.92139 24.249729,352.90168 16.375,353.4375 C 11.60973,353.76175 5.7404427,357.56203 0,361.75 L 0,420 L 509,420 L 509,364.59375 C 503.48266,361.47741 498.22485,359.3336 492.84375,357.4375 C 485.36642,354.80276 480.32738,351.92139 466.90625,348.8125 C 450.15028,344.93112 452.96603,337.55706 431.3125,333 C 409.59502,328.42949 356.93751,303.71874 356.9375,303.71875 z" id="Island" style="opacity:1;fill:#016a16;fill-opacity:1;fill-rule:evenodd;stroke:#016a16;stroke-width:1px;stroke-linecap:butt;stroke-linejoin:miter;stroke-opacity:1" />
<path d="M 247.8125,74.25 L 245.3125,124.8125 L 260.90625,124.8125 L 258.625,74.6875 L 274.87964,72.321249 L 273.07926,52.351362 L 232.68608,53.967623 L 232.91198,72.102499 L 247.8125,74.25 z" id="Palm-center" style="fill:#016a16;fill-opacity:1;fill-rule:evenodd;stroke:#016a16;stroke-width:1px;stroke-linecap:butt;stroke-linejoin:miter;stroke-opacity:1" />
<g id="Reflected-elements">
<g id="g3357">
<g transform="translate(-520,0)" id="Pikes">
<path d="M 730.96858,213.29843 L 717.40838,183.06283 L 723.27225,181.7801 L 748.01047,231.98953 L 730.96858,213.29843 z" id="path2976" style="fill:#f1b517;fill-opacity:1;fill-rule:evenodd;stroke:#000000;stroke-width:1px;stroke-linecap:butt;stroke-linejoin:miter;stroke-opacity:1" />
<path d="M 699.63351,147.69633 L 714.65969,190.20942 L 722.35602,190.20942 L 699.63351,147.69633 z" id="path2970" style="fill:#fff;fill-opacity:1;fill-rule:evenodd;stroke:#000000;stroke-width:1px;stroke-linecap:butt;stroke-linejoin:miter;stroke-opacity:1" />
<path d="M 745.07854,174.08377 L 752.59162,173.90052 L 766.33508,233.82199 L 763.40315,252.69634 L 745.07854,174.08377 z" id="path2980" style="fill:#f1b517;fill-opacity:1;fill-rule:evenodd;stroke:#000000;stroke-width:1px;stroke-linecap:butt;stroke-linejoin:miter;stroke-opacity:1" />
<path d="M 751.49215,235.8377 L 728.40314,171.51832 L 737.01571,170.96859 L 763.95288,249.58115 L 751.49215,235.8377 z" id="path2978" style="fill:#f1b517;fill-opacity:1;fill-rule:evenodd;stroke:#000000;stroke-width:1px;stroke-linecap:butt;stroke-linejoin:miter;stroke-opacity:1" />
<path d="M 717.59162,134.86911 L 727.12042,179.58115 L 734.81675,179.58115 L 717.59162,134.86911 z" id="path2972" style="fill:#fff;fill-opacity:1;fill-rule:evenodd;stroke:#000000;stroke-width:1px;stroke-linecap:butt;stroke-linejoin:miter;stroke-opacity:1" />
<path d="M 737.19896,134.13612 L 742.32985,180.31413 L 747.82723,179.94764 L 737.19896,134.13612 z" id="path2974" style="fill:#fff;fill-opacity:1;fill-rule:evenodd;stroke:#000000;stroke-width:1px;stroke-linecap:butt;stroke-linejoin:miter;stroke-opacity:1" />
</g>
<g transform="translate(-520,0)" id="Flags">
<path d="M 732.81159,217.85861 L 671.30897,148.26448 C 652.10004,164.03031 655.66882,192.9795 655.66882,192.9795 L 725.35394,249.65173 L 732.81159,217.85861 z" id="path3038" style="fill:#0a328c;fill-opacity:1;fill-rule:evenodd;stroke:#000000;stroke-width:1px;stroke-linecap:butt;stroke-linejoin:miter;stroke-opacity:1" />
<path d="M 768.37317,256.15906 L 722.74786,208.25311 C 703.4585,208.94697 718.76442,238.79662 719.73582,242.54347 L 768.37317,285.6595 L 768.37317,256.15906 z" id="path3019" style="fill:#d20014;fill-opacity:1;fill-rule:evenodd;stroke:#000000;stroke-width:1px;stroke-linecap:butt;stroke-linejoin:miter;stroke-opacity:1" />
<g id="g2996">
<path d="M 764.48979,247.92378 L 670.15953,143.22878 L 666.47814,145.92442 L 766.30384,260.88246 L 764.48979,247.92378 z" id="path2990" style="fill:#f1b517;fill-opacity:1;fill-rule:evenodd;stroke:#000000;stroke-width:1px;stroke-linecap:butt;stroke-linejoin:miter;stroke-opacity:1" />
<path d="M 664.7091,136.51503 L 662.63835,134.03014 L 662.84543,129.06035 L 643.38043,116.22173 L 652.07755,136.51503 L 658.70394,137.75748 L 660.77468,140.24237 L 664.7091,136.51503 z" id="path2992" style="fill:#f1b517;fill-opacity:1;fill-rule:evenodd;stroke:#000000;stroke-width:1px;stroke-linecap:butt;stroke-linejoin:miter;stroke-opacity:1" />
<path d="M 654.76952,143.96971 C 658.08271,139.82822 662.01713,135.68674 669.05766,131.75232 L 674.4416,139.82822 L 662.84543,149.97487 L 654.76952,143.96971 z" id="path2994" style="fill:#f1b517;fill-opacity:1;fill-rule:evenodd;stroke:#000000;stroke-width:1px;stroke-linecap:butt;stroke-linejoin:miter;stroke-opacity:1" />
</g>
<path d="M 705.94102,236.30061 L 628.67258,172.68662 C 615.44379,186.64028 626.44244,229.72435 626.44244,229.72435 L 701.96412,272.13172 L 705.94102,236.30061 z" id="path3042" style="fill:#0a328c;fill-opacity:1;fill-rule:evenodd;stroke:#000000;stroke-width:1px;stroke-linecap:butt;stroke-linejoin:miter;stroke-opacity:1" />
<path d="M 770.01498,287.83835 L 706.45399,235.06355 C 684.7472,238.22095 701.81145,271.3331 703.1057,274.98102 L 770.23106,312.7127 L 770.01498,287.83835 z" id="path3034" style="fill:#d20014;fill-opacity:1;fill-rule:evenodd;stroke:#000000;stroke-width:1px;stroke-linecap:butt;stroke-linejoin:miter;stroke-opacity:1" />
<g transform="matrix(0.9848077,-0.1736483,0.1736483,0.9848077,-54.790605,145.56389)" id="g3003">
<path d="M 786.93684,272.4 L 670.15953,143.22878 L 666.47814,145.92442 L 788.33536,286.02883 L 786.93684,272.4 z" id="path3005" style="fill:#f1b517;fill-opacity:1;fill-rule:evenodd;stroke:#000000;stroke-width:1px;stroke-linecap:butt;stroke-linejoin:miter;stroke-opacity:1" />
<path d="M 664.7091,136.51503 L 662.63835,134.03014 L 662.84543,129.06035 L 643.38043,116.22173 L 652.07755,136.51503 L 658.70394,137.75748 L 660.77468,140.24237 L 664.7091,136.51503 z" id="path3007" style="fill:#f1b517;fill-opacity:1;fill-rule:evenodd;stroke:#000000;stroke-width:1px;stroke-linecap:butt;stroke-linejoin:miter;stroke-opacity:1" />
<path d="M 654.76952,143.96971 C 658.08271,139.82822 662.01713,135.68674 669.05766,131.75232 L 674.4416,139.82822 L 662.84543,149.97487 L 654.76952,143.96971 z" id="path3009" style="fill:#f1b517;fill-opacity:1;fill-rule:evenodd;stroke:#000000;stroke-width:1px;stroke-linecap:butt;stroke-linejoin:miter;stroke-opacity:1" />
</g>
<path d="M 700.40955,275.20256 C 699.38443,274.94629 600.82038,216.99085 600.82038,216.99085 C 593.64458,229.5485 600.13425,247.76641 603.27994,250.59981 C 603.46222,258.96118 600.03944,263.45781 607.08014,280.92037 C 609.15665,292.27428 614.22473,302.7346 621.60207,308.94765 C 630.58976,344.71865 665.82329,347.12121 679.3947,318.0011 L 700.40955,275.20256 z" id="path3044" style="fill:#0a328c;fill-opacity:1;fill-rule:evenodd;stroke:#000000;stroke-width:1px;stroke-linecap:butt;stroke-linejoin:miter;stroke-opacity:1" />
<path d="M 765.63819,313.45041 L 698.15212,272.45083 C 676.44533,275.60823 698.61218,317.35555 699.90643,321.00347 L 765.06925,344.99739 L 765.63819,313.45041 z" id="path3036" style="fill:#d20014;fill-opacity:1;fill-rule:evenodd;stroke:#000000;stroke-width:1px;stroke-linecap:butt;stroke-linejoin:miter;stroke-opacity:1" />
<g transform="matrix(0.9455187,-0.3255682,0.3255682,0.9455187,-78.456101,297.23336)" id="g3011">
<path d="M 786.93684,272.4 L 670.15953,143.22878 L 666.47814,145.92442 L 788.33536,286.02883 L 786.93684,272.4 z" id="path3013" style="fill:#f1b517;fill-opacity:1;fill-rule:evenodd;stroke:#000000;stroke-width:1px;stroke-linecap:butt;stroke-linejoin:miter;stroke-opacity:1" />
<path d="M 664.7091,136.51503 L 662.63835,134.03014 L 662.84543,129.06035 L 643.38043,116.22173 L 652.07755,136.51503 L 658.70394,137.75748 L 660.77468,140.24237 L 664.7091,136.51503 z" id="path3015" style="fill:#f1b517;fill-opacity:1;fill-rule:evenodd;stroke:#000000;stroke-width:1px;stroke-linecap:butt;stroke-linejoin:miter;stroke-opacity:1" />
<path d="M 654.76952,143.96971 C 658.08271,139.82822 662.01713,135.68674 669.05766,131.75232 L 674.4416,139.82822 L 662.84543,149.97487 L 654.76952,143.96971 z" id="path3017" style="fill:#f1b517;fill-opacity:1;fill-rule:evenodd;stroke:#000000;stroke-width:1px;stroke-linecap:butt;stroke-linejoin:miter;stroke-opacity:1" />
</g>
<g id="g3050">
<path d="M 644.40741,161.63479 C 644.40741,161.63479 647.56922,167.35616 647.56922,167.35616 C 649.52653,166.60335 669.25021,148.08416 669.25021,148.08416 L 683.40309,147.63248 L 687.46827,142.96504 C 677.07946,131.37173 667.2929,144.62122 667.2929,144.62122 L 644.40741,161.63479 z" id="path3048" style="fill:#0a328c;fill-opacity:1;fill-rule:evenodd;stroke:#0a328c;stroke-width:1px;stroke-linecap:butt;stroke-linejoin:miter;stroke-opacity:1" />
<path d="M 655.69959,171.27079 C 656.4524,166.15167 665.78728,153.35385 667.14234,152.90216 C 674.15102,155.08281 680.67044,159.26371 687.7694,142.66391 C 681.59634,150.79428 669.09965,142.51336 669.09965,142.51336 L 663.6794,147.18079 L 663.82997,149.43923 L 647.41866,165.24829 L 655.69959,171.27079 z" id="path3046" style="fill:#d20014;fill-opacity:1;fill-rule:evenodd;stroke:#d20014;stroke-width:1px;stroke-linecap:butt;stroke-linejoin:miter;stroke-opacity:1" />
</g>
<g transform="matrix(0.9876883,-0.1564346,0.1564346,0.9876883,-56.795568,135.1032)" id="g3054">
<path d="M 647.1636,159.6323 C 647.1636,159.6323 647.08476,165.6026 647.08476,165.6026 C 649.04207,164.84979 669.25021,148.08416 669.25021,148.08416 L 683.40309,147.63248 L 686.92793,143.48922 C 679.22465,130.33954 666.59646,144.20604 666.59646,144.20604 L 647.1636,159.6323 z" id="path3056" style="opacity:1;fill:#0a328c;fill-opacity:1;fill-rule:evenodd;stroke:#0a328c;stroke-width:1px;stroke-linecap:butt;stroke-linejoin:miter;stroke-opacity:1" />
<path d="M 656.37247,171.83468 C 656.57756,166.32393 666.21863,151.5929 667.57369,151.14121 C 675.3878,154.97382 681.93816,159.92182 687.7694,142.66391 C 681.59634,150.79428 669.06871,141.74626 669.06871,141.74626 L 663.64846,146.41369 L 663.82997,149.43923 L 647.02703,165.79602 L 656.37247,171.83468 z" id="path3058" style="opacity:1;fill:#d20014;fill-opacity:1;fill-rule:evenodd;stroke:#d20014;stroke-width:1px;stroke-linecap:butt;stroke-linejoin:miter;stroke-opacity:1" />
</g>
<g transform="matrix(0.9563048,-0.2923717,0.2923717,0.9563048,-82.536492,274.17758)" id="g3060">
<path d="M 645.19152,160.61498 C 645.19152,160.61498 646.34123,167.76794 646.34123,167.76794 C 648.29854,167.01513 669.25021,148.08416 669.25021,148.08416 L 683.40309,147.63248 L 687.46827,142.96504 C 680.18748,129.96032 667.2929,144.62122 667.2929,144.62122 L 645.19152,160.61498 z" id="path3062" style="opacity:1;fill:#0a328c;fill-opacity:1;fill-rule:evenodd;stroke:#0a328c;stroke-width:1px;stroke-linecap:butt;stroke-linejoin:miter;stroke-opacity:1" />
<path d="M 656.23518,173.63872 C 656.83208,167.99961 665.56351,152.0259 666.91857,151.57421 C 674.18679,156.51072 680.67044,159.26371 687.7694,142.66391 C 680.60863,149.39021 669.09965,142.51336 669.09965,142.51336 L 663.6794,147.18079 L 663.82997,149.43923 L 646.80238,167.26406 L 656.23518,173.63872 z" id="path3064" style="opacity:1;fill:#d20014;fill-opacity:1;fill-rule:evenodd;stroke:#d20014;stroke-width:1px;stroke-linecap:butt;stroke-linejoin:miter;stroke-opacity:1" />
</g>
</g>
<path d="M 233.1752,337.2782 L 195.20453,325.07335 L 178.66017,295.78169 L 120.07687,292.79828 L 122.11143,314.76618 L 172.01573,324.66778 L 176.76164,333.4828 L 234.12488,350.028 L 233.1752,337.2782 z" id="Cannon-base" style="fill:#f1b517;fill-opacity:1;fill-rule:evenodd;stroke:#000000;stroke-width:1px;stroke-linecap:butt;stroke-linejoin:miter;stroke-opacity:1" />
<g transform="translate(-520,0)" id="Cannon-Loader">
<path d="M 713.52004,345.46096 L 653.56131,254.04732 L 650.61862,256.3416 L 710.10358,348.13761 L 713.52004,345.46096 z" id="path4136" style="fill:#503200;fill-opacity:1;fill-rule:evenodd;stroke:#000000;stroke-width:1px;stroke-linecap:butt;stroke-linejoin:miter;stroke-opacity:1" />
<path d="M 659.14088,257.63898 L 652.73963,246.53537 C 651.54135,244.48329 649.72154,243.802 647.04753,245.26262 C 644.44391,246.68479 644.69699,249.49531 645.75748,251.52262 L 651.67574,261.84724 L 659.14088,257.63898 z" id="path4138" style="opacity:1;fill:#fff;fill-opacity:1;fill-rule:evenodd;stroke:#000000;stroke-width:1px;stroke-linecap:butt;stroke-linejoin:miter;stroke-opacity:1" />
</g>
<g transform="translate(-520,0)" id="Cannn-main">
<g id="g4037">
<path d="M 720.64279,289.00969 L 599.65323,276.26363 L 596.71183,294.5003 L 717.11311,307.05028 L 720.64279,289.00969 z" id="path4012" style="opacity:1;fill:#f1b517;fill-opacity:1;fill-rule:evenodd;stroke:#000000;stroke-width:1px;stroke-linecap:butt;stroke-linejoin:miter;stroke-opacity:1" />
<path d="M 597.4962,271.55739 L 594.35872,296.85342 L 599.45714,296.85342 L 602.98682,273.71442 L 597.4962,271.55739 z" id="path4006" style="opacity:1;fill:#f1b517;fill-opacity:1;fill-rule:evenodd;stroke:#000000;stroke-width:1px;stroke-linecap:butt;stroke-linejoin:miter;stroke-opacity:1" />
<path d="M 617.69381,275.67535 L 616.32116,298.42217 L 619.45865,298.81436 L 622.00786,278.61675 L 617.69381,275.67535 z" id="path4008" style="opacity:1;fill:#f1b517;fill-opacity:1;fill-rule:evenodd;stroke:#000000;stroke-width:1px;stroke-linecap:butt;stroke-linejoin:miter;stroke-opacity:1" />
<path d="M 699.6608,285.48001 L 696.71941,306.85418 L 702.6022,306.65808 L 704.95532,285.48001 L 699.6608,285.48001 z" id="path4010" style="opacity:1;fill:#f1b517;fill-opacity:1;fill-rule:evenodd;stroke:#000000;stroke-width:1px;stroke-linecap:butt;stroke-linejoin:miter;stroke-opacity:1" />
<path d="M 717.6875,286.0625 L 713.5,310.78125 L 720.15625,311.78125 L 722.0625,298.78125 C 722.59745,301.39331 724.91801,303.37501 727.6875,303.375 C 730.8526,303.375 733.43753,300.79012 733.4375,297.625 C 733.4375,294.4599 730.85257,291.90624 727.6875,291.90625 C 725.48677,291.90625 723.4902,293.24389 722.625,295.73587 L 723.875,286.46875 L 717.6875,286.0625 z" id="path4020" style="opacity:1;fill:#f1b517;fill-opacity:1;fill-rule:evenodd;stroke:#000000;stroke-width:1px;stroke-linecap:butt;stroke-linejoin:miter;stroke-opacity:1" />
</g>
<g id="g3987">
<g id="g3965" style="opacity:1">
<g id="g3953">
<g id="g3943">
<path d="M 674.02084,290.07663 L 657.38177,309.48887 L 659.323,311.84607 L 680.67647,296.73226 L 674.02084,290.07663 z" id="path3891" style="opacity:1;fill:#f1b517;fill-opacity:1;fill-rule:evenodd;stroke:#000000;stroke-width:1px;stroke-linecap:butt;stroke-linejoin:miter;stroke-opacity:1" />
<path d="M 635.33501,338.46857 L 651.97408,319.05633 L 650.03285,316.69913 L 628.67938,331.81294 L 635.33501,338.46857 z" id="use3897" style="opacity:1;fill:#f1b517;fill-opacity:1;fill-rule:evenodd;stroke:#000000;stroke-width:1px;stroke-linecap:butt;stroke-linejoin:miter;stroke-opacity:1" />
<path d="M 678.87389,333.61552 L 658.6297,317.39243 L 656.54981,318.91768 L 672.49558,339.85517 L 678.87389,333.61552 z" id="path3909" style="opacity:1;fill:#f1b517;fill-opacity:1;fill-rule:evenodd;stroke:#000000;stroke-width:1px;stroke-linecap:butt;stroke-linejoin:miter;stroke-opacity:1" />
<path d="M 628.9567,296.17762 L 649.47821,311.84607 L 651.97407,309.90484 L 635.88965,288.96735 L 628.9567,296.17762 z" id="path3911" style="opacity:1;fill:#f1b517;fill-opacity:1;fill-rule:evenodd;stroke:#000000;stroke-width:1px;stroke-linecap:butt;stroke-linejoin:miter;stroke-opacity:1" />
<path d="M 651.28693,283.24925 L 653.24786,308.74137 L 656.00998,308.61953 L 662.50198,283.80389 L 651.28693,283.24925 z" id="path3927" style="opacity:1;fill:#f1b517;fill-opacity:1;fill-rule:evenodd;stroke:#000000;stroke-width:1px;stroke-linecap:butt;stroke-linejoin:miter;stroke-opacity:1" />
<path d="M 658.01152,345.09985 L 656.0506,319.60773 L 653.01115,319.31359 L 649.29233,345.09985 L 658.01152,345.09985 z" id="path3929" style="opacity:1;fill:#f1b517;fill-opacity:1;fill-rule:evenodd;stroke:#000000;stroke-width:1px;stroke-linecap:butt;stroke-linejoin:miter;stroke-opacity:1" />
<path d="M 685.22788,310.74293 L 659.44162,313.58628 L 659.04943,316.13549 L 685.12983,319.66517 L 685.22788,310.74293 z" id="path3931" style="opacity:1;fill:#f1b517;fill-opacity:1;fill-rule:evenodd;stroke:#000000;stroke-width:1px;stroke-linecap:butt;stroke-linejoin:miter;stroke-opacity:1" />
<path d="M 623.87448,319.56712 L 649.04867,315.4422 L 649.57951,313.41397 L 623.53972,310.3983 L 623.87448,319.56712 z" id="path3933" style="opacity:1;fill:#f1b517;fill-opacity:1;fill-rule:evenodd;stroke:#000000;stroke-width:1px;stroke-linecap:butt;stroke-linejoin:miter;stroke-opacity:1" />
</g>
<path d="M 658.86138,314.60626 C 658.86138,316.93455 656.97392,318.82201 654.64563,318.82201 C 652.31734,318.82201 650.42988,316.93455 650.42988,314.60626 C 650.42988,312.27797 652.31734,310.39051 654.64563,310.39051 C 656.97392,310.39051 658.86138,312.27797 658.86138,314.60626 z" transform="matrix(1.620159,0,0,1.620159,-406.09929,-196.05698)" id="use3882" style="fill:#f1b517;fill-opacity:1;fill-rule:evenodd;stroke:#000000;stroke-width:0.61722338;stroke-linecap:round;stroke-linejoin:miter;marker:none;marker-start:none;marker-mid:none;marker-end:none;stroke-miterlimit:4;stroke-dasharray:none;stroke-dashoffset:0;stroke-opacity:1;visibility:visible;display:inline;overflow:visible;enable-background:accumulate" />
</g>
<path d="M 690.80636,313.65513 C 690.80636,333.67932 674.55486,349.93073 654.53077,349.93073 C 634.50667,349.93073 618.25517,333.67932 618.25517,313.65513 C 618.25517,293.63104 634.50667,277.37954 654.53077,277.37954 C 674.55486,277.37954 690.80636,293.63104 690.80636,313.65513 z M 683.5597,313.65517 C 683.5597,329.67921 670.55468,342.68416 654.53071,342.68416 C 638.50673,342.68416 625.50172,329.67921 625.50172,313.65517 C 625.50172,297.63119 638.50673,284.62618 654.53071,284.62618 C 670.55468,284.62618 683.5597,297.63119 683.5597,313.65517 z" id="use3874" style="opacity:1;fill:#f1b517;fill-opacity:1;fill-rule:evenodd;stroke:#000000;stroke-width:1;stroke-linecap:round;stroke-linejoin:miter;marker:none;marker-start:none;marker-mid:none;marker-end:none;stroke-miterlimit:4;stroke-dasharray:none;stroke-dashoffset:0;stroke-opacity:1;visibility:visible;display:inline;overflow:visible;enable-background:accumulate" />
</g>
<path d="M 631.86854,295.34566 L 626.18352,290.90858" id="path3979" style="fill:none;fill-rule:evenodd;stroke:#000000;stroke-width:1px;stroke-linecap:butt;stroke-linejoin:miter;stroke-opacity:1" />
<path d="M 672.49559,291.04724 L 677.34865,285.91686" id="path3981" style="fill:none;fill-rule:evenodd;stroke:#000000;stroke-width:1px;stroke-linecap:butt;stroke-linejoin:miter;stroke-opacity:1" />
<path d="M 682.895,336.80467 L 676.93267,331.95161" id="path3983" style="fill:none;fill-rule:evenodd;stroke:#000000;stroke-width:1px;stroke-linecap:butt;stroke-linejoin:miter;stroke-opacity:1" />
<path d="M 631.86854,342.35102 L 636.99891,336.66601" id="path3985" style="fill:none;fill-rule:evenodd;stroke:#000000;stroke-width:1px;stroke-linecap:butt;stroke-linejoin:miter;stroke-opacity:1" />
</g>
</g>
<g transform="translate(-520,0)" id="Axe">
<path d="M 754.03964,277.83067 L 760.25126,310.64513 L 755.18456,313.41129 L 749.73388,278.29996 L 754.03964,277.83067 z" id="path4368" style="fill:#f1b517;fill-opacity:1;fill-rule:evenodd;stroke:#000000;stroke-width:1px;stroke-linecap:butt;stroke-linejoin:miter;stroke-opacity:1" />
<path d="M 750.79091,273.60489 C 747.91101,272.35693 744.16713,274.46886 738.02334,266.40513 C 727.92145,276.00481 737.44735,277.44477 738.9833,286.94845 C 741.83992,288.1653 743.59968,279.57418 751.36689,278.69272 C 752.32686,278.59672 763.72515,277.56046 763.72515,277.56046 C 763.72515,277.56046 760.86386,273.51809 760.86386,273.51809 C 760.86386,273.51809 752.93647,273.73359 750.79091,273.60489 z" id="path4370" style="fill:#fff;fill-opacity:1;fill-rule:evenodd;stroke:#000000;stroke-width:1px;stroke-linecap:butt;stroke-linejoin:miter;stroke-opacity:1" />
<path d="M 754.91877,280.03668 L 753.76681,270.245 C 752.51885,266.78912 748.39099,269.76502 748.39099,271.78095 L 749.44695,280.80465 L 754.91877,280.03668 z" id="path4372" style="fill:#fff;fill-opacity:1;fill-rule:evenodd;stroke:#000000;stroke-width:1px;stroke-linecap:butt;stroke-linejoin:miter;stroke-opacity:1" />
</g>
<g transform="translate(-520,0)" id="Cannon-balls">
<path d="M 685.3163,361.21594 C 685.31838,362.7694 684.49082,364.20575 683.14582,364.98308 C 681.80083,365.76041 680.14314,365.76041 678.79815,364.98308 C 677.45315,364.20575 676.62559,362.7694 676.62767,361.21594 C 676.62559,359.66248 677.45315,358.22613 678.79815,357.4488 C 680.14314,356.67147 681.80083,356.67147 683.14582,357.4488 C 684.49082,358.22613 685.31838,359.66248 685.3163,361.21594 z" transform="matrix(0.9159263,0,0,0.9159263,56.844568,30.233008)" id="path2448" style="opacity:1;fill:#f1b517;fill-opacity:1;fill-rule:evenodd;stroke:#000000;stroke-width:1.09179091;stroke-linecap:round;stroke-linejoin:miter;marker:none;marker-start:none;marker-mid:none;marker-end:none;stroke-miterlimit:4;stroke-dasharray:none;stroke-dashoffset:0;stroke-opacity:1;visibility:visible;display:inline;overflow:visible;enable-background:accumulate" />
<path d="M 685.3163,361.21594 C 685.31838,362.7694 684.49082,364.20575 683.14582,364.98308 C 681.80083,365.76041 680.14314,365.76041 678.79815,364.98308 C 677.45315,364.20575 676.62559,362.7694 676.62767,361.21594 C 676.62559,359.66248 677.45315,358.22613 678.79815,357.4488 C 680.14314,356.67147 681.80083,356.67147 683.14582,357.4488 C 684.49082,358.22613 685.31838,359.66248 685.3163,361.21594 z" transform="matrix(0.9159263,0,0,0.9159263,46.662582,22.766193)" id="path3220" style="opacity:1;fill:#f1b517;fill-opacity:1;fill-rule:evenodd;stroke:#000000;stroke-width:1.09179091;stroke-linecap:round;stroke-linejoin:miter;marker:none;marker-start:none;marker-mid:none;marker-end:none;stroke-miterlimit:4;stroke-dasharray:none;stroke-dashoffset:0;stroke-opacity:1;visibility:visible;display:inline;overflow:visible;enable-background:accumulate" />
<path d="M 685.3163,361.21594 C 685.31838,362.7694 684.49082,364.20575 683.14582,364.98308 C 681.80083,365.76041 680.14314,365.76041 678.79815,364.98308 C 677.45315,364.20575 676.62559,362.7694 676.62767,361.21594 C 676.62559,359.66248 677.45315,358.22613 678.79815,357.4488 C 680.14314,356.67147 681.80083,356.67147 683.14582,357.4488 C 684.49082,358.22613 685.31838,359.66248 685.3163,361.21594 z" transform="matrix(0.9159263,0,0,0.9159263,32.950826,27.653552)" id="path3222" style="opacity:1;fill:#f1b517;fill-opacity:1;fill-rule:evenodd;stroke:#000000;stroke-width:1.09179091;stroke-linecap:round;stroke-linejoin:miter;marker:none;marker-start:none;marker-mid:none;marker-end:none;stroke-miterlimit:4;stroke-dasharray:none;stroke-dashoffset:0;stroke-opacity:1;visibility:visible;display:inline;overflow:visible;enable-background:accumulate" />
<path d="M 685.3163,361.21594 C 685.31838,362.7694 684.49082,364.20575 683.14582,364.98308 C 681.80083,365.76041 680.14314,365.76041 678.79815,364.98308 C 677.45315,364.20575 676.62559,362.7694 676.62767,361.21594 C 676.62559,359.66248 677.45315,358.22613 678.79815,357.4488 C 680.14314,356.67147 681.80083,356.67147 683.14582,357.4488 C 684.49082,358.22613 685.31838,359.66248 685.3163,361.21594 z" transform="matrix(0.9159263,0,0,0.9159263,11.77227,32.405151)" id="path3224" style="opacity:1;fill:#f1b517;fill-opacity:1;fill-rule:evenodd;stroke:#000000;stroke-width:1.09179091;stroke-linecap:round;stroke-linejoin:miter;marker:none;marker-start:none;marker-mid:none;marker-end:none;stroke-miterlimit:4;stroke-dasharray:none;stroke-dashoffset:0;stroke-opacity:1;visibility:visible;display:inline;overflow:visible;enable-background:accumulate" />
<path d="M 685.3163,361.21594 C 685.31838,362.7694 684.49082,364.20575 683.14582,364.98308 C 681.80083,365.76041 680.14314,365.76041 678.79815,364.98308 C 677.45315,364.20575 676.62559,362.7694 676.62767,361.21594 C 676.62559,359.66248 677.45315,358.22613 678.79815,357.4488 C 680.14314,356.67147 681.80083,356.67147 683.14582,357.4488 C 684.49082,358.22613 685.31838,359.66248 685.3163,361.21594 z" transform="matrix(0.9159263,0,0,0.9159263,2.8121118,33.491231)" id="path3226" style="opacity:1;fill:#f1b517;fill-opacity:1;fill-rule:evenodd;stroke:#000000;stroke-width:1.09179091;stroke-linecap:round;stroke-linejoin:miter;marker:none;marker-start:none;marker-mid:none;marker-end:none;stroke-miterlimit:4;stroke-dasharray:none;stroke-dashoffset:0;stroke-opacity:1;visibility:visible;display:inline;overflow:visible;enable-background:accumulate" />
<path d="M 685.3163,361.21594 C 685.31838,362.7694 684.49082,364.20575 683.14582,364.98308 C 681.80083,365.76041 680.14314,365.76041 678.79815,364.98308 C 677.45315,364.20575 676.62559,362.7694 676.62767,361.21594 C 676.62559,359.66248 677.45315,358.22613 678.79815,357.4488 C 680.14314,356.67147 681.80083,356.67147 683.14582,357.4488 C 684.49082,358.22613 685.31838,359.66248 685.3163,361.21594 z" transform="matrix(0.9159263,0,0,0.9159263,-6.0122862,33.49123)" id="path3228" style="opacity:1;fill:#f1b517;fill-opacity:1;fill-rule:evenodd;stroke:#000000;stroke-width:1.09179091;stroke-linecap:round;stroke-linejoin:miter;marker:none;marker-start:none;marker-mid:none;marker-end:none;stroke-miterlimit:4;stroke-dasharray:none;stroke-dashoffset:0;stroke-opacity:1;visibility:visible;display:inline;overflow:visible;enable-background:accumulate" />
<path d="M 685.3163,361.21594 C 685.31838,362.7694 684.49082,364.20575 683.14582,364.98308 C 681.80083,365.76041 680.14314,365.76041 678.79815,364.98308 C 677.45315,364.20575 676.62559,362.7694 676.62767,361.21594 C 676.62559,359.66248 677.45315,358.22613 678.79815,357.4488 C 680.14314,356.67147 681.80083,356.67147 683.14582,357.4488 C 684.49082,358.22613 685.31838,359.66248 685.3163,361.21594 z" transform="matrix(0.9159263,0,0,0.9159263,-14.972444,33.219711)" id="path3230" style="opacity:1;fill:#f1b517;fill-opacity:1;fill-rule:evenodd;stroke:#000000;stroke-width:1.09179091;stroke-linecap:round;stroke-linejoin:miter;marker:none;marker-start:none;marker-mid:none;marker-end:none;stroke-miterlimit:4;stroke-dasharray:none;stroke-dashoffset:0;stroke-opacity:1;visibility:visible;display:inline;overflow:visible;enable-background:accumulate" />
<path d="M 685.3163,361.21594 C 685.31838,362.7694 684.49082,364.20575 683.14582,364.98308 C 681.80083,365.76041 680.14314,365.76041 678.79815,364.98308 C 677.45315,364.20575 676.62559,362.7694 676.62767,361.21594 C 676.62559,359.66248 677.45315,358.22613 678.79815,357.4488 C 680.14314,356.67147 681.80083,356.67147 683.14582,357.4488 C 684.49082,358.22613 685.31838,359.66248 685.3163,361.21594 z" transform="matrix(0.9159263,0,0,0.9159263,-10.628125,26.160192)" id="path3232" style="opacity:1;fill:#f1b517;fill-opacity:1;fill-rule:evenodd;stroke:#000000;stroke-width:1.09179091;stroke-linecap:round;stroke-linejoin:miter;marker:none;marker-start:none;marker-mid:none;marker-end:none;stroke-miterlimit:4;stroke-dasharray:none;stroke-dashoffset:0;stroke-opacity:1;visibility:visible;display:inline;overflow:visible;enable-background:accumulate" />
<path d="M 685.3163,361.21594 C 685.31838,362.7694 684.49082,364.20575 683.14582,364.98308 C 681.80083,365.76041 680.14314,365.76041 678.79815,364.98308 C 677.45315,364.20575 676.62559,362.7694 676.62767,361.21594 C 676.62559,359.66248 677.45315,358.22613 678.79815,357.4488 C 680.14314,356.67147 681.80083,356.67147 683.14582,357.4488 C 684.49082,358.22613 685.31838,359.66248 685.3163,361.21594 z" transform="matrix(0.9159263,0,0,0.9159263,-1.9394871,26.567472)" id="path3234" style="opacity:1;fill:#f1b517;fill-opacity:1;fill-rule:evenodd;stroke:#000000;stroke-width:1.09179091;stroke-linecap:round;stroke-linejoin:miter;marker:none;marker-start:none;marker-mid:none;marker-end:none;stroke-miterlimit:4;stroke-dasharray:none;stroke-dashoffset:0;stroke-opacity:1;visibility:visible;display:inline;overflow:visible;enable-background:accumulate" />
<path d="M 685.3163,361.21594 C 685.31838,362.7694 684.49082,364.20575 683.14582,364.98308 C 681.80083,365.76041 680.14314,365.76041 678.79815,364.98308 C 677.45315,364.20575 676.62559,362.7694 676.62767,361.21594 C 676.62559,359.66248 677.45315,358.22613 678.79815,357.4488 C 680.14314,356.67147 681.80083,356.67147 683.14582,357.4488 C 684.49082,358.22613 685.31838,359.66248 685.3163,361.21594 z" transform="matrix(0.9159263,0,0,0.9159263,6.341871,25.481392)" id="path3236" style="opacity:1;fill:#f1b517;fill-opacity:1;fill-rule:evenodd;stroke:#000000;stroke-width:1.09179091;stroke-linecap:round;stroke-linejoin:miter;marker:none;marker-start:none;marker-mid:none;marker-end:none;stroke-miterlimit:4;stroke-dasharray:none;stroke-dashoffset:0;stroke-opacity:1;visibility:visible;display:inline;overflow:visible;enable-background:accumulate" />
<path d="M 685.3163,361.21594 C 685.31838,362.7694 684.49082,364.20575 683.14582,364.98308 C 681.80083,365.76041 680.14314,365.76041 678.79815,364.98308 C 677.45315,364.20575 676.62559,362.7694 676.62767,361.21594 C 676.62559,359.66248 677.45315,358.22613 678.79815,357.4488 C 680.14314,356.67147 681.80083,356.67147 683.14582,357.4488 C 684.49082,358.22613 685.31838,359.66248 685.3163,361.21594 z" transform="matrix(0.9159263,0,0,0.9159263,2.133312,18.557634)" id="path3238" style="opacity:1;fill:#f1b517;fill-opacity:1;fill-rule:evenodd;stroke:#000000;stroke-width:1.09179091;stroke-linecap:round;stroke-linejoin:miter;marker:none;marker-start:none;marker-mid:none;marker-end:none;stroke-miterlimit:4;stroke-dasharray:none;stroke-dashoffset:0;stroke-opacity:1;visibility:visible;display:inline;overflow:visible;enable-background:accumulate" />
<path d="M 685.3163,361.21594 C 685.31838,362.7694 684.49082,364.20575 683.14582,364.98308 C 681.80083,365.76041 680.14314,365.76041 678.79815,364.98308 C 677.45315,364.20575 676.62559,362.7694 676.62767,361.21594 C 676.62559,359.66248 677.45315,358.22613 678.79815,357.4488 C 680.14314,356.67147 681.80083,356.67147 683.14582,357.4488 C 684.49082,358.22613 685.31838,359.66248 685.3163,361.21594 z" transform="matrix(0.9159263,0,0,0.9159263,-6.0122862,18.421874)" id="path3240" style="opacity:1;fill:#f1b517;fill-opacity:1;fill-rule:evenodd;stroke:#000000;stroke-width:1.09179091;stroke-linecap:round;stroke-linejoin:miter;marker:none;marker-start:none;marker-mid:none;marker-end:none;stroke-miterlimit:4;stroke-dasharray:none;stroke-dashoffset:0;stroke-opacity:1;visibility:visible;display:inline;overflow:visible;enable-background:accumulate" />
</g>
<g transform="translate(-520,0)" id="Gunpowder">
<path d="M 689.92798,334.72653 C 686.50512,333.29263 686.53817,341.25922 686.53817,341.25922 L 691.93133,341.31749 C 694.29032,342.42761 696.18792,346.01492 694.68377,347.7757 C 693.44011,349.23154 682.97382,345.31697 682.27134,347.56846 C 684.12153,358.39209 697.95832,362.55681 702.96513,357.82193 C 707.86204,353.19099 709.10207,340.83154 693.19041,337.5937 L 689.92798,334.72653 z" id="path3256" style="fill:#fff;fill-opacity:1;fill-rule:evenodd;stroke:#000000;stroke-width:1px;stroke-linecap:butt;stroke-linejoin:miter;stroke-opacity:1" />
<path d="M 693.12848,337.66642 L 691.55581,341.22804" id="path3258" style="fill:none;fill-rule:evenodd;stroke:#000000;stroke-width:1px;stroke-linecap:butt;stroke-linejoin:miter;stroke-opacity:1" />
</g>
<g transform="translate(-520,0)" id="Small-flag">
<path d="M 585.95606,338.77654 L 580.77552,316.20418" id="path3418" style="fill:none;fill-rule:evenodd;stroke:#000000;stroke-width:1px;stroke-linecap:butt;stroke-linejoin:miter;stroke-opacity:1" />
<path d="M 592.24671,337.4814 L 584.29089,319.90457" id="path3420" style="fill:none;fill-rule:evenodd;stroke:#000000;stroke-width:1px;stroke-linecap:butt;stroke-linejoin:miter;stroke-opacity:1" />
<path d="M 605.93814,332.85592 L 587.99127,322.86488" id="path3422" style="fill:none;fill-rule:evenodd;stroke:#000000;stroke-width:1px;stroke-linecap:butt;stroke-linejoin:miter;stroke-opacity:1" />
<path d="M 613.70895,330.82071 L 580.40548,315.83415" id="path3424" style="fill:none;fill-rule:evenodd;stroke:#000000;stroke-width:1px;stroke-linecap:butt;stroke-linejoin:miter;stroke-opacity:1" />
<path d="M 560.53125,299.51833 C 560.53125,299.51833 548.41004,299.3202 546.24834,300.19847 C 545.37609,300.55285 549.29714,304.79506 548.48308,306.41688 C 545.45475,312.45009 524.84972,311.62336 523.2208,310.30338 C 520.43395,308.04508 542.41192,306.10763 542.55616,304.57079 C 542.72173,302.8067 539.30599,298.17825 539.83561,295.34034 C 540.52277,291.65826 549.45471,290.28788 549.45471,290.28788 L 560.53125,299.51833 z" id="path3430" style="fill:#d20014;fill-opacity:1;fill-rule:evenodd;stroke:#d20014;stroke-width:1px;stroke-linecap:butt;stroke-linejoin:miter;stroke-opacity:1" />
<path d="M 576.76299,310.8779 L 549.32224,287.34118 C 549.32224,287.34118 548.11335,286.0133 547.10201,287.15616 C 546.11171,288.27524 547.47205,289.56141 547.47205,289.56141 L 575.78,313.79893 L 576.76299,310.8779 z" id="path3426" style="fill:#503200;fill-opacity:1;fill-rule:evenodd;stroke:#000000;stroke-width:1px;stroke-linecap:butt;stroke-linejoin:miter;stroke-opacity:1" />
<path d="M 603.18564,334.10823 C 602.69983,333.62242 580.83824,313.99557 580.83824,313.99557 L 579.3808,308.26297 C 579.3808,308.26297 576.0044,310.63374 574.76557,311.85798 C 573.52675,313.08223 571.60779,316.42463 571.60779,316.42463 L 577.72903,316.71612 L 597.0644,335.07986 L 603.18564,334.10823 z" id="path3428" style="opacity:1;fill:#f1b517;fill-opacity:1;fill-rule:evenodd;stroke:#000000;stroke-width:1px;stroke-linecap:butt;stroke-linejoin:miter;stroke-opacity:1" />
</g>
<path d="M 204.83327,307.09702 L 204.93465,316.22187 C 202.0534,317.24425 202.49293,319.48296 202.58587,322.73598 L 202.68725,349.33323 C 201.66487,351.09916 198.50479,351.1814 197.01769,352.56485 C 195.5306,353.9483 195.71649,356.63296 202.50136,358.39889 L 207.74814,358.59321 C 215.74128,356.78081 217.39103,354.03699 213.38284,352.48982 C 211.2507,351.66681 208.44522,350.68507 207.37637,349.38386 L 207.55382,343.04719 L 212.74141,343.24152 C 214.13556,343.24152 216.78849,339.60865 216.88143,336.63446 L 216.90675,322.86268 C 216.72086,315.05543 211.06868,314.17723 209.48864,314.27017 L 209.59846,307.08014 L 204.83327,307.09702 z M 213.60289,322.3164 C 213.69583,320.08576 210.61476,318.09677 209.37396,318.041 C 208.13317,317.98524 205.42386,320.64342 205.33092,322.87406 L 205.33092,328.45067 C 205.51681,330.49543 207.09255,337.42158 210.25692,337.93091 C 211.75591,338.17218 213.69583,335.70027 213.69583,333.65551 L 213.60289,322.3164 z" id="Trumpet" style="fill:#f1b517;fill-opacity:1;fill-rule:evenodd;stroke:#000000;stroke-width:1px;stroke-linecap:butt;stroke-linejoin:miter;stroke-opacity:1" />
<g transform="translate(-520,0)" id="Palm-leaves">
<path d="M 773.51765,53.596901 C 731.76231,10.275737 698.87999,31.414377 691.05086,37.416707 C 696.22616,38.464319 700.87135,35.122986 703.27535,34.738347 C 701.76875,36.709482 698.61901,41.592241 698.61901,41.592241 C 698.61901,41.592241 711.53001,35.273923 712.97241,35.850882 C 711.11142,37.38944 709.05785,41.070299 709.05785,41.070299 C 710.01945,41.454939 717.28026,35.177139 718.71377,35.067969 C 716.50209,37.664286 715.81558,43.583848 715.81558,43.583848 L 722.10639,40.548357 C 723.74111,41.750356 721.65198,44.061551 723.07336,43.940615 C 733.52931,43.050989 748.23113,53.848171 750.25049,57.165688" id="path3811" style="fill:#016a16;fill-opacity:1;fill-rule:evenodd;stroke:#000000;stroke-width:1px;stroke-linecap:butt;stroke-linejoin:miter;stroke-opacity:1" />
<path d="M 763.17941,61.528701 C 758.82771,51.193413 679.34553,33.626897 663.36229,62.888607 C 669.61786,64.520495 675.60145,57.448982 675.60145,57.448982 L 675.05748,63.976532 L 685.66475,55.545113 L 681.85702,64.248513 L 690.28843,57.177001 L 690.01645,64.248513 L 700.35174,52.553319 L 698.99184,59.352851 L 708.2392,55.273132 L 707.15127,60.984738" id="path3813" style="fill:#016a16;fill-opacity:1;fill-rule:evenodd;stroke:#000000;stroke-width:1px;stroke-linecap:butt;stroke-linejoin:miter;stroke-opacity:1" />
<path d="M 759.64366,63.160588 C 739.24507,49.017563 707.69524,58.536907 707.69524,58.536907 C 687.56863,70.232101 676.84069,68.122245 674.24154,89.814752 C 676.14541,88.998808 681.58503,82.199277 681.58503,82.199277 L 685.66475,90.630695 L 687.02466,78.66352 L 690.28843,87.910883 L 695.1841,72.679932 L 696.27202,83.01522 L 703.8875,72.679932 L 707.42325,75.671726 L 710.68703,67.78427 L 713.67882,72.951914 C 713.67882,72.951914 718.84647,69.688138 721.83826,71.592007 L 727.54987,64.792476 L 728.90977,69.688139 L 733.80544,63.704551 L 735.70931,68.056251 L 740.60497,63.43257 L 740.33299,66.696345 L 757.19582,66.968326" id="path3815" style="fill:#016a16;fill-opacity:1;fill-rule:evenodd;stroke:#000000;stroke-width:1px;stroke-linecap:butt;stroke-linejoin:miter;stroke-opacity:1" />
<path d="M 755.02948,65.611586 C 740.81343,65.336437 700.02938,81.284971 689.482,97.977356 C 693.68205,95.545875 696.27203,94.438431 696.27203,94.438431 L 698.35299,101.14624 L 700.89571,94.438431 L 701.43967,99.606075 C 702.99885,95.570553 704.76032,95.115139 707.69524,99.334094 C 707.69524,99.334094 708.78316,93.078525 708.78316,93.078525 L 710.41505,99.062113 L 713.13486,92.534563 C 713.13486,92.534563 714.8458,99.609243 715.85468,99.334094 C 715.85468,99.334094 720.36447,87.101273 722.38223,86.550975 L 722.92619,94.16645 L 725.646,86.550975 L 728.09383,92.262581 L 728.6378,84.103144 L 731.35761,90.358713 C 731.35761,90.358713 732.78389,84.207532 734.89337,83.015219 L 738.97308,86.822956 L 757.13751,73.294785" id="path2477" style="fill:#016a16;fill-opacity:1;fill-rule:evenodd;stroke:#000000;stroke-width:1px;stroke-linecap:butt;stroke-linejoin:miter;stroke-opacity:1" />
<path d="M 757.76094,69.093036 C 738.82378,76.616018 721.88678,103.53706 723.18385,114.95124 C 731.59864,104.12737 729.78631,105.61777 733.5478,118.0696 C 733.5478,118.0696 734.97076,107.1749 736.39753,105.87783 L 738.86736,113.94236 L 739.78452,103.39497 L 742.31078,103.51594 L 741.66224,96.900901 L 745.42373,99.884152 C 744.5452,96.101795 743.60784,94.825596 747.49904,91.582931 C 747.49904,91.582931 742.57019,92.231463 746.46139,83.022296 L 750.09317,86.654081 C 750.09317,86.654081 749.44463,82.633177 750.7417,81.076698 L 764.10148,76.277554" id="path2479" style="fill:#016a16;fill-opacity:1;fill-rule:evenodd;stroke:#000000;stroke-width:1px;stroke-linecap:butt;stroke-linejoin:miter;stroke-opacity:1" />
<g id="g2485">
<path d="M 759.59526,71.110797 L 752.44138,85.235123 L 756.11004,86.33572 L 747.85556,92.755868 L 754.82601,92.022137 C 754.82601,92.022137 744.18691,96.057654 742.90288,106.88019 L 753.72541,101.92751 C 753.72541,101.92751 744.55377,111.64945 743.26974,117.5193 L 749.50646,111.83288 C 749.50646,111.83288 743.45318,118.61989 744.37034,128.89213 L 748.95616,123.57258 C 747.85556,136.04601 748.22243,137.1466 753.72541,146.68511 C 753.72541,146.68511 752.25795,132.01049 753.90885,130.17616 L 766.01541,143.19989 L 759.2284,124.67318 C 759.2284,124.67318 766.74914,136.41288 771.33496,135.31228 L 761.79646,120.27079 L 771.15153,128.1584 L 760.51243,111.64945 L 770.4178,114.76781 C 770.4178,114.76781 763.26392,105.41273 763.81422,99.542882 L 770.60123,107.24706 C 770.60123,107.24706 768.03317,98.442285 768.7669,95.874226 L 772.25213,96.607957 L 765.46511,88.536914 L 770.05093,87.619749 L 769.50064,82.300198 L 772.80243,81.199601 L 772.61899,75.329751" id="path2481" style="fill:#016a16;fill-opacity:1;fill-rule:evenodd;stroke:#000000;stroke-width:1px;stroke-linecap:butt;stroke-linejoin:miter;stroke-opacity:1" />
<path d="M 766.74914,75.329751 C 755.00944,91.838704 761.06273,117.33586 754.09228,130.35959" id="path2483" style="fill:none;fill-rule:evenodd;stroke:#000000;stroke-width:1px;stroke-linecap:butt;stroke-linejoin:miter;stroke-opacity:1" />
</g>
</g>
<g id="Chain">
<path d="M 181.73488,366.29252 C 181.73488,364.52819 177.60126,365.28704 177.60126,363.22241 C 177.60126,360.92827 183.90539,362.61465 184.77633,364.63301 C 188.32401,361.31013 189.85347,363.739 192.02677,364.74287 C 195.12172,359.97439 198.94843,360.15253 202.68272,363.64432 C 204.84185,361.17547 210.26415,361.99163 212.13026,364.74287 C 215.70494,361.06863 218.87943,361.9739 221.35809,364.63301 C 222.35512,362.70128 223.81838,363.12392 224.87345,364.52316 C 226.77807,361.02072 231.55362,362.07218 233.56369,364.38411 C 235.3509,362.34792 237.18162,363.93814 239.55371,365.44233 C 241.1555,363.88864 243.73934,364.18153 243.73934,365.72628 C 243.73934,367.33676 240.36302,366.76981 240.36302,368.36809 C 240.36302,369.79401 242.82601,369.07306 242.82601,370.87668 C 242.82601,372.2965 239.17029,372.82877 238.60534,370.56519 C 237.36725,373.01641 232.89447,372.07524 232.45346,369.79621 C 230.96539,371.65829 227.62902,372.22494 225.75229,369.46664 C 224.21108,370.76636 222.36674,370.9524 221.51995,369.64018 C 218.73894,372.73936 214.05123,372.10247 212.43646,368.68597 C 212.43646,368.68597 210.85817,368.7555 210.85817,368.7555 C 208.12637,372.6004 203.85689,370.82409 202.68272,368.69765 C 198.09676,372.12713 195.35705,371.04708 192.79575,368.80751 C 189.8532,372.52385 185.36951,372.26447 184.33691,368.80751 C 182.35673,370.30315 178.22535,370.65517 178.22535,368.90568 C 178.22535,367.22947 181.73488,367.83887 181.73488,366.29252 z M 190.63352,367.12739 C 190.63352,367.92569 189.58521,368.57358 188.29354,368.57358 C 187.00187,368.57358 185.95356,367.92569 185.95356,367.12739 C 185.95356,366.3291 187.00187,365.68121 188.29354,365.68121 C 189.58521,365.68121 190.63352,366.3291 190.63352,367.12739 z M 200.42361,365.91261 C 200.42361,366.87352 199.16177,367.65338 197.607,367.65338 C 196.05223,367.65338 194.79039,366.87352 194.79039,365.91261 C 194.79039,364.95172 196.05223,364.17186 197.607,364.17186 C 199.16177,364.17186 200.42361,364.95172 200.42361,365.91261 z M 219.65041,367.01169 C 219.65041,367.98443 218.50854,368.7739 217.10159,368.7739 C 215.69465,368.7739 214.55278,367.98443 214.55278,367.01169 C 214.55278,366.03896 215.69465,365.2495 217.10159,365.2495 C 218.50854,365.2495 219.65041,366.03896 219.65041,367.01169 z M 209.41337,366.54892 C 209.41337,367.77821 208.29653,368.77588 206.92043,368.77588 C 205.54433,368.77588 204.4275,367.77821 204.4275,366.54892 C 204.4275,365.31966 205.54433,364.32199 206.92043,364.32199 C 208.29653,364.32199 209.41337,365.31966 209.41337,366.54892 z M 231.24668,366.60676 C 231.24668,367.70566 230.24831,368.59751 229.01817,368.59751 C 227.78802,368.59751 226.78965,367.70566 226.78965,366.60676 C 226.78965,365.50788 227.78802,364.61603 229.01817,364.61603 C 230.24831,364.61603 231.24668,365.50788 231.24668,366.60676 z M 224.55789,367.06953 C 224.55789,367.77969 223.91269,368.35604 223.11772,368.35604 C 222.32274,368.35604 221.67755,367.77969 221.67755,367.06953 C 221.67755,366.35938 222.32274,365.78302 223.11772,365.78302 C 223.91269,365.78302 224.55789,366.35938 224.55789,367.06953 z M 237.58305,367.59018 C 237.58305,368.61038 236.85586,369.43837 235.95986,369.43837 C 235.06386,369.43837 234.33668,368.61038 234.33668,367.59018 C 234.33668,366.56998 235.06386,365.74199 235.95986,365.74199 C 236.85586,365.74199 237.58305,366.56998 237.58305,367.59018 z" id="path2500" style="fill:#f1b517;fill-opacity:1;fill-rule:evenodd;stroke:#000000;stroke-width:1px;stroke-linecap:butt;stroke-linejoin:miter;stroke-opacity:1" />
</g>
</g>
<use transform="matrix(-1,0,0,1,508.23774,0)" id="use3466" x="0" y="0" width="509" height="420" xlink:href="#g3357" />
</g>
<g id="Palm-trunk">
<path d="M 259.58473,302.43101 C 259.58473,302.43101 265.97753,246.99254 265.96211,223.1299 C 265.94996,204.35095 261.58473,162.72944 261.58473,162.72944 L 243.20735,162.72944 C 243.20735,162.72944 240.41065,204.1435 240.82997,222.87366 C 241.36434,246.74303 247.20735,302.43101 247.20735,302.43101 L 259.58473,302.43101 z" id="path3304" style="fill:#f1b517;fill-opacity:1;fill-rule:evenodd;stroke:#000000;stroke-width:1px;stroke-linecap:butt;stroke-linejoin:miter;stroke-opacity:1" />
<path d="M 241.98829,165.39689 L 263.28388,165.39689 L 260.78375,150.53548 L 245.34771,150.53548 L 241.98829,165.39689 z" id="path3306" style="fill:#f1b517;fill-opacity:1;fill-rule:evenodd;stroke:#000000;stroke-width:1px;stroke-linecap:butt;stroke-linejoin:miter;stroke-opacity:1" />
<path d="M 243.352,153.4824 L 262.38281,153.4824 L 258.79558,138.62099 L 247.07379,138.62099 L 243.352,153.4824 z" id="path3310" style="fill:#f1b517;fill-opacity:1;fill-rule:evenodd;stroke:#000000;stroke-width:1px;stroke-linecap:butt;stroke-linejoin:miter;stroke-opacity:1" />
<path d="M 244.575,141.43375 L 260.43511,141.43375 L 257.7538,126.57234 L 247.66265,126.57234 L 244.575,141.43375 z" id="path3312" style="fill:#f1b517;fill-opacity:1;fill-rule:evenodd;stroke:#000000;stroke-width:1px;stroke-linecap:butt;stroke-linejoin:miter;stroke-opacity:1" />
<path d="M 258.3125,124.8125 L 247.21875,124.8125 L 246.09375,130.1875 L 259.21875,130.1875 L 258.3125,124.8125 z" id="path3314" style="fill:#f1b517;fill-opacity:1;fill-rule:evenodd;stroke:#000000;stroke-width:1px;stroke-linecap:butt;stroke-linejoin:miter;stroke-opacity:1" />
<path d="M 260.58702,290.34707 L 246.49431,290.34707" id="path3316" style="fill:none;fill-rule:evenodd;stroke:#000000;stroke-width:1px;stroke-linecap:butt;stroke-linejoin:miter;stroke-opacity:1" />
<path d="M 261.35846,279.49146 L 245.54443,279.49146" id="path3318" style="fill:none;fill-rule:evenodd;stroke:#000000;stroke-width:1px;stroke-linecap:butt;stroke-linejoin:miter;stroke-opacity:1" />
<path d="M 263.44863,268.47503 L 243.40508,268.47503" id="path3320" style="fill:none;fill-rule:evenodd;stroke:#000000;stroke-width:1px;stroke-linecap:butt;stroke-linejoin:miter;stroke-opacity:1" />
<path d="M 264.48142,256.475 L 243.50344,256.475" id="path3322" style="fill:none;fill-rule:evenodd;stroke:#000000;stroke-width:1px;stroke-linecap:butt;stroke-linejoin:miter;stroke-opacity:1" />
<path d="M 264.62896,244.47497 L 242.56901,244.47497" id="path3324" style="fill:none;fill-rule:evenodd;stroke:#000000;stroke-width:1px;stroke-linecap:butt;stroke-linejoin:miter;stroke-opacity:1" />
<path d="M 265.48962,233.50773 L 241.56081,233.50773" id="path3327" style="fill:none;fill-rule:evenodd;stroke:#000000;stroke-width:1px;stroke-linecap:butt;stroke-linejoin:miter;stroke-opacity:1" />
<path d="M 265.53881,223.5241 L 240.52803,223.5241" id="path3329" style="fill:none;fill-rule:evenodd;stroke:#000000;stroke-width:1px;stroke-linecap:butt;stroke-linejoin:miter;stroke-opacity:1" />
<path d="M 265.39126,211.47489 L 240.38048,211.47489" id="path3331" style="fill:none;fill-rule:evenodd;stroke:#000000;stroke-width:1px;stroke-linecap:butt;stroke-linejoin:miter;stroke-opacity:1" />
<path d="M 264.5552,199.57322 L 240.38048,199.57322" id="path3333" style="fill:none;fill-rule:evenodd;stroke:#000000;stroke-width:1px;stroke-linecap:butt;stroke-linejoin:miter;stroke-opacity:1" />
<path d="M 263.44864,187.47483 L 241.5854,187.47483" id="path3335" style="fill:none;fill-rule:evenodd;stroke:#000000;stroke-width:1px;stroke-linecap:butt;stroke-linejoin:miter;stroke-opacity:1" />
<path d="M 262.39126,176.55677 L 242.64278,176.55677" id="path3337" style="fill:none;fill-rule:evenodd;stroke:#000000;stroke-width:1px;stroke-linecap:butt;stroke-linejoin:miter;stroke-opacity:1" />
</g>
<g transform="translate(-520,0)" id="Drum" style="opacity:1">
<path d="M 773.625,297.875 C 760.11718,297.875 749.15626,303.13749 749.15625,309.59375 C 749.15625,310.70093 749.46015,311.76591 750.0625,312.78125 C 752.98373,316.28816 762.46861,318.84375 773.71875,318.84375 C 784.24233,318.84376 793.21089,316.59855 796.71875,313.4375 C 797.60288,312.22916 798.09375,310.94571 798.09375,309.59375 C 798.09375,303.13747 787.13282,297.875 773.625,297.875 z" id="path2539" style="opacity:1;fill:#0a328c;fill-opacity:1;fill-rule:evenodd;stroke:#0a328c;stroke-width:1.26463008;stroke-linecap:round;stroke-linejoin:miter;marker:none;marker-start:none;marker-mid:none;marker-end:none;stroke-miterlimit:4;stroke-dasharray:none;stroke-dashoffset:0;stroke-opacity:1;visibility:visible;display:inline;overflow:visible;enable-background:accumulate" />
<path d="M 798.31097,310.49061 C 798.31097,310.49061 798.31097,349.83696 798.31097,349.83696 C 798.31097,354.45035 787.29403,358.19454 773.71959,358.19454 C 760.14515,358.19454 749.12822,354.45035 749.12822,349.83696 C 749.12822,349.83696 749.12822,310.49061 749.12822,310.49061 C 749.12822,315.10399 760.14515,318.84819 773.71959,318.84819 C 787.29403,318.84819 798.31097,315.10399 798.31097,310.49061 z" id="path2499" style="opacity:1;fill:#f1b517;fill-opacity:1;fill-rule:evenodd;stroke:#000000;stroke-width:1.0232923;stroke-linecap:round;stroke-linejoin:miter;marker:none;marker-start:none;marker-mid:none;marker-end:none;stroke-miterlimit:4;stroke-dashoffset:0;stroke-opacity:1;visibility:visible;display:inline;overflow:visible;enable-background:accumulate" />
<path d="M 749.125,310.5 C 749.125,310.5 749.125,314.96548 749.125,316.53125 L 761.0625,354.6875 L 770.59375,325.34375 L 781.0625,355.8125 L 788.72259,327.05386 L 798.3125,346.38704 C 798.3125,346.38704 798.3125,335.6875 798.3125,335.6875 L 789.40625,316.9375 C 788.4072,317.21953 787.3419,317.46133 786.21875,317.6875 L 780.6875,338.9375 L 772.90625,318.84375 C 771.60318,318.82915 770.3068,318.79976 769.0625,318.71875 L 761.25,338.9375 L 752.3125,314.59375 C 750.29258,313.38048 749.125,311.9926 749.125,310.5 z" id="path3288" style="opacity:1;fill:#d20014;fill-opacity:1;fill-rule:evenodd;stroke:#d20014;stroke-width:1px;stroke-linecap:butt;stroke-linejoin:miter;stroke-opacity:1" />
<g id="g3851">
<path d="M 798.31097,342.49061 C 798.31097,342.49061 798.31097,349.83696 798.31097,349.83696 C 798.31097,354.45035 787.29403,358.19454 773.71959,358.19454 C 760.14515,358.19454 749.12822,354.45035 749.12822,349.83696 C 749.12822,349.83696 749.12822,342.49061 749.12822,342.49061 C 749.12822,347.10399 760.14515,350.84819 773.71959,350.84819 C 787.29403,350.84819 798.31097,347.10399 798.31097,342.49061 z" id="use3284" style="opacity:1;fill:#0a328c;fill-opacity:1;fill-rule:evenodd;stroke:#0a328c;stroke-width:1.0232923;stroke-linecap:round;stroke-linejoin:miter;marker:none;marker-start:none;marker-mid:none;marker-end:none;stroke-miterlimit:4;stroke-dashoffset:0;stroke-opacity:1;visibility:visible;display:inline;overflow:visible;enable-background:accumulate" />
<path d="M 263.84375,350.09375 C 261.84438,350.40202 259.71015,350.633 257.46875,350.75 L 257.53125,358.09375 C 259.77328,357.97474 261.90763,357.74792 263.90625,357.4375 L 263.84375,350.09375 z" transform="translate(520,0)" id="use2504" style="fill:#f1b517;fill-opacity:1;fill-rule:evenodd;stroke:#000000;stroke-width:1.0232923;stroke-linecap:round;stroke-linejoin:miter;marker:none;marker-start:none;marker-mid:none;marker-end:none;stroke-miterlimit:4;stroke-dashoffset:0;stroke-opacity:1;visibility:visible;display:inline;overflow:visible;enable-background:accumulate" />
<path d="M 237.65625,348.8125 L 237.59375,356.125 C 239.49151,356.68768 241.62604,357.15502 243.96875,357.5 L 243.96875,350.15625 C 241.65362,349.81533 239.53762,349.36629 237.65625,348.8125 z" transform="translate(520,0)" id="use2509" style="fill:#f1b517;fill-opacity:1;fill-rule:evenodd;stroke:#000000;stroke-width:1.0232923;stroke-linecap:round;stroke-linejoin:miter;marker:none;marker-start:none;marker-mid:none;marker-end:none;stroke-miterlimit:4;stroke-dashoffset:0;stroke-opacity:1;visibility:visible;display:inline;overflow:visible;enable-background:accumulate" />
<path d="M 229.125,342.5 C 229.125,342.5 229.125,349.84373 229.125,349.84375 C 229.125,351.2138 230.12209,352.48357 231.84375,353.625 L 231.96875,346.375 C 230.16199,345.21193 229.125,343.90586 229.125,342.5 z" transform="translate(520,0)" id="use2514" style="fill:#f1b517;fill-opacity:1;fill-rule:evenodd;stroke:#000000;stroke-width:1.0232923;stroke-linecap:round;stroke-linejoin:miter;marker:none;marker-start:none;marker-mid:none;marker-end:none;stroke-miterlimit:4;stroke-dashoffset:0;stroke-opacity:1;visibility:visible;display:inline;overflow:visible;enable-background:accumulate" />
<path d="M 278.3125,343.28125 L 278.1875,343.3125 C 277.75678,344.80364 276.15057,346.18655 273.71875,347.34375 L 273.75,354.65625 C 276.6023,353.29158 278.3125,351.64392 278.3125,349.84375 C 278.3125,349.84375 278.3125,344.52944 278.3125,343.28125 z" transform="translate(520,0)" id="use2519" style="fill:#f1b517;fill-opacity:1;fill-rule:evenodd;stroke:#000000;stroke-width:1.0232923;stroke-linecap:round;stroke-linejoin:miter;marker:none;marker-start:none;marker-mid:none;marker-end:none;stroke-miterlimit:4;stroke-dashoffset:0;stroke-opacity:1;visibility:visible;display:inline;overflow:visible;enable-background:accumulate" />
</g>
<path d="M 798.31097,310.74752 C 798.31097,310.74752 798.31097,349.83696 798.31097,349.83696 C 798.31097,354.45035 787.29403,358.19454 773.71959,358.19454 C 760.14515,358.19454 749.12822,354.45035 749.12822,349.83696 C 749.12822,349.83696 749.12822,310.74752 749.12822,310.74752" id="use3847" style="fill:none;fill-opacity:1;fill-rule:evenodd;stroke:#000000;stroke-width:1.0232923;stroke-linecap:round;stroke-linejoin:miter;marker:none;marker-start:none;marker-mid:none;marker-end:none;stroke-miterlimit:4;stroke-dashoffset:0;stroke-opacity:1;visibility:visible;display:inline;overflow:visible;enable-background:accumulate" />
<path d="M 792.06285,307.55569 C 792.06285,312.82366 781.96139,317.0942 769.50062,317.0942 C 757.03984,317.0942 746.93838,312.82366 746.93838,307.55569 C 746.93838,302.28772 757.03984,298.01718 769.50062,298.01718 C 781.96139,298.01718 792.06285,302.28772 792.06285,307.55569 z" transform="matrix(0.8432158,0,0,0.530281,124.86448,144.83073)" id="use3273" style="opacity:1;fill:#fff;fill-opacity:1;fill-rule:evenodd;stroke:#fff;stroke-width:1.56924522;stroke-linecap:round;stroke-linejoin:miter;marker:none;marker-start:none;marker-mid:none;marker-end:none;stroke-miterlimit:4;stroke-dasharray:none;stroke-dashoffset:0;stroke-opacity:1;visibility:visible;display:inline;overflow:visible;enable-background:accumulate" />
<path d="M 247.5,311.65625 L 248.34375,318.625 C 249.9949,318.7496 251.71079,318.83779 253.46875,318.84375 L 254.71875,311.65625 L 247.5,311.65625 z" transform="translate(520,0)" id="use2541" style="fill:#f1b517;fill-opacity:1;fill-rule:evenodd;stroke:#000000;stroke-width:1.26463008;stroke-linecap:round;stroke-linejoin:miter;marker:none;marker-start:none;marker-mid:none;marker-end:none;stroke-miterlimit:4;stroke-dasharray:none;stroke-dashoffset:0;stroke-opacity:1;visibility:visible;display:inline;overflow:visible;enable-background:accumulate" />
<path d="M 269.5625,309.96875 L 264.65625,311.34375 L 264.96875,317.90625 C 266.6371,317.61334 268.20685,317.2536 269.625,316.84375 L 269.5625,309.96875 z" transform="translate(520,0)" id="use2546" style="fill:#f1b517;fill-opacity:1;fill-rule:evenodd;stroke:#000000;stroke-width:1.26463008;stroke-linecap:round;stroke-linejoin:miter;marker:none;marker-start:none;marker-mid:none;marker-end:none;stroke-miterlimit:4;stroke-dasharray:none;stroke-dashoffset:0;stroke-opacity:1;visibility:visible;display:inline;overflow:visible;enable-background:accumulate" />
<path d="M 240.5,299.33035 C 239.10822,299.75603 237.80649,300.25156 236.625,300.7991 L 237.3125,306.0625 L 240.4375,305.03125 L 240.5,299.33035 z" transform="translate(520,0)" id="use2551" style="fill:#f1b517;fill-opacity:1;fill-rule:evenodd;stroke:#000000;stroke-width:1.26463008;stroke-linecap:round;stroke-linejoin:miter;marker:none;marker-start:none;marker-mid:none;marker-end:none;stroke-miterlimit:4;stroke-dasharray:none;stroke-dashoffset:0;stroke-opacity:1;visibility:visible;display:inline;overflow:visible;enable-background:accumulate" />
<path d="M 253.625,297.25357 C 252.9706,297.25357 252.32899,297.29183 251.6875,297.31607 L 252.75,303.90803 L 256,303.84553 L 257.28125,297.40982 C 256.08626,297.32362 254.86984,297.25357 253.625,297.25357 z" transform="translate(520,0)" id="use2556" style="fill:#f1b517;fill-opacity:1;fill-rule:evenodd;stroke:#000000;stroke-width:1.26463008;stroke-linecap:round;stroke-linejoin:miter;marker:none;marker-start:none;marker-mid:none;marker-end:none;stroke-miterlimit:4;stroke-dasharray:none;stroke-dashoffset:0;stroke-opacity:1;visibility:visible;display:inline;overflow:visible;enable-background:accumulate" />
<path d="M 268,299.58124 L 267.34375,305.34375 L 271.0625,306.70624 L 271.46875,301.04999 C 270.41266,300.51009 269.25097,300.01804 268,299.58124 z" transform="translate(520,0)" id="use2561" style="fill:#f1b517;fill-opacity:1;fill-rule:evenodd;stroke:#000000;stroke-width:1.26463008;stroke-linecap:round;stroke-linejoin:miter;marker:none;marker-start:none;marker-mid:none;marker-end:none;stroke-miterlimit:4;stroke-dasharray:none;stroke-dashoffset:0;stroke-opacity:1;visibility:visible;display:inline;overflow:visible;enable-background:accumulate" />
<path d="M 232.95062,315.05818 L 233.94136,307.88012 L 228.91297,305.05749 L 229.06251,313.22629 L 232.95062,315.05818 z" transform="translate(520,0)" id="path3858" style="fill:#f1b517;fill-opacity:1;fill-rule:evenodd;stroke:#000000;stroke-width:1px;stroke-linecap:butt;stroke-linejoin:miter;stroke-opacity:1" />
<path d="M 278.14104,313.51012 L 278.36536,306.33228 L 273.65489,307.79028 L 278.14104,313.51012 z" transform="translate(520,0)" id="path3866" style="fill:#f1b517;fill-opacity:1;fill-rule:evenodd;stroke:#000000;stroke-width:1px;stroke-linecap:butt;stroke-linejoin:miter;stroke-opacity:1" />
</g>
<g id="Mortar">
<g id="g3619">
<use transform="matrix(1,0,0,-1,-1.2161782e-2,534.0625)" id="use3617" style="fill:#016a16;fill-opacity:1" x="0" y="0" width="509" height="420" xlink:href="#use3602" />
<path d="M 188.07577,269.23602 C 188.07577,271.74774 183.99877,273.78624 178.97533,273.78624 C 173.95188,273.78624 169.87489,271.74774 169.87489,269.23602 C 169.87489,269.23602 169.87489,266.76735 169.87489,266.76735 C 169.87489,266.76735 188.07577,266.76735 188.07577,266.76735 C 188.07577,266.76735 188.07577,269.23602 188.07577,269.23602 z" transform="matrix(1.0745646,0,0,2.8824628,-10.214643,-500.30481)" id="path3595" style="fill:#016a16;fill-opacity:1;fill-rule:evenodd;stroke:#fff;stroke-width:0.5635407;stroke-linecap:round;stroke-linejoin:miter;marker:none;marker-start:none;marker-mid:none;marker-end:none;stroke-miterlimit:4;stroke-dashoffset:0;stroke-opacity:1;visibility:visible;display:inline;overflow:visible;enable-background:accumulate" />
<path d="M 187.99247,267.26428 C 187.99559,269.35982 185.24779,271.05962 181.85713,271.05962 C 178.46647,271.05962 175.71867,269.35982 175.72179,267.26428 C 175.71867,265.16874 178.46647,263.46894 181.85713,263.46894 C 185.24779,263.46894 187.99559,265.16874 187.99247,267.26428 z" transform="matrix(1.5829309,0,0,1.3195467,-105.76137,-86.313448)" id="path3600" style="opacity:1;fill:#fff;fill-opacity:1;fill-rule:evenodd;stroke:none;stroke-width:0.69192117;stroke-linecap:round;stroke-linejoin:miter;marker:none;marker-start:none;marker-mid:none;marker-end:none;stroke-miterlimit:4;stroke-dasharray:none;stroke-dashoffset:0;stroke-opacity:1;visibility:visible;display:inline;overflow:visible;enable-background:accumulate" />
<path d="M 179.88537,271.99441 L 178.21696,253.61361 L 185.64899,253.61361 L 184.43559,271.99441 L 179.88537,271.99441 z" id="path3598" style="fill:#016a16;fill-opacity:1;fill-rule:evenodd;stroke:#f1b517;stroke-width:1px;stroke-linecap:butt;stroke-linejoin:miter;stroke-opacity:1" />
<path d="M 192.85591,266.65625 C 191.43078,269.40559 187.15172,271.40625 182.10591,271.40625 C 177.06009,271.40624 172.81229,269.40559 171.38716,266.65625 C 171.05828,267.29071 170.85591,267.95707 170.85591,268.65625 C 170.85591,272.38521 175.89567,275.40624 182.10591,275.40625 C 188.31614,275.40625 193.35591,272.38521 193.35591,268.65625 C 193.35591,267.95707 193.18479,267.29071 192.85591,266.65625 z" id="use3602" style="fill:#016a16;fill-opacity:1;fill-rule:evenodd;stroke:#fff;stroke-width:1.29949546;stroke-linecap:round;stroke-linejoin:miter;marker:none;marker-start:none;marker-mid:none;marker-end:none;stroke-miterlimit:4;stroke-dashoffset:0;stroke-opacity:1;visibility:visible;display:inline;overflow:visible;enable-background:accumulate" />
</g>
<g transform="translate(-520,0)" id="g3626">
<path d="M 694.53125,304.6875 L 714.1875,306.75 L 717.25,288.65625 L 694.1875,286.21875" id="path3628" style="opacity:1;fill:#f1b517;fill-opacity:1;fill-rule:evenodd;stroke:#000000;stroke-width:1px;stroke-linecap:butt;stroke-linejoin:miter;stroke-opacity:1" />
<path d="M 699.6608,285.48001 L 696.71941,306.85418 L 702.6022,306.65808 L 704.95532,285.48001 L 699.6608,285.48001 z" id="path3634" style="opacity:1;fill:#f1b517;fill-opacity:1;fill-rule:evenodd;stroke:#000000;stroke-width:1px;stroke-linecap:butt;stroke-linejoin:miter;stroke-opacity:1" />
</g>
</g>
<g id="Helmet">
<path d="M 328.10728,266.15982 C 332.57567,265.52148 339.19952,271.87078 339.59741,279.72456 C 339.91314,285.95652 330.50106,285.62922 330.50106,285.62922 C 330.02231,288.18258 324.83193,290.54525 320.60677,290.73594 C 316.50774,290.92094 321.72387,282.75668 321.72387,282.75668 C 319.17051,275.73493 322.5218,267.4365 322.5218,267.4365 L 328.10728,266.15982 z" id="path3655" style="fill:#f1b517;fill-opacity:1;fill-rule:evenodd;stroke:#000000;stroke-width:1px;stroke-linecap:butt;stroke-linejoin:miter;stroke-opacity:1" />
<path d="M 321.72387,282.43751 L 326.03267,282.27793 C 326.03267,282.27793 326.36249,284.58103 327.14977,284.67171 C 327.99657,284.76924 328.90521,282.43751 328.90521,282.43751 L 335.4482,282.27793" id="path3657" style="fill:none;fill-rule:evenodd;stroke:#000000;stroke-width:1px;stroke-linecap:butt;stroke-linejoin:miter;stroke-opacity:1" />
<path d="M 330.50106,270.78779 C 334.15682,268.04816 330.95256,262.53584 328.42645,262.48936 C 328.42645,262.48936 322.5218,262.64894 322.5218,262.64894 C 319.73905,262.70849 315.03454,265.84132 315.65963,268.5536 C 316.2047,270.91866 317.73609,271.99719 320.12802,271.58572 C 321.21424,271.39886 323.49542,268.44522 324.59641,268.39401 C 326.07354,268.32531 329.31774,271.67457 330.50106,270.78779 z" id="path3659" style="fill:#d20014;fill-opacity:1;fill-rule:evenodd;stroke:#f1b517;stroke-width:1px;stroke-linecap:butt;stroke-linejoin:miter;stroke-opacity:1" />
</g>
<g id="Hat-on-pole">
<path d="M 254.01143,37.685155 C 250.3098,35.879494 241.9353,30.367907 244.41971,27.077837 C 244.41971,27.077837 248.25639,20.307208 248.25639,20.307208 C 253.69171,7.6157643 248.15756,12.532875 247.57933,8.5714512 C 247.02407,4.767414 268.36336,7.7380525 268.68112,16.357674 C 268.76865,18.732025 267.0983,17.33858 267.327,30.914526 C 267.327,30.914526 263.26463,39.039281 263.26463,39.039281 C 260.2262,39.332783 256.62826,38.961648 254.01143,37.685155 z" id="path3710" style="fill:#0a328c;fill-opacity:1;fill-rule:evenodd;stroke:#0a328c;stroke-width:1px;stroke-linecap:butt;stroke-linejoin:miter;stroke-opacity:1" />
<path d="M 256.60683,70.522706 L 251.30318,65.89611 L 252.77015,26.28793 L 257.96096,27.867743 L 256.60683,70.522706 z" id="path3708" style="fill:#f1b517;fill-opacity:1;fill-rule:evenodd;stroke:#000000;stroke-width:1px;stroke-linecap:butt;stroke-linejoin:miter;stroke-opacity:1" />
<path d="M 263.4903,38.813594 C 266.8202,36.793553 268.99991,30.769357 266.98847,27.190681 C 261.52385,20.013718 257.98699,22.975144 248.82061,19.742989 C 246.99256,21.761168 243.14333,25.644657 243.96833,28.544806 C 256.02741,34.429464 251.34512,29.417407 255.33513,30.150502 C 257.48603,30.545693 258.87596,33.189133 263.4903,38.813594 z" id="path3712" style="fill:#d20014;fill-opacity:1;fill-rule:evenodd;stroke:#d20014;stroke-width:1px;stroke-linecap:butt;stroke-linejoin:miter;stroke-opacity:1" />
</g>
<path d="M 62.1875,348.8125 C 58.870658,349.24757 58.256154,353.2079 59.5,356.84375 C 45.052273,361.05369 32.145147,366.54051 19.40625,370.25 C 18.893521,367.6104 25.71875,359.96874 25.71875,359.96875 C 27.524251,360.8715 28.874999,365.15626 28.875,365.15625 C 29.326375,356.35443 37.687499,350.49999 37.6875,350.5 C 32.722372,349.82294 17.618001,355.89244 15.8125,358.375 C 15.8125,358.375 21.659748,357.69795 22.5625,358.375 C 22.5625,358.375 11.048111,371.26178 10.53125,375.09375 C 12.322328,379.28107 32.187498,382.40624 32.1875,382.40625 C 31.873994,383.49025 26.343749,387.59375 26.34375,387.59375 C 34.244853,389.39258 46.160885,383.59133 49.71875,380.0625 C 49.71875,380.0625 40.42486,379.26824 33.1875,373.1875 C 33.1875,373.1875 34.679904,376.97369 33.78125,378.78125 C 33.78125,378.78125 22.490494,375.40703 21.3125,373.46875 C 21.342467,373.30093 48.020657,366.1397 60.9375,362.3125 C 61.415902,364.70451 63.98063,369.22378 67.0625,368.15625 C 69.072831,367.45989 68.435947,363.33029 67.6875,360.40625 C 68.414448,361.05324 69.357265,361.43749 70.40625,361.4375 C 72.677318,361.4375 74.531252,359.61481 74.53125,357.34375 C 74.53125,355.07268 72.677317,353.21875 70.40625,353.21875 C 68.590055,353.21875 67.076307,354.39753 66.53125,356.03125 C 66.016951,353.50737 64.675131,348.4862 62.1875,348.8125 z M 72.345275,357.32937 C 72.345275,358.39173 71.48307,359.25394 70.42071,359.25394 C 69.358349,359.25394 68.496144,358.39173 68.496144,357.32937 C 68.496144,356.26701 69.358349,355.40481 70.42071,355.40481 C 71.48307,355.40481 72.345275,356.26701 72.345275,357.32937 z" id="Anchor-left" style="opacity:1;fill:#f1b517;fill-opacity:1;fill-rule:evenodd;stroke:#000000;stroke-width:1px;stroke-linecap:butt;stroke-linejoin:miter;stroke-opacity:1" />
<g id="Anchor-right">
<path d="M 486.12705,365.69878 C 487.11102,363.65519 485.25676,353.36893 485.25676,353.36893 C 483.25138,353.59971 480.5123,357.16604 480.5123,357.16604 C 483.09855,348.74067 475.85969,334.65822 475.85969,334.65822 C 480.75695,335.72016 497.07888,352.0972 497.92641,355.04758 C 497.92641,355.04758 490.77867,352.40441 489.69879,352.73189 C 490.86459,361.12567 496.46466,365.02637 498.56828,369.39005 C 498.56828,369.39005 489.28715,371.50264 490.21979,379.54667 L 484.15762,379.66325 C 482.05918,376.98191 484.97368,372.55185 484.97368,372.55185 L 443.35454,354.48192 C 440.6732,353.31612 434.63977,350.4785 435.54367,347.13737 C 436.45504,343.76862 446.38563,348.53633 448.83381,349.35239 L 486.12705,365.69878 z" id="path3723" style="fill:#f1b517;fill-opacity:1;fill-rule:evenodd;stroke:#000000;stroke-width:1px;stroke-linecap:butt;stroke-linejoin:miter;stroke-opacity:1" />
<path d="M 446.15247,358.21249 L 451.04884,348.88607 C 452.79754,346.43789 449.18355,343.75654 446.61879,346.90421 L 441.13952,355.41456 C 438.69134,360.07777 443.82087,361.36016 446.15247,358.21249 z" id="path3735" style="fill:#f1b517;fill-opacity:1;fill-rule:evenodd;stroke:#000000;stroke-width:1px;stroke-linecap:butt;stroke-linejoin:miter;stroke-opacity:1" />
</g>
<g id="Banner">
<g id="g3765">
<g id="g3753">
<path d="M 154.28784,379.53476 L 153.94875,369.36194 L 142.08045,370.04013 L 141.40226,381.1172 L 154.28784,379.53476 z" id="path3743" style="fill:#fff;fill-opacity:1;fill-rule:evenodd;stroke:#000000;stroke-width:1px;stroke-linecap:butt;stroke-linejoin:miter;stroke-opacity:1" />
<path d="M 67.539543,393.79613 L 51.669596,384.56942 C 117.11477,390.78615 130.47982,367.12552 146.29415,365.85995 C 156.01548,365.07294 157.53351,377.01979 138.69612,371.33657 L 143.56766,383.83128 C 143.56766,383.83128 97.108213,410.92131 51.443533,399.73121 L 67.539543,393.79613 z" id="path3741" style="fill:#fff;fill-opacity:1;fill-rule:evenodd;stroke:#000000;stroke-width:1px;stroke-linecap:butt;stroke-linejoin:miter;stroke-opacity:1" />
</g>
<g transform="matrix(-1,0,0,1,508.23184,0)" id="use3757">
<path d="M 155.58784,379.53476 L 155.24875,369.36194 L 140.73192,369.70906 L 140.05373,380.78613 L 155.58784,379.53476 z" id="path3761" style="fill:#fff;fill-opacity:1;fill-rule:evenodd;stroke:#000000;stroke-width:1px;stroke-linecap:butt;stroke-linejoin:miter;stroke-opacity:1" />
<path d="M 65.822818,391.29908 L 50.889266,382.85269 C 125.85446,385.16778 108.78666,370.09077 146.29415,365.85995 C 155.98633,364.77121 163.27198,377.68192 138.69612,371.33657 L 143.56766,383.83128 C 143.56766,383.83128 131.77759,383.84341 131.77759,383.84341 C 106.24168,401.27324 71.778818,402.82921 48.946478,397.23416 L 65.822818,391.29908 z" id="path3763" style="opacity:1;fill:#fff;fill-opacity:1;fill-rule:evenodd;stroke:#000000;stroke-width:1px;stroke-linecap:butt;stroke-linejoin:miter;stroke-opacity:1" />
</g>
<path d="M 138.43055,371.40544 L 138.43056,388.989 C 138.43056,388.989 179.99315,404.97405 254.16232,404.97405 C 328.65064,404.97405 369.8941,388.989 369.8941,388.989 L 369.8941,371.40544 C 369.8941,371.40544 338.43694,386.43139 254.16232,386.43139 C 170.20729,386.43139 138.43055,371.40544 138.43055,371.40544 z" id="path3745" style="fill:#fff;fill-opacity:1;fill-rule:evenodd;stroke:#000000;stroke-width:1px;stroke-linecap:butt;stroke-linejoin:miter;stroke-opacity:1" />
</g>
<g id="g3806">
<path d="M 144.63733,389.08611 L 148.30488,376.2125 L 150.00848,376.69783 L 146.77373,388.05225 L 153.11394,389.85851 L 152.68114,391.3777 L 144.63733,389.08611 z M 156.66503,383.42511 L 156.86971,380.89651 L 157.41688,378.7274 L 159.23185,379.18524 L 158.68468,381.35435 L 157.64777,383.67301 L 156.66503,383.42511 z M 174.54882,382.55598 L 176.28461,382.90934 L 174.74185,390.48774 C 174.47348,391.80598 174.11125,392.82246 173.65516,393.53719 C 173.19905,394.25191 172.53231,394.7731 171.65493,395.10078 C 170.77754,395.42845 169.70657,395.46358 168.44202,395.20615 C 167.21325,394.956 166.25127,394.53964 165.55609,393.95706 C 164.8609,393.37448 164.42795,392.64806 164.25724,391.77778 C 164.08652,390.9075 164.14263,389.77745 164.42556,388.38763 L 165.96832,380.80923 L 167.7041,381.16258 L 166.16317,388.73204 C 165.93124,389.87134 165.8662,390.73245 165.96807,391.31538 C 166.06992,391.89831 166.34909,392.38843 166.80555,392.78574 C 167.26201,393.18306 167.86305,393.45761 168.60867,393.6094 C 169.88515,393.86926 170.85369,393.76514 171.51429,393.29704 C 172.17487,392.82895 172.67273,391.77175 173.00789,390.12543 L 174.54882,382.55598 z M 176.5025,396.54903 L 178.66335,383.33875 L 180.45656,383.63207 L 185.69857,395.13881 L 187.39511,384.76703 L 189.07117,385.04119 L 186.91033,398.25147 L 185.11712,397.95815 L 179.87659,386.4424 L 178.17857,396.82319 L 176.5025,396.54903 z M 190.16925,398.68782 L 192.00713,385.42875 L 193.76174,385.67196 L 191.92386,398.93103 L 190.16925,398.68782 z M 195.21076,392.83969 C 195.46299,390.63222 196.25315,388.97176 197.58124,387.8583 C 198.90932,386.74487 200.51078,386.29526 202.38563,386.50947 C 203.61334,386.64977 204.68659,387.06955 205.60538,387.76882 C 206.52414,388.46812 207.18212,389.37196 207.57934,390.48034 C 207.97652,391.58874 208.0991,392.8082 207.94709,394.13873 C 207.79297,395.48741 207.38295,396.66287 206.71703,397.6651 C 206.05109,398.66734 205.1879,399.38511 204.12747,399.81842 C 203.06702,400.25173 201.95923,400.40239 200.80409,400.2704 C 199.55217,400.12736 198.46787,399.69712 197.55117,398.97969 C 196.63447,398.26226 195.98188,397.35138 195.59341,396.24705 C 195.20494,395.14272 195.07739,394.00694 195.21076,392.83969 L 195.21076,392.83969 z M 197.02202,393.07422 C 196.83889,394.67691 197.12554,395.98864 197.88199,397.00942 C 198.63842,398.03019 199.66679,398.61487 200.96709,398.76344 C 202.29157,398.91478 203.43491,398.57366 204.39712,397.74006 C 205.3593,396.90647 205.93818,395.6339 206.13376,393.92235 C 206.25744,392.83978 206.18247,391.8739 205.90884,391.02469 C 205.63519,390.17549 205.17147,389.48838 204.5177,388.96335 C 203.8639,388.43833 203.09853,388.12572 202.2216,388.0255 C 200.97573,387.88316 199.85485,388.18856 198.85896,388.94171 C 197.86306,389.69487 197.25075,391.07237 197.02202,393.07422 L 197.02202,393.07422 z M 209.43727,400.96888 L 210.52798,387.62755 L 212.33898,387.7756 L 218.49001,398.82316 L 219.34636,388.34849 L 221.03905,388.48687 L 219.94835,401.8282 L 218.13735,401.68014 L 211.98705,390.62349 L 211.12996,401.10726 L 209.43727,400.96888 z M 228.20299,402.32153 L 228.78748,388.94845 L 237.80929,389.34277 L 237.74032,390.9209 L 230.48821,390.60393 L 230.3072,394.74539 L 236.58324,395.0197 L 236.51426,396.59783 L 230.23822,396.32352 L 229.97269,402.39888 L 228.20299,402.32153 z M 238.06406,402.7582 L 243.46283,389.47436 L 245.37083,389.51129 L 250.58925,403.00065 L 248.57171,402.9616 L 247.08909,398.87804 L 241.49292,398.76971 L 239.94466,402.7946 L 238.06406,402.7582 z M 242.03207,397.3372 L 246.56926,397.42503 L 245.24425,393.69156 C 244.84001,392.55739 244.54144,391.62618 244.34853,390.89792 C 244.16151,391.75277 243.90461,392.60017 243.57785,393.44012 L 242.03207,397.3372 z M 252.3243,402.97147 L 252.35006,389.58565 L 254.12144,389.58906 L 254.09568,402.97487 L 252.3243,402.97147 z M 260.61759,402.93453 L 260.44925,391.12953 L 256.03949,391.19241 L 256.01697,389.61293 L 266.62595,389.46165 L 266.64847,391.04113 L 262.22046,391.10427 L 262.38879,402.90928 L 260.61759,402.93453 z M 273.75235,402.61301 L 273.12637,389.24182 L 274.89582,389.15898 L 275.44793,400.95227 L 282.03319,400.64397 L 282.10706,402.22188 L 273.75235,402.61301 z M 282.7593,402.20623 L 286.93575,388.48892 L 288.83928,388.35331 L 295.25517,401.316 L 293.24235,401.4594 L 291.39683,397.5265 L 285.81376,397.92425 L 284.6355,402.07257 L 282.7593,402.20623 z M 286.22127,396.44888 L 290.74784,396.1264 L 289.09091,392.52792 C 288.58585,391.43492 288.20437,390.53449 287.94645,389.82664 C 287.83743,390.69489 287.65815,391.56204 287.40862,392.42807 L 286.22127,396.44888 z M 301.93492,400.67503 L 300.46689,387.36993 L 309.44284,386.37957 L 309.61608,387.94968 L 302.40084,388.74577 L 302.85546,392.86618 L 309.0996,392.17723 L 309.27284,393.74734 L 303.0287,394.43629 L 303.69562,400.48076 L 301.93492,400.67503 z M 311.75057,393.03644 C 311.43665,390.8369 311.78146,389.03063 312.78499,387.61765 C 313.78852,386.20469 315.22434,385.36489 317.09246,385.09826 C 318.31577,384.92369 319.46027,385.05857 320.52597,385.50291 C 321.59165,385.94727 322.45672,386.65545 323.12119,387.62745 C 323.78563,388.59946 324.21247,389.74835 324.40169,391.0741 C 324.59347,392.41794 324.49387,393.65886 324.10289,394.79687 C 323.71189,395.93488 323.05816,396.84753 322.14169,397.5348 C 321.22519,398.22208 320.19145,398.64785 319.04046,398.81212 C 317.79303,398.99015 316.63519,398.84795 315.56692,398.38552 C 314.49865,397.92309 313.63702,397.20673 312.98204,396.23645 C 312.32705,395.26617 311.91656,394.1995 311.75057,393.03644 L 311.75057,393.03644 z M 313.56229,392.80555 C 313.79021,394.40249 314.3991,395.59917 315.38899,396.3956 C 316.37888,397.19204 317.52163,397.4978 318.81727,397.31289 C 320.13699,397.12454 321.15699,396.50551 321.87725,395.45577 C 322.5975,394.40605 322.83593,393.02849 322.59255,391.32307 C 322.43859,390.24439 322.12191,389.32882 321.64252,388.57635 C 321.16312,387.8239 320.54078,387.27631 319.77553,386.93356 C 319.01026,386.59085 318.19073,386.48184 317.31694,386.60653 C 316.07555,386.78371 315.06825,387.36251 314.29507,388.34292 C 313.52188,389.32335 313.27762,390.81089 313.56229,392.80555 L 313.56229,392.80555 z M 327.61965,397.2988 L 325.22903,384.12816 L 331.06867,383.0682 C 332.24258,382.85513 333.15647,382.81144 333.81033,382.93712 C 334.46418,383.06282 335.02814,383.39198 335.50222,383.92459 C 335.97627,384.45722 336.27908,385.08589 336.41063,385.81059 C 336.58022,386.74494 336.42071,387.58745 335.93212,388.3381 C 335.44351,389.08877 334.58309,389.66564 333.35087,390.06872 C 333.85227,390.20662 334.24233,390.36163 334.52105,390.53376 C 335.11493,390.90853 335.70307,391.40498 336.28547,392.02311 L 339.22706,395.19192 L 337.03495,395.58981 L 334.79467,393.16603 C 334.14207,392.46784 333.61301,391.93902 333.2075,391.57955 C 332.80198,391.22009 332.45373,390.98015 332.16276,390.85973 C 331.87178,390.73933 331.58555,390.67064 331.30407,390.65367 C 331.09881,390.64763 330.77158,390.68537 330.32238,390.7669 L 328.30097,391.13381 L 329.36256,396.98244 L 327.61965,397.2988 z M 328.02701,389.62449 L 331.77336,388.94448 C 332.56994,388.7999 333.17789,388.60449 333.5972,388.35823 C 334.0165,388.112 334.31006,387.7865 334.47788,387.38173 C 334.64569,386.97699 334.691,386.56199 334.61382,386.13673 C 334.50075,385.51385 334.1817,385.0428 333.65667,384.72358 C 333.13163,384.40438 332.38098,384.33338 331.40472,384.51057 L 327.23611,385.26722 L 328.02701,389.62449 z M 349.16944,388.16574 L 350.99584,388.2132 C 350.95309,389.71408 350.54498,390.94312 349.7715,391.90031 C 348.998,392.85751 347.93128,393.48918 346.57134,393.79532 C 345.16388,394.11217 343.95471,394.08331 342.94382,393.70876 C 341.93292,393.33422 341.07503,392.65536 340.37014,391.6722 C 339.66524,390.68905 339.17242,389.57392 338.89168,388.3268 C 338.58553,386.96686 338.5783,385.72214 338.86999,384.59261 C 339.16168,383.46311 339.72791,382.52762 340.56868,381.78613 C 341.40945,381.04467 342.40588,380.54425 343.55798,380.28488 C 344.86447,379.99078 346.03798,380.07602 347.07851,380.5406 C 348.11903,381.0052 348.95017,381.80083 349.57195,382.92748 L 347.96077,383.71136 C 347.44399,382.82937 346.84879,382.23645 346.17516,381.9326 C 345.50151,381.62877 344.72821,381.57511 343.85523,381.77162 C 342.8516,381.99757 342.06692,382.42692 341.50117,383.05967 C 340.93543,383.69245 340.60721,384.44489 340.51652,385.317 C 340.42583,386.18912 340.47741,387.05573 340.67126,387.91682 C 340.92125,389.02735 341.30133,389.9604 341.81148,390.71597 C 342.32163,391.47155 342.9643,391.97735 343.73949,392.23337 C 344.51467,392.4894 345.30015,392.52784 346.09593,392.34869 C 347.06392,392.13078 347.82061,391.66718 348.36602,390.95787 C 348.91141,390.24858 349.17921,389.31787 349.16944,388.16574 L 349.16944,388.16574 z M 354.08979,391.8053 L 350.4903,378.9125 L 359.81252,376.30987 L 360.23729,377.83132 L 352.62121,379.95762 L 353.72365,383.90638 L 360.85602,381.91512 L 361.27834,383.42778 L 354.14596,385.41904 L 355.37116,389.80752 L 363.28625,387.59774 L 363.71102,389.11919 L 354.08979,391.8053 z" id="text3774" style="font-size:18.70000076px;font-style:normal;font-variant:normal;font-weight:normal;font-stretch:normal;text-align:start;line-height:100%;writing-mode:lr-tb;text-anchor:start;fill:#000000;fill-opacity:1;stroke:none;stroke-width:1px;stroke-linecap:butt;stroke-linejoin:miter;stroke-opacity:1;font-family:Arial;-inkscape-font-specification:Arial" />
<path d="M 138.43056,386.989 C 138.43056,386.989 179.99315,402.97405 254.16232,402.97405 C 328.65064,402.97405 369.8941,386.989 369.8941,386.989" id="path3150" style="fill:none;fill-opacity:1;fill-rule:evenodd;stroke:none;stroke-width:1px;stroke-linecap:butt;stroke-linejoin:miter;stroke-opacity:1" />
</g>
</g>
</g>
</svg>
